<ttFont>
        <CharString name=".notdef">
          -1200 218 188 rmoveto
          -365 hlineto
          -6 0 -4 2 0 3 0 2 1 4 1 5 1 4 86 112 171 219 7 8 6 4 5 0 4 0 3 -2 1 -3 76 -214 38 -112 0 -10 -3 -15 -8 -7 -14 0 rrcurveto
          -429 264 rmoveto
          -8 0 -5 1 0 2 rrcurveto
          115 544 rlineto
          4 14 9 7 16 0 5 0 3 -1 2 -2 79 -177 40 -93 0 -9 0 -2 -80 -92 -159 -183 -6 -6 -7 -3 -8 0 rrcurveto
          589 -469 rmoveto
          38 0 34 13 29 27 29 27 18 29 7 32 177 835 89 422 0 10 0 24 -7 22 -13 20 -20 30 -31 15 -40 0 rrcurveto
          -756 hlineto
          -36 0 -33 -13 -29 -26 -29 -25 -18 -31 -8 -36 -177 -834 -89 -422 0 -8 0 -23 7 -22 14 -20 20 -31 29 -15 39 0 rrcurveto
          770 469 rmoveto
          -4 0 -4 2 -2 3 -77 176 -39 93 0 10 0 1 79 92 157 182 8 6 7 3 6 0 8 0 5 -1 0 -3 rrcurveto
          -115 -544 rlineto
          -3 -13 -10 -7 -16 0 rrcurveto
          -202 473 rmoveto
          -3 0 -3 1 -1 3 -75 214 -38 112 0 8 3 15 9 8 15 0 rrcurveto
          364 hlineto
          6 0 3 -2 0 -3 0 -3 -1 -3 -1 -4 -1 -3 -86 -113 -170 -221 -6 -6 -7 -3 -8 0 rrcurveto
          endchar
        </CharString>
        <CharString name="A">
          0 834 1102 rmoveto
          6 0 4 -3 0 -7 rrcurveto
          52 -538 rlineto
          0 -2 0 -2 0 -1 -1 -3 -2 -3 -2 -2 -3 -3 -3 -1 -5 0 rrcurveto
          -332 hlineto
          -4 0 -3 1 -2 3 -1 2 -1 3 1 3 0 1 1 2 0 1 rrcurveto
          281 539 rlineto
          4 7 4 3 6 0 rrcurveto
          -400 -794 rmoveto
          462 hlineto
          11 0 5 -5 2 -10 rrcurveto
          28 -266 rlineto
          3 -25 10 -20 17 -15 18 -15 21 -7 26 0 33 0 31 12 27 24 28 23 17 27 6 31 3 12 0 11 0 12 rrcurveto
          -120 1221 rlineto
          -5 41 -16 33 -28 25 -28 25 -35 13 -41 0 -41 0 -39 -13 -39 -25 -39 -25 -30 -33 -23 -41 rrcurveto
          -638 -1221 rlineto
          -6 -12 -4 -11 -3 -12 -6 -31 5 -27 17 -23 18 -24 25 -12 33 0 26 0 25 7 24 15 23 15 19 20 14 25 rrcurveto
          141 266 rlineto
          6 10 7 5 10 0 rrcurveto
          endchar
        </CharString>
        <CharString name="B">
          0 631 -25 rmoveto
          250 0 254 204 52 244 26 123 -30 109 -100 67 -5 4 -11 5 0 -1 0 0 12 5 12 9 93 68 52 90 28 132 38 179 -133 212 -229 0 rrcurveto
          -354 hlineto
          -62 0 -69 -57 -13 -62 rrcurveto
          -257 -1212 rlineto
          -14 -62 45 -57 62 0 rrcurveto
          538 864 rmoveto
          -224 hlineto
          -14 0 -3 4 3 13 rrcurveto
          68 321 rlineto
          3 13 5 4 13 0 rrcurveto
          224 hlineto
          102 0 63 -63 -21 -98 -21 -99 -103 -95 -95 0 rrcurveto
          -135 -634 rmoveto
          -224 hlineto
          -14 0 -3 4 3 14 rrcurveto
          78 368 rlineto
          3 13 5 4 14 0 rrcurveto
          226 1 rlineto
          141 -4 68 -86 -20 -95 -26 -121 -119 -98 -132 0 rrcurveto
          endchar
        </CharString>
        <CharString name="C">
          0 724 -55 rmoveto
          91 0 87 14 84 27 60 18 37 37 11 54 9 42 -6 33 -20 22 -14 15 -21 7 -28 0 -13 0 -13 -3 -12 -6 -46 -21 -65 -10 -85 0 -107 2 -76 46 -47 89 -47 89 -5 129 36 170 rrcurveto
          37 173 63 131 91 89 91 89 93 46 95 2 100 0 62 -7 25 -15 12 -7 12 -4 12 0 24 0 22 8 22 17 30 22 19 29 8 35 21 99 -103 49 -225 0 -176 0 -157 -69 -136 -140 rrcurveto
          -130 -138 -91 -185 -53 -232 -46 -216 14 -179 74 -142 77 -139 127 -70 176 0 rrcurveto
          endchar
        </CharString>
        <CharString name="D">
          0 489 205 rmoveto
          -33 hlineto
          -13 0 -3 4 3 14 rrcurveto
          202 954 rlineto
          3 13 5 4 14 0 154 0 120 0 70 -90 63 -79 -26 -158 -46 -215 -69 -326 -142 -121 -302 0 rrcurveto
          -49 -230 rmoveto
          440 0 250 195 102 482 rrcurveto
          29 136 rlineto
          94 441 -167 196 -401 0 rrcurveto
          -200 hlineto
          -62 0 -69 -57 -13 -62 rrcurveto
          -258 -1212 rlineto
          -13 -62 45 -57 61 0 rrcurveto
          endchar
        </CharString>
        <CharString name="E">
          0 962 -25 rmoveto
          60 0 67 55 13 60 12 60 -43 55 -60 0 rrcurveto
          -525 hlineto
          -13 0 -3 4 3 13 rrcurveto
          73 346 rlineto
          3 13 5 4 13 0 rrcurveto
          469 hlineto
          59 0 68 56 12 59 13 60 -44 55 -59 0 rrcurveto
          -469 hlineto
          -13 0 -3 4 2 14 rrcurveto
          74 344 rlineto
          3 14 4 4 14 0 rrcurveto
          525 hlineto
          59 0 67 55 13 60 13 60 -44 55 -60 0 rrcurveto
          -653 hlineto
          -62 0 -69 -57 -13 -61 rrcurveto
          -258 -1214 rlineto
          -13 -61 45 -57 61 0 rrcurveto
          endchar
        </CharString>
        <CharString name="F">
          0 299 -55 rmoveto
          59 0 67 55 13 60 rrcurveto
          108 508 rlineto
          3 13 5 4 13 0 rrcurveto
          461 hlineto
          59 0 68 56 12 59 13 60 -44 55 -59 0 rrcurveto
          -461 hlineto
          -13 0 -3 4 2 14 rrcurveto
          74 344 rlineto
          3 14 4 4 14 0 rrcurveto
          537 hlineto
          59 0 67 55 13 60 13 60 -44 55 -60 0 rrcurveto
          -665 hlineto
          -62 0 -69 -57 -13 -61 rrcurveto
          -265 -1247 rlineto
          -13 -60 44 -55 60 0 rrcurveto
          endchar
        </CharString>
        <CharString name="G">
          0 594 -55 rmoveto
          154 0 141 58 127 115 36 33 22 40 10 46 rrcurveto
          95 448 rlineto
          4 20 -2 17 -10 15 -10 14 -15 7 -20 0 rrcurveto
          -319 hlineto
          -27 0 -27 -10 -27 -19 -27 -20 -17 -26 -7 -34 -8 -38 6 -30 19 -22 20 -23 24 -11 27 0 rrcurveto
          150 hlineto
          10 0 3 -6 -2 -11 rrcurveto
          -51 -238 rlineto
          -3 -15 -8 -11 -12 -9 -60 -39 -62 -20 -65 0 -98 0 -64 39 -31 79 -30 78 -1 109 27 137 rrcurveto
          35 167 rlineto
          15 70 23 67 31 66 37 82 43 59 49 38 49 39 57 19 65 0 101 0 55 -63 9 -125 3 -56 31 -28 58 0 30 0 28 11 26 22 26 22 17 28 7 34 2 9 0 12 -1 15 rrcurveto
          -10 233 -115 116 -218 0 -133 0 -110 -35 -86 -71 -156 -127 -106 -189 -57 -250 rrcurveto
          -35 -165 rlineto
          -21 -110 -3 -106 14 -103 14 -103 36 -85 58 -66 59 -66 87 -34 114 0 rrcurveto
          endchar
        </CharString>
        <CharString name="H">
          0 938 -55 rmoveto
          60 0 67 56 13 59 rrcurveto
          272 1280 rlineto
          13 60 -44 55 -60 0 -59 0 -67 -55 -13 -60 rrcurveto
          -108 -507 rlineto
          -3 -14 -5 -4 -13 0 rrcurveto
          -435 hlineto
          -13 0 -3 4 3 14 rrcurveto
          107 507 rlineto
          13 60 -43 55 -60 0 -60 0 -67 -55 -13 -60 rrcurveto
          -272 -1280 rlineto
          -13 -59 44 -56 60 0 60 0 67 56 12 59 rrcurveto
          108 508 rlineto
          3 13 5 4 14 0 rrcurveto
          434 hlineto
          13 0 4 -4 -3 -13 rrcurveto
          -108 -508 rlineto
          -13 -59 44 -56 59 0 rrcurveto
          endchar
        </CharString>
        <CharString name="I">
          0 914 -25 rmoveto
          60 0 67 55 13 60 13 60 -44 55 -60 0 rrcurveto
          -187 hlineto
          -13 0 -4 4 3 14 rrcurveto
          203 954 rlineto
          3 13 5 4 13 0 rrcurveto
          188 hlineto
          59 0 67 56 13 59 13 60 -44 56 -59 0 rrcurveto
          -640 hlineto
          -60 0 -67 -56 -13 -60 -13 -59 44 -56 60 0 rrcurveto
          187 hlineto
          14 0 3 -4 -3 -13 rrcurveto
          -203 -954 rlineto
          -3 -14 -5 -4 -13 0 rrcurveto
          -188 hlineto
          -59 0 -67 -55 -13 -60 -13 -60 44 -55 60 0 rrcurveto
          endchar
        </CharString>
        <CharString name="J">
          0 578 -55 rmoveto
          229 0 235 180 50 236 rrcurveto
          201 947 rlineto
          13 60 -45 57 -62 0 rrcurveto
          -403 hlineto
          -60 0 -67 -55 -13 -60 -12 -58 43 -58 60 0 rrcurveto
          275 hlineto
          14 0 2 -3 -3 -13 rrcurveto
          -173 -817 rlineto
          -11 -52 -26 -41 -45 -39 -62 -51 -47 -8 -82 0 -118 0 -54 58 -7 79 -5 47 -40 35 -49 0 -63 0 -66 -58 -13 -59 -15 -82 36 -67 46 -55 81 -102 110 -21 146 0 rrcurveto
          endchar
        </CharString>
        <CharString name="K">
          0 990 -55 rmoveto
          63 0 64 58 12 56 4 17 -1 22 -6 17 rrcurveto
          -268 683 rlineto
          -2 4 0 0 1 3 1 6 1 1 5 6 rrcurveto
          427 452 rlineto
          18 19 16 27 5 23 11 55 -37 61 -64 0 -33 0 -41 -17 -26 -27 rrcurveto
          -519 -544 rlineto
          -6 -6 -1 0 -7 0 -14 0 -4 4 3 14 rrcurveto
          98 461 rlineto
          13 60 -43 55 -61 0 -60 0 -66 -55 -13 -60 rrcurveto
          -273 -1281 rlineto
          -12 -58 44 -56 60 0 60 0 66 56 13 58 rrcurveto
          77 362 rlineto
          3 17 6 10 14 15 rrcurveto
          119 130 rlineto
          5 6 1 0 8 0 9 0 1 -1 4 -9 rrcurveto
          236 -585 rlineto
          12 -33 36 -26 41 0 rrcurveto
          endchar
        </CharString>
        <CharString name="L">
          0 977 -25 rmoveto
          59 0 66 55 12 59 12 61 -38 55 -66 0 rrcurveto
          -462 hlineto
          -38 0 -18 24 9 40 rrcurveto
          227 1069 rlineto
          12 57 -35 59 -66 1 -66 0 -63 -57 -12 -58 rrcurveto
          -255 -1201 rlineto
          -19 -87 60 -77 87 0 rrcurveto
          endchar
        </CharString>
        <CharString name="M">
          0 957 -55 rmoveto
          57 0 70 55 12 61 rrcurveto
          268 1260 rlineto
          15 70 -51 64 -70 0 -50 0 -61 -34 -29 -48 rrcurveto
          -329 -550 rlineto
          -11 -19 0 0 -8 0 -9 0 0 0 -3 19 rrcurveto
          -95 550 rlineto
          -8 48 -46 34 -51 0 -70 0 -77 -65 -14 -69 rrcurveto
          -268 -1260 rlineto
          -13 -60 43 -56 60 0 58 0 69 55 13 61 rrcurveto
          177 833 rlineto
          0 1 -8 -5 2 0 0 0 -5 4 0 -1 rrcurveto
          58 -347 rlineto
          10 -54 51 -32 51 0 55 0 66 36 31 50 rrcurveto
          205 347 rlineto
          0 1 -6 -4 0 0 3 0 -5 5 -1 -1 rrcurveto
          -177 -833 rlineto
          -13 -60 44 -56 60 0 rrcurveto
          endchar
        </CharString>
        <CharString name="N">
          0 929 -55 rmoveto
          69 0 79 63 15 72 rrcurveto
          268 1260 rlineto
          13 60 -44 55 -60 0 -60 0 -66 -55 -13 -60 rrcurveto
          -187 -880 rlineto
          -1 -1 8 5 -1 0 -1 0 6 -4 -1 3 rrcurveto
          -278 915 rlineto
          -13 43 -44 34 -49 0 -70 0 -78 -64 -15 -70 rrcurveto
          -268 -1260 rlineto
          -13 -60 44 -56 60 0 60 0 67 56 12 60 rrcurveto
          188 880 rlineto
          0 1 -9 -6 2 0 2 0 -6 3 0 -1 rrcurveto
          279 -915 rlineto
          13 -46 43 -32 49 0 rrcurveto
          endchar
        </CharString>
        <CharString name="O">
          0 588 -55 rmoveto
          415 0 166 450 64 305 65 305 23 450 -411 0 -410 0 -172 -451 -64 -304 -64 -303 -27 -452 415 0 rrcurveto
          49 230 rmoveto
          -210 0 17 293 50 232 49 233 108 292 210 0 209 0 -18 -299 -48 -226 -48 -225 -109 -300 -210 0 rrcurveto
          endchar
        </CharString>
        <CharString name="P">
          0 299 -55 rmoveto
          59 0 68 56 12 59 rrcurveto
          97 457 rlineto
          3 14 5 4 14 0 rrcurveto
          234 hlineto
          219 0 230 191 56 267 30 141 -22 91 -60 79 -62 79 -91 42 -111 0 rrcurveto
          -363 hlineto
          -62 0 -69 -57 -13 -62 rrcurveto
          -265 -1246 rlineto
          -13 -59 44 -56 60 0 rrcurveto
          541 820 rmoveto
          -234 hlineto
          -14 0 -3 4 3 14 rrcurveto
          84 394 rlineto
          2 13 5 4 14 0 rrcurveto
          234 hlineto
          102 0 62 -63 -29 -138 -19 -91 -27 -47 -43 -36 -45 -37 -42 -17 -50 0 rrcurveto
          endchar
        </CharString>
        <CharString name="Q">
          0 891 -446 rmoveto
          61 0 67 59 12 56 10 44 -22 49 -40 16 rrcurveto
          -360 142 rlineto
          -11 4 -15 3 -12 0 -61 0 -67 -59 -12 -56 -9 -44 22 -48 40 -17 rrcurveto
          360 -142 rlineto
          11 -4 14 -3 12 0 rrcurveto
          -303 391 rmoveto
          415 0 166 450 64 305 65 305 23 450 -411 0 -410 0 -172 -451 -64 -304 -64 -303 -27 -452 415 0 rrcurveto
          49 230 rmoveto
          -210 0 17 293 50 232 49 233 108 292 210 0 209 0 -18 -299 -48 -226 -48 -225 -109 -300 -210 0 rrcurveto
          endchar
        </CharString>
        <CharString name="R">
          0 955 -55 rmoveto
          64 0 65 59 12 57 3 16 0 24 -6 16 rrcurveto
          -188 440 rlineto
          0 1 0 -1 1 6 2 11 2 3 9 3 149 59 145 150 44 205 32 152 -25 79 -60 79 -61 80 -92 41 -111 0 rrcurveto
          -353 hlineto
          -62 0 -69 -57 -13 -62 rrcurveto
          -265 -1245 rlineto
          -13 -63 45 -53 61 0 58 0 67 56 13 60 rrcurveto
          99 466 rlineto
          3 13 6 5 13 0 rrcurveto
          109 hlineto
          7 0 2 -2 4 -8 rrcurveto
          217 -532 rlineto
          14 -32 33 -26 39 0 rrcurveto
          -152 830 rmoveto
          -224 hlineto
          -14 0 -3 4 3 14 rrcurveto
          82 384 rlineto
          2 13 5 4 14 0 rrcurveto
          224 hlineto
          103 0 63 -57 -31 -143 -31 -145 -96 -74 -97 0 rrcurveto
          endchar
        </CharString>
        <CharString name="S">
          0 599 -55 rmoveto
          86 0 76 15 66 31 67 30 64 45 61 61 62 61 40 76 19 91 32 149 -49 120 -131 91 -47 31 -65 32 -85 31 -137 50 -58 78 21 106 12 57 29 46 47 32 46 33 55 16 62 0 rrcurveto
          54 0 45 -10 36 -21 36 -21 20 -25 5 -31 9 -59 30 -30 52 0 68 0 42 38 15 75 3 11 1 12 -1 13 -1 80 -33 66 -65 52 -64 52 -92 26 -120 0 -78 0 -74 -15 -70 -32 rrcurveto
          -69 -32 -63 -47 -56 -64 -56 -64 -39 -82 -21 -98 -42 -198 104 -146 250 -95 37 -14 37 -18 38 -20 82 -44 35 -53 -14 -63 -15 -73 -43 -53 -70 -34 -45 -21 -46 -11 -45 0 -98 2 -78 49 -57 96 rrcurveto
          -22 38 -29 19 -36 0 -33 0 -29 -12 -25 -24 -25 -24 -16 -30 -8 -34 -3 -15 0 -14 2 -13 16 -66 46 -61 75 -58 76 -57 90 -29 104 0 rrcurveto
          endchar
        </CharString>
        <CharString name="T">
          0 588 -55 rmoveto
          60 0 67 56 13 59 rrcurveto
          237 1117 rlineto
          3 14 5 4 14 0 rrcurveto
          247 hlineto
          60 0 67 54 13 60 12 60 -43 56 -60 0 rrcurveto
          -760 hlineto
          -60 0 -67 -56 -13 -60 -13 -60 45 -54 59 0 rrcurveto
          247 hlineto
          16 0 2 -2 -4 -16 rrcurveto
          -237 -1117 rlineto
          -13 -59 44 -56 59 0 rrcurveto
          endchar
        </CharString>
        <CharString name="U">
          0 588 -55 rmoveto
          287 0 226 227 70 329 rrcurveto
          179 843 rlineto
          13 60 -44 55 -59 0 -60 0 -67 -55 -13 -60 rrcurveto
          -179 -843 rlineto
          -41 -191 -104 -130 -159 0 -157 0 -48 136 39 185 rrcurveto
          180 843 rlineto
          12 60 -43 55 -60 0 -60 0 -67 -55 -13 -60 rrcurveto
          -179 -843 rlineto
          -70 -329 129 -227 288 0 rrcurveto
          endchar
        </CharString>
        <CharString name="V">
          0 592 -38 rmoveto
          62 0 69 49 29 59 rrcurveto
          622 1256 rlineto
          5 12 3 10 1 7 12 57 -39 60 -63 0 -50 0 -58 -39 -22 -47 rrcurveto
          -481 -984 rlineto
          1 3 6 3 -2 0 -1 0 5 -5 0 -1 rrcurveto
          -65 984 rlineto
          -3 47 -40 39 -49 0 -55 0 -72 -52 -13 -63 -2 -9 -1 -11 0 -10 rrcurveto
          76 -1257 rlineto
          4 -69 54 -39 67 0 rrcurveto
          endchar
        </CharString>
        <CharString name="W">
          0 894 -55 rmoveto
          68 0 77 59 17 69 rrcurveto
          338 1268 rlineto
          12 58 -46 56 -59 0 -59 0 -67 -53 -15 -59 rrcurveto
          -226 -869 rlineto
          0 -1 8 7 1 0 2 0 4 -3 0 -1 rrcurveto
          -27 458 rlineto
          -4 51 -49 38 -52 0 -52 0 -63 -38 -25 -49 rrcurveto
          -226 -460 rlineto
          -1 -1 7 5 2 0 3 0 4 -8 1 3 rrcurveto
          142 869 rlineto
          10 58 -43 53 -59 0 -59 0 -69 -53 -13 -59 rrcurveto
          -202 -1270 rlineto
          -12 -69 52 -59 68 0 54 0 62 38 30 53 rrcurveto
          324 636 rlineto
          0 0 -9 -5 -2 0 -1 0 -6 5 0 0 rrcurveto
          53 -634 rlineto
          5 -52 48 -41 54 0 rrcurveto
          endchar
        </CharString>
        <CharString name="X">
          0 950 -55 rmoveto
          64 0 65 61 12 58 4 17 -1 22 -5 18 rrcurveto
          -200 583 rlineto
          -1 3 0 1 1 4 1 5 0 0 3 4 rrcurveto
          419 557 rlineto
          13 18 9 22 4 17 12 58 -38 62 -65 0 -41 0 -49 -26 -27 -37 rrcurveto
          -336 -460 rlineto
          -2 -2 8 5 1 0 1 0 6 -5 0 2 rrcurveto
          -141 460 rlineto
          -12 39 -38 24 -42 0 -65 0 -65 -62 -12 -58 -4 -17 1 -22 5 -18 rrcurveto
          182 -557 rlineto
          1 -4 0 0 0 -5 -1 -4 -1 -1 -2 -3 rrcurveto
          -448 -583 rlineto
          -14 -18 -10 -22 -3 -18 -13 -60 42 -58 64 0 40 0 48 27 27 35 rrcurveto
          372 506 rlineto
          0 -1 -9 -4 1 0 0 0 -6 4 -1 1 rrcurveto
          155 -506 rlineto
          12 -35 37 -27 42 0 rrcurveto
          endchar
        </CharString>
        <CharString name="Y">
          0 589 -55 rmoveto
          60 0 66 56 13 60 rrcurveto
          134 632 rlineto
          2 10 4 8 8 11 rrcurveto
          435 562 rlineto
          13 17 10 22 4 18 12 56 -38 58 -63 0 -37 0 -50 -22 -28 -34 rrcurveto
          -312 -406 rlineto
          -5 -7 -1 0 -9 0 -8 0 -1 0 -3 7 rrcurveto
          -136 406 rlineto
          -14 37 -40 19 -38 0 -62 0 -65 -58 -11 -55 -4 -18 1 -23 6 -17 rrcurveto
          197 -564 rlineto
          4 -11 0 -8 -3 -14 rrcurveto
          -133 -626 rlineto
          -12 -61 44 -55 60 0 rrcurveto
          endchar
        </CharString>
        <CharString name="Z">
          0 935 -25 rmoveto
          60 0 67 55 12 60 13 60 -43 55 -60 0 rrcurveto
          -483 hlineto
          -14 0 -2 5 3 14 1 5 0 1 2 2 rrcurveto
          793 945 rlineto
          20 25 13 31 6 28 19 87 -60 77 -88 0 rrcurveto
          -630 hlineto
          -57 0 -70 -55 -12 -60 -13 -61 46 -55 57 0 rrcurveto
          483 hlineto
          16 0 2 -3 -3 -14 0 -4 -1 -1 -2 -2 rrcurveto
          -792 -945 rlineto
          -20 -24 -16 -32 -6 -28 -18 -87 61 -79 87 0 rrcurveto
          endchar
        </CharString>
        <CharString name="a">
          0 498 190 rmoveto
          -63 0 -32 38 0 77 0 28 4 34 8 39 21 90 34 78 47 67 48 67 49 53 52 37 53 37 46 19 42 0 46 0 31 -27 17 -53 7 -22 3 -24 0 -24 0 -18 -2 -19 -4 -19 rrcurveto
          -29 -140 -53 -111 -76 -83 -76 -81 -83 -41 -90 -2 rrcurveto
          493 -244 rmoveto
          89 0 64 23 41 45 13 15 6 16 0 19 0 16 -6 16 -11 15 -12 15 -16 7 -19 0 -13 0 -12 -3 -11 -5 -11 -5 -8 -3 -5 0 -14 0 -7 25 -1 49 0 74 9 81 18 88 rrcurveto
          47 221 49 186 51 151 3 11 1 8 0 7 0 20 -7 17 -15 14 -21 24 -26 12 -31 0 -61 0 -42 -29 -23 -58 rrcurveto
          -1 -4 rlineto
          0 -1 1 0 1 0 1 0 0 0 0 -1 -39 61 -55 31 -69 1 -93 0 -92 -33 -90 -67 -91 -67 -80 -86 -71 -103 -71 -103 -49 -114 -27 -125 -13 -57 -6 -52 0 -47 0 -74 15 -61 31 -49 rrcurveto
          51 -80 79 -40 105 0 77 0 78 21 79 43 79 43 55 43 33 45 2 3 1 1 1 0 -3 0 -1 -2 0 -3 6 -130 47 -65 90 0 rrcurveto
          endchar
        </CharString>
        <CharString name="ampersand">
          0 784 382 rmoveto
          48 34 55 70 62 105 rrcurveto
          -232 290 rlineto
          -49 60 -25 55 0 50 0 11 1 10 2 11 9 43 20 35 32 28 31 28 37 14 45 0 34 0 27 -8 20 -16 20 -17 15 -27 10 -38 9 -38 31 -19 51 0 30 0 28 11 25 22 rrcurveto
          32 28 16 31 0 34 0 8 -1 10 -1 12 -15 78 -35 59 -56 39 -56 39 -70 20 -86 0 -97 0 -92 -33 -86 -66 -86 -66 -55 -90 -23 -113 -6 -24 -2 -24 0 -24 0 -93 37 -91 75 -90 rrcurveto
          -6 -794 rmoveto
          96 0 101 33 105 67 105 66 93 89 80 111 80 111 50 100 18 90 2 7 1 8 0 7 0 19 -6 18 -12 16 -16 23 -26 12 -35 0 -53 0 -41 -35 -29 -69 -52 -118 -67 -98 -83 -79 rrcurveto
          -96 -89 -90 -45 -83 0 -91 0 -45 38 0 76 0 18 3 21 4 23 17 78 33 75 49 74 -45 51 -43 55 -41 61 -101 -113 -65 -128 -30 -143 -9 -39 -4 -37 0 -35 0 -73 18 -64 35 -55 rrcurveto
          53 -85 91 -42 129 0 rrcurveto
          510 hmoveto
          31 0 29 11 25 23 33 29 17 38 0 45 0 34 -14 55 -26 78 -64 -87 -58 -65 -50 -40 -3 -17 -1 -13 0 -9 0 -55 27 -27 54 0 rrcurveto
          endchar
        </CharString>
        <CharString name="ampersand_ampersand">
          0 724 382 rmoveto
          48 34 55 70 62 105 rrcurveto
          -232 290 rlineto
          -49 60 -25 55 0 50 0 11 1 10 2 11 9 43 20 35 32 28 31 28 37 14 45 0 34 0 27 -8 20 -16 20 -17 15 -27 10 -38 9 -38 31 -19 51 0 30 0 28 11 25 22 rrcurveto
          32 28 16 31 0 34 0 8 -1 10 -1 12 -15 78 -35 59 -56 39 -56 39 -70 20 -86 0 -97 0 -92 -33 -86 -66 -86 -66 -55 -90 -23 -113 -6 -24 -2 -24 0 -24 0 -93 37 -91 75 -90 rrcurveto
          -6 -794 rmoveto
          96 0 101 33 105 67 105 66 93 89 80 111 80 111 50 100 18 90 2 7 1 8 0 7 0 19 -6 18 -12 16 -16 23 -26 12 -35 0 -53 0 -41 -35 -29 -69 -52 -118 -67 -98 -83 -79 rrcurveto
          -96 -89 -90 -45 -83 0 -91 0 -45 38 0 76 0 18 3 21 4 23 17 78 33 75 49 74 -45 51 -43 55 -41 61 -101 -113 -65 -128 -30 -143 -9 -39 -4 -37 0 -35 0 -73 18 -64 35 -55 rrcurveto
          53 -85 91 -42 129 0 rrcurveto
          510 hmoveto
          31 0 29 11 25 23 33 29 17 38 0 45 0 34 -14 55 -26 78 -64 -87 -58 -65 -50 -40 -3 -17 -1 -13 0 -9 0 -55 27 -27 54 0 rrcurveto
          -1313 436 rmoveto
          48 34 55 70 62 105 rrcurveto
          -232 290 rlineto
          -49 60 -25 55 0 50 0 11 1 10 2 11 9 43 20 35 32 28 31 28 37 14 45 0 34 0 27 -8 20 -16 20 -17 15 -27 10 -38 9 -38 31 -19 51 0 30 0 28 11 25 22 rrcurveto
          32 28 16 31 0 34 0 8 -1 10 -1 12 -15 78 -35 59 -56 39 -56 39 -70 20 -86 0 -97 0 -92 -33 -86 -66 -86 -66 -55 -90 -23 -113 -6 -24 -2 -24 0 -24 0 -93 37 -91 75 -90 rrcurveto
          -6 -794 rmoveto
          96 0 101 33 105 67 105 66 93 89 80 111 80 111 50 100 18 90 2 7 1 8 0 7 0 19 -6 18 -12 16 -16 23 -26 12 -35 0 -53 0 -41 -35 -29 -69 -52 -118 -67 -98 -83 -79 rrcurveto
          -96 -89 -90 -45 -83 0 -91 0 -45 38 0 76 0 18 3 21 4 23 17 78 33 75 49 74 -45 51 -43 55 -41 61 -101 -113 -65 -128 -30 -143 -9 -39 -4 -37 0 -35 0 -73 18 -64 35 -55 rrcurveto
          53 -85 91 -42 129 0 rrcurveto
          510 hmoveto
          31 0 29 11 25 23 33 29 17 38 0 45 0 34 -14 55 -26 78 -64 -87 -58 -65 -50 -40 -3 -17 -1 -13 0 -9 0 -55 27 -27 54 0 rrcurveto
          endchar
        </CharString>
        <CharString name="asciicircum">
          0 1051 496 rmoveto
          17 0 21 5 16 9 36 18 34 39 8 38 1 8 2 10 0 9 0 10 -3 14 -5 10 rrcurveto
          -227 519 rlineto
          -18 36 -34 24 -38 0 -38 0 -40 -21 -31 -33 rrcurveto
          -448 -517 rlineto
          -16 -19 -8 -22 -4 -17 -1 -7 -1 -9 0 -7 0 -28 14 -32 24 -17 16 -13 24 -6 20 0 37 0 38 21 29 31 rrcurveto
          318 380 rlineto
          5 5 0 0 3 0 rrcurveto
          1 hlineto
          0 1 -1 0 -1 0 rrcurveto
          159 -378 rlineto
          17 -34 34 -27 40 0 rrcurveto
          endchar
        </CharString>
        <CharString name="asciitilde">
          0 880 408 rmoveto
          89 0 78 35 67 71 60 63 36 66 15 68 1 10 1 8 0 9 0 63 -30 31 -61 0 -55 0 -40 -32 -24 -64 -21 -61 -30 -31 -37 0 -19 0 -13 3 -7 6 -24 20 -24 32 -24 44 rrcurveto
          -54 95 -72 48 -90 0 -93 0 -81 -36 -68 -71 -57 -61 -37 -65 -14 -69 -3 -12 -1 -10 0 -11 0 -21 5 -18 10 -14 16 -24 25 -12 32 0 31 0 27 9 23 18 23 18 15 24 8 31 rrcurveto
          17 60 31 30 46 0 29 0 36 -36 41 -71 58 -95 73 -48 86 0 rrcurveto
          endchar
        </CharString>
        <CharString name="asciitilde_at">
          0 979 -54 rmoveto
          27 0 26 1 22 2 61 7 36 31 11 57 3 11 1 11 0 10 0 49 -27 24 -54 0 rrcurveto
          -54 -1 rlineto
          -44 0 -31 2 -19 5 -32 5 -17 39 0 70 0 36 5 44 9 52 18 93 15 75 10 54 10 55 5 40 0 25 0 54 -11 49 -24 43 -36 67 -64 35 -92 1 -185 -1 -149 -108 -113 -214 rrcurveto
          -47 -93 -34 -96 -21 -97 -16 -74 -8 -65 0 -55 0 -159 64 -79 127 0 147 2 86 61 25 119 2 8 1 8 0 7 0 15 -3 13 -8 13 -13 19 -19 10 -25 0 -18 0 -17 -7 -18 -15 rrcurveto
          -29 -25 -22 -13 -17 0 -29 0 -15 27 0 55 0 33 5 43 11 51 19 86 25 72 32 57 62 111 71 55 79 0 19 0 13 -8 9 -16 9 -16 5 -18 0 -21 0 -13 -17 -97 -33 -183 rrcurveto
          -13 -68 -7 -60 0 -52 0 -156 59 -84 118 -11 50 -5 45 -2 39 0 rrcurveto
          119 318 rmoveto
          71 0 44 31 16 61 27 104 21 89 15 74 25 116 12 104 0 90 0 128 -24 103 -50 77 -94 142 -132 71 -171 0 -212 -1 -195 -86 -178 -169 -119 -113 -96 -126 -74 -140 -63 -117 -72 -58 -80 0 rrcurveto
          -46 0 -26 3 -8 6 -23 20 -24 32 -23 44 -55 95 -72 48 -91 0 -93 0 -81 -36 -68 -72 -57 -60 -36 -65 -14 -69 -3 -12 -1 -10 0 -11 0 -21 5 -18 10 -14 16 -24 25 -12 32 0 rrcurveto
          31 0 27 9 23 18 23 18 15 24 8 31 17 60 31 30 46 0 30 0 36 -36 41 -71 58 -95 85 -48 113 0 94 0 82 28 71 55 80 61 65 74 48 89 72 135 80 107 89 80 rrcurveto
          74 63 67 44 59 25 58 24 64 12 69 0 198 -4 99 -119 0 -232 0 -50 -5 -56 -9 -60 -10 -54 -17 -91 -26 -129 -3 -20 -2 -17 0 -15 0 -63 27 -31 54 0 rrcurveto
          endchar
        </CharString>
        <CharString name="asterisk">
          0 617 57 rmoveto
          58 0 63 52 11 57 rrcurveto
          41 188 139 -92 rlineto
          16 -11 22 -4 17 0 59 0 63 52 12 57 rrcurveto
          2 21 rlineto
          0 31 -15 34 -27 16 rrcurveto
          -134 89 179 93 rlineto
          48 23 29 51 0 43 0 49 -43 46 -55 0 -17 0 -22 -4 -18 -10 rrcurveto
          -171 -88 36 173 rlineto
          2 7 1 9 0 8 0 50 -44 45 -53 0 -59 0 -61 -52 -12 -57 rrcurveto
          -40 -188 -140 92 rlineto
          -16 11 -22 4 -17 0 -58 0 -63 -52 -13 -57 rrcurveto
          -2 -21 rlineto
          0 -31 15 -33 26 -17 rrcurveto
          135 -88 -180 -93 rlineto
          -49 -26 -22 -40 -5 -50 0 -51 44 -46 54 0 17 0 22 4 18 10 rrcurveto
          172 88 -37 -173 rlineto
          -2 -8 -1 -8 0 -7 0 -50 43 -46 54 0 rrcurveto
          endchar
        </CharString>
        <CharString name="asterisk_slash">
          0 -2 -224 rmoveto
          39 0 50 27 24 38 rrcurveto
          1065 1622 rlineto
          14 20 8 28 0 21 0 32 -20 38 -32 15 -13 6 -17 4 -15 0 -40 0 -49 -27 -25 -37 rrcurveto
          -1065 -1623 rlineto
          -16 -27 -2 -9 -3 -29 0 -35 20 -37 31 -16 13 -7 18 -4 15 0 rrcurveto
          -623 81 rmoveto
          58 0 62 52 12 57 rrcurveto
          40 188 139 -92 rlineto
          17 -11 20 -4 18 0 72 0 64 68 0 64 0 30 -15 33 -26 16 rrcurveto
          -135 89 180 93 rlineto
          37 18 29 40 9 37 rrcurveto
          2 20 rlineto
          0 51 -44 46 -54 0 -17 0 -22 -4 -19 -10 rrcurveto
          -170 -87 37 173 2 21 rlineto
          0 51 -44 46 -53 0 -59 0 -62 -52 -11 -57 rrcurveto
          -40 -188 -141 92 rlineto
          -15 11 -21 4 -18 0 -71 0 -65 -67 0 -65 0 -30 15 -33 26 -16 rrcurveto
          134 -88 -179 -93 rlineto
          -49 -25 -22 -40 -6 -51 0 -51 45 -46 53 0 17 0 22 4 18 10 rrcurveto
          172 88 -36 -173 rlineto
          -2 -8 -1 -9 0 -7 0 -50 43 -45 54 0 rrcurveto
          endchar
        </CharString>
        <CharString name="at">
          0 979 -54 rmoveto
          27 0 26 1 22 2 61 7 36 31 11 57 3 11 1 11 0 9 0 49 -27 25 -55 0 rrcurveto
          -52 -1 rlineto
          -44 0 -31 2 -20 5 -33 5 -16 38 0 70 0 37 4 44 10 52 18 93 15 75 10 54 10 55 5 40 0 25 0 54 -11 49 -24 43 -36 67 -64 35 -92 1 -185 -1 -149 -108 -113 -214 rrcurveto
          -47 -93 -34 -96 -21 -97 -16 -74 -8 -65 0 -55 0 -159 64 -79 127 0 147 2 86 61 25 119 2 8 1 7 0 7 0 16 -4 13 -8 12 -11 20 -19 10 -26 0 -18 0 -17 -7 -19 -15 rrcurveto
          -28 -25 -22 -13 -17 0 -29 0 -15 27 0 55 0 33 5 43 11 51 19 86 25 72 32 57 62 111 71 55 79 0 19 0 13 -8 9 -16 9 -16 5 -18 0 -21 0 -13 -17 -97 -33 -183 rrcurveto
          -13 -68 -6 -60 0 -51 0 -157 58 -84 118 -11 49 -5 45 -2 40 0 rrcurveto
          119 318 rmoveto
          71 0 44 31 16 61 27 104 21 89 16 74 25 116 12 102 0 90 0 129 -25 103 -50 78 -94 142 -132 71 -171 0 -212 -1 -185 -87 -158 -173 -26 -30 -13 -36 0 -43 0 -25 7 -21 12 -16 rrcurveto
          20 -24 24 -12 29 0 32 0 27 11 23 21 63 59 58 45 53 33 53 33 60 17 67 0 197 -4 99 -118 0 -233 0 -50 -5 -56 -9 -60 -8 -54 -18 -91 -26 -129 -3 -20 -2 -17 0 -15 rrcurveto
          0 -63 27 -31 54 0 rrcurveto
          endchar
        </CharString>
        <CharString name="b">
          0 651 175 rmoveto
          -14 hlineto
          -47 0 -39 17 -31 34 -32 34 -15 38 0 43 0 18 2 20 4 21 rrcurveto
          45 213 rlineto
          13 56 35 55 59 53 52 45 57 22 61 0 76 0 48 -20 21 -39 22 -39 10 -43 0 -47 0 -43 -6 -51 -12 -58 -51 -216 -103 -109 -155 -4 rrcurveto
          -5 -229 rmoveto
          149 0 118 50 88 100 87 100 64 143 41 185 15 72 8 66 0 59 0 87 -16 75 -33 61 -57 107 -96 53 -135 0 -77 0 -82 -31 -86 -61 -11 -8 -9 -4 -6 0 -1 0 0 0 0 -1 rrcurveto
          0 2 15 73 31 145 33 151 16 80 0 9 0 23 -7 19 -15 17 -19 24 -25 12 -30 0 -28 0 -28 -10 -27 -21 -28 -21 -17 -28 -7 -33 -197 -927 -98 -467 0 -9 0 -22 6 -19 13 -16 rrcurveto
          17 -23 26 -12 33 0 61 0 43 36 25 71 4 13 2 6 1 0 rrcurveto
          -2 vlineto
          68 -83 80 -41 91 0 rrcurveto
          endchar
        </CharString>
        <CharString name="backslash">
          0 917 -224 rmoveto
          59 0 63 52 12 60 rrcurveto
          2 21 -2 22 -376 1625 rlineto
          -10 41 -43 30 -41 0 -15 0 -18 -4 -15 -6 -49 -19 -38 -54 0 -49 0 -8 1 -9 2 -7 rrcurveto
          375 -1622 rlineto
          8 -42 44 -31 41 0 rrcurveto
          endchar
        </CharString>
        <CharString name="bar">
          0 551 -254 rmoveto
          57 0 64 53 11 56 rrcurveto
          358 1681 2 21 rlineto
          0 51 -44 46 -53 0 -57 0 -63 -52 -12 -57 rrcurveto
          -358 -1681 -2 -20 rlineto
          0 -51 44 -47 53 0 rrcurveto
          endchar
        </CharString>
        <CharString name="bar_bar">
          0 351 -254 rmoveto
          57 0 64 53 11 56 rrcurveto
          358 1681 2 21 rlineto
          0 51 -44 46 -53 0 -57 0 -63 -52 -12 -57 rrcurveto
          -358 -1681 -2 -20 rlineto
          0 -51 44 -47 53 0 rrcurveto
          -800 hmoveto
          57 0 64 53 11 56 rrcurveto
          358 1681 2 21 rlineto
          0 51 -44 46 -53 0 -57 0 -63 -52 -12 -57 rrcurveto
          -358 -1681 -2 -20 rlineto
          0 -51 44 -47 53 0 rrcurveto
          endchar
        </CharString>
        <CharString name="boxdrawingsdoubledownandhorizontal">
          0 1210 940 rmoveto
          -1220 -160 1220 hlineto
          -160 vmoveto
          -530 -1620 160 1460 370 hlineto
          -690 160 rmoveto
          -530 -160 370 -1460 160 hlineto
          endchar
        </CharString>
        <CharString name="boxdrawingsdoubledownandleft">
          0 840 940 rmoveto
          -850 -160 690 -1780 160 hlineto
          -320 1620 rmoveto
          -530 -160 370 -1460 160 hlineto
          endchar
        </CharString>
        <CharString name="boxdrawingsdoubledownandright">
          0 1210 940 rmoveto
          -850 -1940 160 1780 690 hlineto
          -160 vmoveto
          -530 -1620 160 1460 370 hlineto
          endchar
        </CharString>
        <CharString name="boxdrawingsdoublehorizontal">
          0 1210 940 rmoveto
          -1220 -160 1220 hlineto
          -160 vmoveto
          -1220 -160 1220 hlineto
          endchar
        </CharString>
        <CharString name="boxdrawingsdoubleupandhorizontal">
          0 840 2000 rmoveto
          -160 -1220 530 160 -370 hlineto
          -320 1060 rmoveto
          -160 -1060 -370 -160 530 hlineto
          690 -160 rmoveto
          -1220 -160 1220 hlineto
          endchar
        </CharString>
        <CharString name="boxdrawingsdoubleupandleft">
          0 840 2000 rmoveto
          -160 -1380 -690 -160 850 hlineto
          -320 1540 rmoveto
          -160 -1060 -370 -160 530 hlineto
          endchar
        </CharString>
        <CharString name="boxdrawingsdoubleupandright">
          0 520 2000 rmoveto
          -160 -1540 850 160 -690 hlineto
          320 1380 rmoveto
          -160 -1220 530 160 -370 hlineto
          endchar
        </CharString>
        <CharString name="boxdrawingsdoublevertical">
          0 840 2000 rmoveto
          -160 -3000 160 hlineto
          -320 3000 rmoveto
          -160 -3000 160 hlineto
          endchar
        </CharString>
        <CharString name="boxdrawingsdoubleverticalandhorizontal">
          0 520 2000 rmoveto
          -160 -1060 -370 -160 530 hlineto
          320 1220 rmoveto
          -160 -1220 530 160 -370 hlineto
          370 -320 rmoveto
          -530 -1620 160 1460 370 hlineto
          -690 160 rmoveto
          -530 -160 370 -1460 160 hlineto
          endchar
        </CharString>
        <CharString name="boxdrawingsdoubleverticalandleft">
          0 840 2000 rmoveto
          -160 -3000 160 hlineto
          -320 3000 rmoveto
          -160 -1060 -370 -160 530 hlineto
          -160 vmoveto
          -530 -160 370 -1460 160 hlineto
          endchar
        </CharString>
        <CharString name="boxdrawingsdoubleverticalandright">
          0 520 2000 rmoveto
          -160 -3000 160 hlineto
          320 3000 rmoveto
          -160 -1220 530 160 -370 hlineto
          370 -320 rmoveto
          -530 -1620 160 1460 370 hlineto
          endchar
        </CharString>
        <CharString name="boxdrawingsdowndoubleandhorizontalsingle">
          0 1210 780 rmoveto
          -1220 -160 370 -1620 160 1620 160 -1620 160 1620 370 hlineto
          endchar
        </CharString>
        <CharString name="boxdrawingsdowndoubleandleftsingle">
          0 840 780 rmoveto
          -850 -160 370 -1620 160 1620 160 -1620 160 hlineto
          endchar
        </CharString>
        <CharString name="boxdrawingsdowndoubleandrightsingle">
          0 1210 780 rmoveto
          -850 -1780 160 1620 160 -1620 160 1620 370 hlineto
          endchar
        </CharString>
        <CharString name="boxdrawingsdownheavyandhorizontallight">
          0 1210 780 rmoveto
          -1220 -160 370 -1620 480 1620 370 hlineto
          endchar
        </CharString>
        <CharString name="boxdrawingsdownheavyandleftlight">
          0 840 780 rmoveto
          -850 -160 370 -1620 480 hlineto
          endchar
        </CharString>
        <CharString name="boxdrawingsdownheavyandleftuplight">
          0 680 2000 rmoveto
          -160 -1220 -530 -160 370 -1620 480 1780 -160 hlineto
          endchar
        </CharString>
        <CharString name="boxdrawingsdownheavyandrightlight">
          0 1210 780 rmoveto
          -850 -1780 480 1620 370 hlineto
          endchar
        </CharString>
        <CharString name="boxdrawingsdownheavyandrightuplight">
          0 680 2000 rmoveto
          -160 -1220 -160 -1780 480 1620 370 160 -530 hlineto
          endchar
        </CharString>
        <CharString name="boxdrawingsdownheavyanduphorizontallight">
          0 680 2000 rmoveto
          -160 -1220 -530 -160 370 -1620 480 1620 370 160 -530 hlineto
          endchar
        </CharString>
        <CharString name="boxdrawingsdownlightandhorizontalheavy">
          0 1210 940 rmoveto
          -1220 -480 530 -1460 160 1460 530 hlineto
          endchar
        </CharString>
        <CharString name="boxdrawingsdownlightandleftheavy">
          0 680 940 rmoveto
          -690 -480 530 -1460 160 hlineto
          endchar
        </CharString>
        <CharString name="boxdrawingsdownlightandleftupheavy">
          0 840 2000 rmoveto
          -480 -1060 -370 -480 530 -1460 160 1460 160 hlineto
          endchar
        </CharString>
        <CharString name="boxdrawingsdownlightandrightheavy">
          0 1210 940 rmoveto
          -690 -1940 160 1460 530 hlineto
          endchar
        </CharString>
        <CharString name="boxdrawingsdownlightandrightupheavy">
          0 840 2000 rmoveto
          -480 -1540 160 -1460 160 1460 530 480 -370 hlineto
          endchar
        </CharString>
        <CharString name="boxdrawingsdownlightanduphorizontalheavy">
          0 840 2000 rmoveto
          -480 -1060 -370 -480 530 -1460 160 1460 530 480 -370 hlineto
          endchar
        </CharString>
        <CharString name="boxdrawingsdownsingleandhorizontaldouble">
          0 1210 940 rmoveto
          -1220 -160 1220 hlineto
          -160 vmoveto
          -1220 -160 530 -1460 160 1460 530 hlineto
          endchar
        </CharString>
        <CharString name="boxdrawingsdownsingleandleftdouble">
          0 680 940 rmoveto
          -690 -160 530 -160 -530 -160 530 -1460 160 hlineto
          endchar
        </CharString>
        <CharString name="boxdrawingsdownsingleandrightdouble">
          0 1210 940 rmoveto
          -690 -1940 160 1460 530 160 -530 160 530 hlineto
          endchar
        </CharString>
        <CharString name="boxdrawingsheavydoubledashhorizontal">
          0 1120 940 rmoveto
          -440 -480 440 hlineto
          -600 480 rmoveto
          -440 -480 440 hlineto
          endchar
        </CharString>
        <CharString name="boxdrawingsheavydoubledashvertical">
          0 840 2040 rmoveto
          -480 -960 480 hlineto
          -480 vmoveto
          -480 -960 480 hlineto
          endchar
        </CharString>
        <CharString name="boxdrawingsheavydown">
          0 840 780 rmoveto
          -480 -1780 480 hlineto
          endchar
        </CharString>
        <CharString name="boxdrawingsheavydownandhorizontal">
          0 1210 940 rmoveto
          -1220 -480 370 -1460 480 1460 370 hlineto
          endchar
        </CharString>
        <CharString name="boxdrawingsheavydownandleft">
          0 840 940 rmoveto
          -850 -480 370 -1460 480 hlineto
          endchar
        </CharString>
        <CharString name="boxdrawingsheavydownandright">
          0 1210 940 rmoveto
          -850 -1940 480 1460 370 hlineto
          endchar
        </CharString>
        <CharString name="boxdrawingsheavyhorizontal">
          0 1210 940 rmoveto
          -1220 -480 1220 hlineto
          endchar
        </CharString>
        <CharString name="boxdrawingsheavyleft">
          0 680 940 rmoveto
          -690 -480 690 hlineto
          endchar
        </CharString>
        <CharString name="boxdrawingsheavyleftandlightright">
          0 680 940 rmoveto
          -690 -480 690 160 530 160 -530 hlineto
          endchar
        </CharString>
        <CharString name="boxdrawingsheavyquadrupledashhorizontal">
          0 375 940 rmoveto
          -480 150 480 vlineto
          150 hmoveto
          -480 150 480 vlineto
          -750 hmoveto
          -480 150 480 vlineto
          750 hmoveto
          -480 150 480 vlineto
          endchar
        </CharString>
        <CharString name="boxdrawingsheavyquadrupledashvertical">
          0 360 2120 rmoveto
          -540 480 540 vlineto
          -480 -700 rmoveto
          -540 480 540 vlineto
          -480 -700 rmoveto
          -540 480 540 vlineto
          -480 -700 rmoveto
          -540 480 540 vlineto
          endchar
        </CharString>
        <CharString name="boxdrawingsheavyright">
          0 1210 940 rmoveto
          -690 -480 690 hlineto
          endchar
        </CharString>
        <CharString name="boxdrawingsheavytripledashhorizontal">
          0 320 940 rmoveto
          -240 -480 240 hlineto
          400 480 rmoveto
          -240 -480 240 hlineto
          400 480 rmoveto
          -240 -480 240 hlineto
          endchar
        </CharString>
        <CharString name="boxdrawingsheavytripledashvertical">
          0 360 2200 rmoveto
          -800 480 800 vlineto
          -480 -960 rmoveto
          -800 480 800 vlineto
          -480 -960 rmoveto
          -800 480 800 vlineto
          endchar
        </CharString>
        <CharString name="boxdrawingsheavyup">
          0 840 2000 rmoveto
          -480 -1380 480 hlineto
          endchar
        </CharString>
        <CharString name="boxdrawingsheavyupandhorizontal">
          0 840 2000 rmoveto
          -480 -1060 -370 -480 1220 480 -370 hlineto
          endchar
        </CharString>
        <CharString name="boxdrawingsheavyupandleft">
          0 840 2000 rmoveto
          -480 -1060 -370 -480 850 hlineto
          endchar
        </CharString>
        <CharString name="boxdrawingsheavyupandlightdown">
          0 840 2000 rmoveto
          -480 -1380 160 -1620 160 1620 160 hlineto
          endchar
        </CharString>
        <CharString name="boxdrawingsheavyupandright">
          0 840 2000 rmoveto
          -480 -1540 850 480 -370 hlineto
          endchar
        </CharString>
        <CharString name="boxdrawingsheavyvertical">
          0 840 2000 rmoveto
          -480 -3000 480 hlineto
          endchar
        </CharString>
        <CharString name="boxdrawingsheavyverticalandhorizontal">
          0 840 2000 rmoveto
          -480 -1060 -370 -480 370 -1460 480 1460 370 480 -370 hlineto
          endchar
        </CharString>
        <CharString name="boxdrawingsheavyverticalandleft">
          0 840 2000 rmoveto
          -480 -1060 -370 -480 370 -1460 480 hlineto
          endchar
        </CharString>
        <CharString name="boxdrawingsheavyverticalandright">
          0 840 2000 rmoveto
          -480 -3000 480 1460 370 480 -370 hlineto
          endchar
        </CharString>
        <CharString name="boxdrawingsleftdownheavyandrightuplight">
          0 680 2000 rmoveto
          -160 -1060 -530 -480 370 -1460 480 1620 370 160 -370 160 -160 hlineto
          endchar
        </CharString>
        <CharString name="boxdrawingsleftheavyandrightdownlight">
          0 680 940 rmoveto
          -690 -480 530 -1460 160 1620 530 160 -530 hlineto
          endchar
        </CharString>
        <CharString name="boxdrawingsleftheavyandrightuplight">
          0 680 2000 rmoveto
          -160 -1060 -530 -480 690 160 530 160 -530 hlineto
          endchar
        </CharString>
        <CharString name="boxdrawingsleftheavyandrightverticallight">
          0 680 2000 rmoveto
          -160 -1060 -530 -480 530 -1460 160 1620 530 160 -530 hlineto
          endchar
        </CharString>
        <CharString name="boxdrawingsleftlightandrightdownheavy">
          0 1210 940 rmoveto
          -850 -160 -370 -160 370 -1620 480 1460 370 hlineto
          endchar
        </CharString>
        <CharString name="boxdrawingsleftlightandrightupheavy">
          0 840 2000 rmoveto
          -480 -1220 -370 -160 370 -160 850 480 -370 hlineto
          endchar
        </CharString>
        <CharString name="boxdrawingsleftlightandrightverticalheavy">
          0 840 2000 rmoveto
          -480 -1220 -370 -160 370 -1620 480 1460 370 480 -370 hlineto
          endchar
        </CharString>
        <CharString name="boxdrawingsleftupheavyandrightdownlight">
          0 840 2000 rmoveto
          -480 -1060 -370 -480 530 -1460 160 1460 160 160 370 160 -370 hlineto
          endchar
        </CharString>
        <CharString name="boxdrawingslightarcdownandleft">
          0 140 780 rmoveto
          -150 -160 150 hlineto
          69 0 64 -17 58 -34 57 -35 46 -46 35 -57 34 -58 17 -64 0 -69 rrcurveto
          -1240 160 1240 vlineto
          0 75 -14 70 -28 65 -28 65 -39 57 -49 50 -50 49 -57 39 -65 28 -65 28 -70 14 -75 0 rrcurveto
          endchar
        </CharString>
        <CharString name="boxdrawingslightarcdownandright">
          0 1210 780 rmoveto
          -150 hlineto
          -75 0 -69 -14 -65 -28 -65 -28 -58 -39 -49 -49 -50 -50 -39 -57 -28 -65 -28 -65 -14 -70 0 -75 rrcurveto
          -1240 160 1240 vlineto
          0 69 17 64 35 58 34 57 46 46 58 35 57 34 64 17 69 0 rrcurveto
          150 hlineto
          endchar
        </CharString>
        <CharString name="boxdrawingslightarcupandleft">
          0 -10 620 rmoveto
          150 hlineto
          75 0 70 14 65 28 65 28 57 39 50 50 49 49 39 58 28 65 28 65 14 69 0 75 rrcurveto
          1240 -160 -1240 vlineto
          0 -69 -17 -64 -34 -57 -35 -58 -46 -46 -57 -34 -58 -35 -64 -17 -69 0 rrcurveto
          -150 hlineto
          endchar
        </CharString>
        <CharString name="boxdrawingslightarcupandright">
          0 1060 620 rmoveto
          150 160 -150 hlineto
          -69 0 -64 17 -57 35 -58 34 -46 46 -34 58 -35 57 -17 64 0 69 rrcurveto
          1240 -160 -1240 vlineto
          0 -75 14 -69 28 -65 28 -65 39 -58 50 -49 49 -50 58 -39 65 -28 65 -28 69 -14 75 0 rrcurveto
          endchar
        </CharString>
        <CharString name="boxdrawingslightdiagonalcross">
          0 74 1837 rmoveto
          1201 -2400 -145 -72 -1200 2401 rlineto
          1196 71 rmoveto
          -1201 -2400 145 -72 1200 2401 rlineto
          endchar
        </CharString>
        <CharString name="boxdrawingslightdiagonalupperlefttolowerright">
          0 74 1837 rmoveto
          1201 -2400 -145 -72 -1200 2401 rlineto
          endchar
        </CharString>
        <CharString name="boxdrawingslightdiagonalupperrighttolowerleft">
          0 1126 1837 rmoveto
          -1201 -2400 145 -72 1200 2401 rlineto
          endchar
        </CharString>
        <CharString name="boxdrawingslightdoubledashhorizontal">
          0 1120 780 rmoveto
          -440 -160 440 hlineto
          -600 160 rmoveto
          -440 -160 440 hlineto
          endchar
        </CharString>
        <CharString name="boxdrawingslightdoubledashvertical">
          0 680 2200 rmoveto
          -160 -1280 160 hlineto
          -160 vmoveto
          -160 -1280 160 hlineto
          endchar
        </CharString>
        <CharString name="boxdrawingslightdown">
          0 680 780 rmoveto
          -160 -1780 160 hlineto
          endchar
        </CharString>
        <CharString name="boxdrawingslightdownandhorizontal">
          0 1210 780 rmoveto
          -1220 -160 530 -1620 160 1620 530 hlineto
          endchar
        </CharString>
        <CharString name="boxdrawingslightdownandleft">
          0 680 780 rmoveto
          -690 -160 530 -1620 160 hlineto
          endchar
        </CharString>
        <CharString name="boxdrawingslightdownandright">
          0 1210 780 rmoveto
          -690 -1780 160 1620 530 hlineto
          endchar
        </CharString>
        <CharString name="boxdrawingslighthorizontal">
          0 1210 780 rmoveto
          -1220 -160 1220 hlineto
          endchar
        </CharString>
        <CharString name="boxdrawingslightleft">
          0 680 780 rmoveto
          -690 -160 690 hlineto
          endchar
        </CharString>
        <CharString name="boxdrawingslightleftandheavyright">
          0 1210 940 rmoveto
          -690 -160 -530 -160 530 -160 690 hlineto
          endchar
        </CharString>
        <CharString name="boxdrawingslightquadrupledashhorizontal">
          0 375 780 rmoveto
          -160 150 160 vlineto
          150 hmoveto
          -160 150 160 vlineto
          -750 hmoveto
          -160 150 160 vlineto
          750 hmoveto
          -160 150 160 vlineto
          endchar
        </CharString>
        <CharString name="boxdrawingslightquadrupledashvertical">
          0 520 2120 rmoveto
          -540 160 540 vlineto
          -160 -700 rmoveto
          -540 160 540 vlineto
          -160 -700 rmoveto
          -540 160 540 vlineto
          -160 -700 rmoveto
          -540 160 540 vlineto
          endchar
        </CharString>
        <CharString name="boxdrawingslightright">
          0 1210 780 rmoveto
          -690 -160 690 hlineto
          endchar
        </CharString>
        <CharString name="boxdrawingslighttripledashhorizontal">
          0 320 780 rmoveto
          -240 -160 240 hlineto
          400 160 rmoveto
          -240 -160 240 hlineto
          400 160 rmoveto
          -240 -160 240 hlineto
          endchar
        </CharString>
        <CharString name="boxdrawingslighttripledashvertical">
          0 520 2200 rmoveto
          -800 160 800 vlineto
          -160 -960 rmoveto
          -800 160 800 vlineto
          -160 -960 rmoveto
          -800 160 800 vlineto
          endchar
        </CharString>
        <CharString name="boxdrawingslightup">
          0 680 2000 rmoveto
          -160 -1380 160 hlineto
          endchar
        </CharString>
        <CharString name="boxdrawingslightupandheavydown">
          0 680 2000 rmoveto
          -160 -1220 -160 -1780 480 1780 -160 hlineto
          endchar
        </CharString>
        <CharString name="boxdrawingslightupandhorizontal">
          0 680 2000 rmoveto
          -160 -1220 -530 -160 1220 160 -530 hlineto
          endchar
        </CharString>
        <CharString name="boxdrawingslightupandleft">
          0 680 2000 rmoveto
          -160 -1220 -530 -160 690 hlineto
          endchar
        </CharString>
        <CharString name="boxdrawingslightupandright">
          0 680 2000 rmoveto
          -160 -1380 690 160 -530 hlineto
          endchar
        </CharString>
        <CharString name="boxdrawingslightvertical">
          0 680 2000 rmoveto
          -160 -3000 160 hlineto
          endchar
        </CharString>
        <CharString name="boxdrawingslightverticalandhorizontal">
          0 680 2000 rmoveto
          -160 -1220 -530 -160 530 -1620 160 1620 530 160 -530 hlineto
          endchar
        </CharString>
        <CharString name="boxdrawingslightverticalandleft">
          0 680 2000 rmoveto
          -160 -1220 -530 -160 530 -1620 160 hlineto
          endchar
        </CharString>
        <CharString name="boxdrawingslightverticalandright">
          0 680 2000 rmoveto
          -160 -3000 160 1620 530 160 -530 hlineto
          endchar
        </CharString>
        <CharString name="boxdrawingsrightdownheavyandleftuplight">
          0 680 2000 rmoveto
          -160 -1060 -160 -160 -370 -160 370 -1620 480 1460 370 480 -530 hlineto
          endchar
        </CharString>
        <CharString name="boxdrawingsrightheavyandleftdownlight">
          0 1210 940 rmoveto
          -690 -160 -530 -160 530 -1620 160 1460 530 hlineto
          endchar
        </CharString>
        <CharString name="boxdrawingsrightheavyandleftuplight">
          0 680 2000 rmoveto
          -160 -1220 -530 -160 530 -160 690 480 -530 hlineto
          endchar
        </CharString>
        <CharString name="boxdrawingsrightheavyandleftverticallight">
          0 680 2000 rmoveto
          -160 -1220 -530 -160 530 -1620 160 1460 530 480 -530 hlineto
          endchar
        </CharString>
        <CharString name="boxdrawingsrightlightandleftdownheavy">
          0 840 940 rmoveto
          -850 -480 370 -1460 480 1620 370 160 -370 hlineto
          endchar
        </CharString>
        <CharString name="boxdrawingsrightlightandleftupheavy">
          0 840 2000 rmoveto
          -480 -1060 -370 -480 850 160 370 160 -370 hlineto
          endchar
        </CharString>
        <CharString name="boxdrawingsrightlightandleftverticalheavy">
          0 840 2000 rmoveto
          -480 -1060 -370 -480 370 -1460 480 1620 370 160 -370 hlineto
          endchar
        </CharString>
        <CharString name="boxdrawingsrightupheavyandleftdownlight">
          0 840 2000 rmoveto
          -480 -1220 -370 -160 370 -160 160 -1460 160 1460 530 480 -370 hlineto
          endchar
        </CharString>
        <CharString name="boxdrawingsupdoubleandhorizontalsingle">
          0 840 2000 rmoveto
          -160 -1220 -160 1220 -160 -1220 -370 -160 1220 160 -370 hlineto
          endchar
        </CharString>
        <CharString name="boxdrawingsupdoubleandleftsingle">
          0 840 2000 rmoveto
          -160 -1220 -160 1220 -160 -1220 -370 -160 850 hlineto
          endchar
        </CharString>
        <CharString name="boxdrawingsupdoubleandrightsingle">
          0 840 2000 rmoveto
          -160 -1220 -160 1220 -160 -1380 850 160 -370 hlineto
          endchar
        </CharString>
        <CharString name="boxdrawingsupheavyanddownhorizontallight">
          0 840 2000 rmoveto
          -480 -1220 -370 -160 530 -1620 160 1620 530 160 -370 hlineto
          endchar
        </CharString>
        <CharString name="boxdrawingsupheavyandhorizontallight">
          0 840 2000 rmoveto
          -480 -1220 -370 -160 1220 160 -370 hlineto
          endchar
        </CharString>
        <CharString name="boxdrawingsupheavyandleftdownlight">
          0 840 2000 rmoveto
          -480 -1220 -370 -160 530 -1620 160 1620 160 hlineto
          endchar
        </CharString>
        <CharString name="boxdrawingsupheavyandleftlight">
          0 840 2000 rmoveto
          -480 -1220 -370 -160 850 hlineto
          endchar
        </CharString>
        <CharString name="boxdrawingsupheavyandrightdownlight">
          0 840 2000 rmoveto
          -480 -1380 160 -1620 160 1620 530 160 -370 hlineto
          endchar
        </CharString>
        <CharString name="boxdrawingsupheavyandrightlight">
          0 840 2000 rmoveto
          -480 -1380 850 160 -370 hlineto
          endchar
        </CharString>
        <CharString name="boxdrawingsuplightanddownhorizontalheavy">
          0 680 2000 rmoveto
          -160 -1060 -530 -480 370 -1460 480 1460 370 480 -530 hlineto
          endchar
        </CharString>
        <CharString name="boxdrawingsuplightandhorizontalheavy">
          0 680 2000 rmoveto
          -160 -1060 -530 -480 1220 480 -530 hlineto
          endchar
        </CharString>
        <CharString name="boxdrawingsuplightandleftdownheavy">
          0 680 2000 rmoveto
          -160 -1060 -530 -480 370 -1460 480 1940 -160 hlineto
          endchar
        </CharString>
        <CharString name="boxdrawingsuplightandleftheavy">
          0 680 2000 rmoveto
          -160 -1060 -530 -480 690 hlineto
          endchar
        </CharString>
        <CharString name="boxdrawingsuplightandrightdownheavy">
          0 680 2000 rmoveto
          -160 -1060 -160 -1940 480 1460 370 480 -530 hlineto
          endchar
        </CharString>
        <CharString name="boxdrawingsuplightandrightheavy">
          0 680 2000 rmoveto
          -160 -1540 690 480 -530 hlineto
          endchar
        </CharString>
        <CharString name="boxdrawingsupsingleandhorizontaldouble">
          0 680 2000 rmoveto
          -160 -1060 -530 -160 1220 160 -530 hlineto
          530 -320 rmoveto
          -1220 -160 1220 hlineto
          endchar
        </CharString>
        <CharString name="boxdrawingsupsingleandleftdouble">
          0 680 2000 rmoveto
          -160 -1060 -530 -160 530 -160 -530 -160 690 hlineto
          endchar
        </CharString>
        <CharString name="boxdrawingsupsingleandrightdouble">
          0 680 2000 rmoveto
          -160 -1540 690 160 -530 160 530 160 -530 hlineto
          endchar
        </CharString>
        <CharString name="boxdrawingsverticaldoubleandhorizontalsingle">
          0 840 2000 rmoveto
          -160 -1220 -160 1220 -160 -1220 -370 -160 370 -1620 160 1620 160 -1620 160 1620 370 160 -370 hlineto
          endchar
        </CharString>
        <CharString name="boxdrawingsverticaldoubleandleftsingle">
          0 520 2000 rmoveto
          -160 -1220 -370 -160 370 -1620 160 hlineto
          320 3000 rmoveto
          -160 -3000 160 hlineto
          endchar
        </CharString>
        <CharString name="boxdrawingsverticaldoubleandrightsingle">
          0 840 2000 rmoveto
          -160 -3000 160 1620 370 160 -370 hlineto
          -320 1220 rmoveto
          -160 -3000 160 hlineto
          endchar
        </CharString>
        <CharString name="boxdrawingsverticalheavyandhorizontallight">
          0 840 2000 rmoveto
          -480 -1220 -370 -160 370 -1620 480 1620 370 160 -370 hlineto
          endchar
        </CharString>
        <CharString name="boxdrawingsverticalheavyandleftlight">
          0 840 2000 rmoveto
          -480 -1220 -370 -160 370 -1620 480 hlineto
          endchar
        </CharString>
        <CharString name="boxdrawingsverticalheavyandrightlight">
          0 840 2000 rmoveto
          -480 -3000 480 1620 370 160 -370 hlineto
          endchar
        </CharString>
        <CharString name="boxdrawingsverticallightandhorizontalheavy">
          0 680 2000 rmoveto
          -160 -1060 -530 -480 530 -1460 160 1460 530 480 -530 hlineto
          endchar
        </CharString>
        <CharString name="boxdrawingsverticallightandleftheavy">
          0 680 2000 rmoveto
          -160 -1060 -530 -480 530 -1460 160 hlineto
          endchar
        </CharString>
        <CharString name="boxdrawingsverticallightandrightheavy">
          0 680 2000 rmoveto
          -160 -3000 160 1460 530 480 -530 hlineto
          endchar
        </CharString>
        <CharString name="boxdrawingsverticalsingleandhorizontaldouble">
          0 680 2000 rmoveto
          -160 -1060 -530 -160 530 -160 -530 -160 530 -1460 160 1460 530 160 -530 160 530 160 -530 hlineto
          endchar
        </CharString>
        <CharString name="boxdrawingsverticalsingleandleftdouble">
          0 680 2000 rmoveto
          -160 -1060 -530 -160 530 -160 -530 -160 530 -1460 160 hlineto
          endchar
        </CharString>
        <CharString name="boxdrawingsverticalsingleandrightdouble">
          0 680 2000 rmoveto
          -160 -3000 160 1460 530 160 -530 160 530 160 -530 hlineto
          endchar
        </CharString>
        <CharString name="braceleft">
          0 872 -287 rmoveto
          27 0 26 9 24 19 24 18 15 27 7 35 2 8 1 9 0 8 0 21 -6 18 -13 16 -18 22 -23 11 -29 0 rrcurveto
          -68 hlineto
          -124 0 -62 38 0 77 0 17 9 39 16 62 rrcurveto
          47 209 rlineto
          12 53 6 48 0 41 0 75 -19 56 -37 39 -1 1 -1 2 0 1 0 6 4 6 8 5 78 57 55 102 32 146 rrcurveto
          41 209 rlineto
          6 40 5 28 4 16 11 54 32 43 54 31 35 21 53 10 72 0 rrcurveto
          69 hlineto
          27 0 26 10 24 19 32 27 17 35 0 43 0 23 -6 19 -13 15 -18 20 -24 10 -29 0 -105 0 -65 -1 -27 -2 -74 -4 -67 -23 -58 -40 -104 -68 -65 -100 -28 -131 -7 -28 -10 -55 -14 -84 rrcurveto
          -14 -83 -10 -51 -4 -20 -14 -68 -26 -49 -39 -31 -26 -21 -29 -11 -33 0 -82 0 -49 -37 -16 -75 -3 -12 -1 -10 0 -11 0 -59 37 -30 74 0 61 0 30 -35 0 -69 0 -20 -2 -22 -5 -24 rrcurveto
          -5 -19 -13 -52 -21 -83 -21 -84 -13 -55 -6 -28 -8 -35 -3 -33 0 -31 0 -86 28 -70 57 -51 43 -42 58 -24 74 -4 26 -2 65 -1 104 0 rrcurveto
          endchar
        </CharString>
        <CharString name="braceright">
          0 307 -287 rmoveto
          43 0 35 1 28 2 27 1 32 7 37 10 36 11 34 16 32 22 104 68 66 100 27 131 7 28 10 55 14 83 14 84 10 51 4 20 15 68 26 49 38 31 26 21 29 11 34 0 rrcurveto
          82 0 49 37 16 75 3 12 1 10 0 11 0 59 -37 30 -74 0 -61 0 -30 34 0 69 0 20 2 22 6 25 3 20 13 51 21 84 21 83 13 55 6 28 8 36 4 33 0 32 rrcurveto
          0 85 -28 69 -57 51 -43 42 -58 24 -74 4 -26 2 -66 1 -105 0 -27 0 -25 -9 -24 -19 -24 -18 -15 -27 -7 -35 -2 -9 -1 -8 0 -8 0 -21 6 -18 12 -16 19 -22 23 -11 29 0 rrcurveto
          69 hlineto
          123 0 62 -39 0 -77 0 -17 -8 -39 -16 -61 rrcurveto
          -47 -209 rlineto
          -12 -54 -6 -47 0 -42 0 -74 18 -56 37 -39 2 -2 1 -1 0 -2 0 -6 -4 -5 -8 -5 -78 -57 -55 -102 -32 -146 rrcurveto
          -41 -209 -14 -84 rlineto
          -24 -106 -86 -53 -148 0 rrcurveto
          -68 hlineto
          -27 0 -26 -10 -24 -19 -32 -27 -17 -35 0 -43 0 -23 6 -19 13 -14 17 -21 24 -10 29 0 rrcurveto
          endchar
        </CharString>
        <CharString name="bracketleft">
          0 782 -294 rmoveto
          59 0 62 51 13 59 rrcurveto
          2 21 rlineto
          0 51 -44 46 -53 0 rrcurveto
          -337 hlineto
          -4 0 -1 -1 0 -1 rrcurveto
          1 -1 rlineto
          2 0 -1 3 1 5 rrcurveto
          321 1514 rlineto
          3 10 3 3 11 0 rrcurveto
          337 hlineto
          58 0 62 52 13 58 rrcurveto
          2 21 rlineto
          0 52 -44 45 -53 0 rrcurveto
          -456 hlineto
          -61 0 -64 -53 -12 -59 rrcurveto
          -372 -1754 rlineto
          -2 -8 -1 -9 0 -7 0 -52 44 -46 55 0 rrcurveto
          endchar
        </CharString>
        <CharString name="bracketright">
          0 759 -294 rmoveto
          59 0 66 53 12 59 rrcurveto
          372 1754 rlineto
          2 8 1 9 0 7 0 52 -45 46 -55 0 rrcurveto
          -456 hlineto
          -57 0 -64 -51 -11 -58 -2 -7 -1 -9 0 -8 0 -50 44 -45 53 0 rrcurveto
          337 hlineto
          3 0 1 1 0 1 rrcurveto
          -1 1 -322 -1521 rlineto
          -4 -13 -1 -1 -12 0 rrcurveto
          -337 hlineto
          -58 0 -63 -52 -11 -57 -2 -8 -1 -9 0 -7 0 -51 44 -44 53 0 rrcurveto
          endchar
        </CharString>
        <CharString name="bracketright_numbersign">
          0 1230 845 rmoveto
          31 0 29 11 28 23 27 23 18 27 6 32 7 31 -6 27 -18 22 -18 23 -25 11 -31 0 rrcurveto
          -485 hlineto
          -48 -230 rlineto
          -356 -900 rmoveto
          31 0 30 11 27 23 28 23 17 27 7 31 rrcurveto
          41 195 rlineto
          -231 hlineto
          -41 -195 rlineto
          -7 -31 6 -27 18 -23 18 -23 25 -11 31 0 rrcurveto
          260 680 rmoveto
          152 716 rlineto
          7 31 -6 27 -18 22 -18 23 -25 11 -32 0 -31 0 -29 -11 -28 -23 -27 -22 -17 -27 -7 -31 rrcurveto
          -152 -716 rlineto
          371 -680 rmoveto
          31 0 29 11 28 23 27 23 17 27 7 31 rrcurveto
          152 715 rlineto
          -230 hlineto
          -152 -715 rlineto
          -7 -31 6 -27 18 -23 18 -23 25 -11 31 0 rrcurveto
          369 1200 rmoveto
          42 196 rlineto
          7 31 -6 27 -18 22 -17 23 -25 11 -32 0 -31 0 -29 -11 -28 -23 -27 -22 -17 -27 -7 -31 rrcurveto
          -42 -196 rlineto
          191 -820 rmoveto
          31 0 29 11 28 23 28 23 17 27 7 31 6 31 -6 27 -18 23 -18 23 -24 11 -31 0 rrcurveto
          -85 hlineto
          -49 -230 rlineto
          -1071 750 rmoveto
          107 502 rlineto
          7 32 -6 28 -18 23 -18 23 -26 12 -33 0 rrcurveto
          -456 hlineto
          -31 0 -30 -11 -27 -23 -27 -22 -17 -27 -7 -32 -7 -32 6 -27 17 -22 18 -23 25 -11 31 0 rrcurveto
          337 hlineto
          6 0 2 -2 -1 -5 rrcurveto
          -322 -1515 rlineto
          -1 -5 -3 -3 -6 0 rrcurveto
          -337 hlineto
          -31 0 -30 -11 -27 -23 -28 -22 -17 -27 -6 -32 -7 -32 6 -27 17 -22 18 -23 25 -11 31 0 rrcurveto
          456 hlineto
          33 0 31 12 28 23 28 23 18 28 6 32 rrcurveto
          107 502 rlineto
          900 hlineto
          49 230 rlineto
          -900 hlineto
          62 290 rlineto
          500 hlineto
          48 230 rlineto
          endchar
        </CharString>
        <CharString name="c">
          0 652 -54 rmoveto
          115 0 119 41 123 83 40 25 20 37 0 48 0 21 -5 18 -10 15 -16 23 -23 11 -29 0 -23 0 -20 -6 -17 -11 -82 -51 -75 -25 -67 0 -149 0 -75 74 0 148 0 34 4 38 9 42 rrcurveto
          25 118 46 88 65 59 65 59 78 29 91 0 51 0 47 -14 45 -28 3 -2 1 -3 0 -5 0 -5 -18 -7 -36 -8 -36 -8 -18 -21 0 -35 0 -48 24 -24 47 0 89 1 74 38 58 73 rrcurveto
          21 28 11 35 0 42 0 48 -18 43 -37 39 -68 67 -90 34 -113 0 -96 0 -92 -22 -90 -44 -90 -45 -77 -63 -66 -82 -66 -82 -48 -109 -29 -136 -13 -58 -6 -53 0 -50 0 -157 57 -114 113 -73 rrcurveto
          73 -47 85 -23 99 0 rrcurveto
          endchar
        </CharString>
        <CharString name="colon">
          0 597 -54 rmoveto
          49 0 46 18 43 36 55 48 28 57 0 68 0 35 -10 31 -20 26 -29 39 -41 20 -51 0 -52 0 -47 -18 -43 -36 -57 -48 -28 -57 0 -66 0 -36 11 -32 21 -28 29 -38 42 -19 54 0 rrcurveto
          166 781 rmoveto
          49 0 46 18 42 36 56 47 28 57 0 69 0 35 -10 31 -20 27 -29 38 -41 19 -51 0 -52 0 -47 -18 -43 -36 -57 -47 -28 -57 0 -67 0 -36 11 -31 21 -28 29 -38 42 -19 54 0 rrcurveto
          endchar
        </CharString>
        <CharString name="colon_center">
          0 623 66 rmoveto
          49 0 46 18 42 36 56 48 28 57 0 66 0 36 -10 31 -21 27 -28 39 -41 20 -51 0 -52 0 -47 -18 -43 -36 -57 -47 -28 -58 0 -67 0 -36 11 -31 21 -28 29 -38 42 -19 54 0 rrcurveto
          125 591 rmoveto
          49 0 46 18 42 36 56 47 28 57 0 69 0 35 -10 31 -20 26 -29 39 -40 19 -52 0 -52 0 -47 -18 -43 -36 -57 -47 -28 -57 0 -67 0 -36 11 -31 21 -28 29 -38 42 -19 54 0 rrcurveto
          endchar
        </CharString>
        <CharString name="colon_center_left">
          0 323 66 rmoveto
          49 0 46 18 42 36 56 48 28 57 0 66 0 36 -10 31 -21 27 -28 39 -41 20 -51 0 -52 0 -47 -18 -43 -36 -57 -47 -28 -58 0 -67 0 -36 11 -31 21 -28 29 -38 42 -19 54 0 rrcurveto
          125 591 rmoveto
          49 0 46 18 42 36 56 47 28 57 0 69 0 35 -10 31 -20 26 -29 39 -40 19 -52 0 -52 0 -47 -18 -43 -36 -57 -47 -28 -57 0 -67 0 -36 11 -31 21 -28 29 -38 42 -19 54 0 rrcurveto
          endchar
        </CharString>
        <CharString name="colon_center_right">
          0 923 66 rmoveto
          49 0 46 18 42 36 56 48 28 57 0 66 0 36 -10 31 -21 27 -28 39 -41 20 -51 0 -52 0 -47 -18 -43 -36 -57 -47 -28 -58 0 -67 0 -36 11 -31 21 -28 29 -38 42 -19 54 0 rrcurveto
          125 591 rmoveto
          49 0 46 18 42 36 56 47 28 57 0 69 0 35 -10 31 -20 26 -29 39 -40 19 -52 0 -52 0 -47 -18 -43 -36 -57 -47 -28 -57 0 -67 0 -36 11 -31 21 -28 29 -38 42 -19 54 0 rrcurveto
          endchar
        </CharString>
        <CharString name="comma">
          0 284 -437 rmoveto
          157 16 131 61 105 105 105 106 52 122 0 139 0 63 -15 51 -31 39 -31 39 -41 20 -51 0 -67 0 -53 -24 -40 -49 -35 -39 -18 -43 0 -50 0 -39 12 -34 23 -29 23 -29 12 -27 0 -25 rrcurveto
          0 -36 -23 -34 -44 -30 -39 -27 -48 -17 -59 -7 -68 -8 -42 -39 -16 -70 rrcurveto
          -1 -15 rlineto
          0 -60 34 -30 68 0 rrcurveto
          endchar
        </CharString>
        <CharString name="d">
          0 628 175 rmoveto
          -125 0 -62 66 0 131 0 36 4 41 9 45 25 124 39 90 53 54 53 55 66 27 79 0 59 0 44 -21 32 -42 26 -38 13 -39 0 -40 0 -14 -1 -13 -3 -14 -15 -71 -16 -71 -15 -72 rrcurveto
          -15 -72 -36 -57 -56 -42 -57 -42 -52 -21 -49 0 rrcurveto
          398 -229 rmoveto
          76 0 59 23 42 46 13 15 7 17 0 19 0 16 -6 16 -11 15 -11 15 -17 8 -21 0 -15 0 -13 -2 -9 -4 -11 -5 -8 -3 -5 0 -13 0 -6 7 0 15 0 7 1 7 2 9 rrcurveto
          175 854 88 430 0 7 0 23 -8 21 -15 17 -20 23 -25 12 -30 0 -28 0 -28 -11 -26 -21 -26 -21 -17 -27 -7 -33 rrcurveto
          -90 -424 rlineto
          -3 -11 -5 -6 -8 0 -5 0 -5 3 -6 6 -62 63 -70 32 -79 0 -132 0 -115 -51 -98 -102 -97 -102 -68 -139 -37 -176 -18 -86 -9 -76 0 -67 0 -79 12 -67 25 -55 48 -105 99 -53 152 0 rrcurveto
          96 0 116 46 137 93 6 5 5 2 2 0 -5 0 -3 -2 0 -4 2 -93 44 -47 84 0 rrcurveto
          endchar
        </CharString>
        <CharString name="dagger">
          0 958 1146 rmoveto
          29 134 14 71 0 8 0 23 -7 20 -14 17 -19 23 -25 12 -32 0 -30 0 -28 -11 -26 -21 -26 -21 -16 -26 -6 -30 rrcurveto
          -43 -199 rlineto
          -135 -1200 rmoveto
          30 0 28 11 26 21 26 22 16 25 6 30 rrcurveto
          153 719 rlineto
          -229 hlineto
          -102 -481 -51 -245 0 -7 0 -22 7 -19 13 -18 20 -24 25 -12 32 0 rrcurveto
          531 900 rmoveto
          30 0 29 11 25 21 34 28 17 34 0 40 0 22 -7 19 -13 18 -19 23 -26 12 -32 0 rrcurveto
          -680 hlineto
          -30 0 -29 -11 -25 -21 -34 -28 -17 -34 0 -40 0 -22 7 -19 13 -17 19 -24 26 -12 32 0 rrcurveto
          endchar
        </CharString>
        <CharString name="dollar">
          0 897 858 rmoveto
          97 460 49 234 0 8 0 22 -7 19 -13 18 -19 23 -26 12 -32 0 -30 0 -28 -11 -26 -21 -26 -21 -16 -26 -6 -30 rrcurveto
          -122 -575 rlineto
          40 -44 68 -37 97 -31 rrcurveto
          -346 -1112 rmoveto
          30 0 28 11 26 21 26 21 16 26 6 30 rrcurveto
          125 584 rlineto
          -35 35 -69 36 -103 36 -98 -463 -49 -235 0 -8 0 -22 7 -19 13 -17 19 -24 26 -12 32 0 rrcurveto
          613 1285 rmoveto
          64 0 40 36 16 71 1 10 1 9 0 9 0 85 -34 70 -68 55 -20 16 -34 19 -50 22 rrcurveto
          -52 -247 rlineto
          26 -23 14 -20 2 -18 9 -63 31 -31 54 0 rrcurveto
          -743 -1050 rmoveto
          55 262 rlineto
          -26 26 -20 26 -15 26 -24 40 -30 20 -37 0 -32 0 -28 -11 -24 -23 -23 -23 -15 -28 -7 -33 -2 -8 -1 -7 0 -7 0 -8 1 -7 2 -6 21 -92 75 -80 130 -67 rrcurveto
          347 -17 rmoveto
          105 45 83 53 61 62 61 61 39 76 19 89 7 29 3 29 0 27 0 112 -53 93 -105 74 -47 30 -66 31 -84 32 -122 50 -61 65 0 80 0 50 20 48 40 46 rrcurveto
          60 283 rlineto
          -189 -95 -113 -134 -37 -174 -6 -28 -3 -27 0 -26 0 -159 108 -121 215 -81 37 -15 36 -17 38 -21 69 -36 35 -44 0 -50 0 -8 -1 -9 -1 -9 -12 -54 -30 -46 -49 -40 rrcurveto
          endchar
        </CharString>
        <CharString name="e">
          0 626 -54 rmoveto
          107 0 86 14 65 27 65 27 62 45 61 62 14 12 11 12 8 11 9 11 4 18 0 23 0 28 -10 23 -20 20 -21 20 -24 9 -27 0 -29 0 -24 -10 -19 -20 -83 -81 -85 -41 -87 0 rrcurveto
          -74 0 -59 14 -46 29 -46 28 -23 45 0 61 0 48 7 24 14 0 186 2 135 9 83 14 128 23 91 43 53 63 53 63 27 92 0 120 0 74 -32 62 -64 50 -64 49 -76 25 -89 0 rrcurveto
          -273 0 -199 -124 -123 -249 -24 -58 -19 -62 -13 -67 -13 -67 -7 -60 0 -51 3 -273 134 -137 267 0 rrcurveto
          -86 665 rmoveto
          -22 3 -11 2 -1 1 rrcurveto
          -1 1 rlineto
          0 9 3 10 6 10 30 58 50 51 73 46 72 46 67 23 62 0 50 0 35 -7 21 -14 21 -14 11 -14 0 -13 0 -81 -36 -53 -70 -25 -71 -25 -120 -13 -169 -1 rrcurveto
          endchar
        </CharString>
        <CharString name="eight">
          -10 618 170 rmoveto
          -131 0 -65 44 0 88 0 141 90 110 180 77 152 -36 76 -62 0 -88 0 -20 -3 -21 -4 -22 -30 -141 -98 -70 -167 0 rrcurveto
          -37 -224 rmoveto
          137 0 118 35 100 71 100 70 65 99 30 128 9 35 5 37 0 37 0 125 -60 103 -120 79 3 -2 2 -3 0 -4 45 31 58 46 69 62 76 70 38 53 1 35 0 30 -21 15 -41 0 rrcurveto
          -24 0 -129 -73 -234 -147 -7 -4 -8 -2 -11 0 -15 0 -17 3 -18 6 -81 25 -40 42 0 58 0 15 2 15 5 15 37 117 94 64 152 9 15 0 8 -7 0 -13 0 -17 -8 -22 -16 -26 rrcurveto
          -5 -7 -2 -9 0 -11 0 -34 25 -17 51 0 45 0 38 17 33 34 33 34 16 40 0 47 0 67 -17 46 -35 27 -54 43 -61 21 -68 0 -120 0 -107 -36 -94 -72 -94 -73 -61 -91 -27 -110 rrcurveto
          -7 -28 -3 -28 0 -28 0 -101 46 -84 92 -65 -3 2 -1 2 0 3 0 2 0 1 -1 0 -165 -85 -106 -130 -47 -173 -7 -33 -3 -35 0 -35 0 -93 33 -75 66 -57 66 -57 97 -29 128 0 rrcurveto
          endchar
        </CharString>
        <CharString name="equal">
          0 995 236 rmoveto
          59 0 62 51 13 59 rrcurveto
          2 21 rlineto
          0 51 -44 46 -53 0 rrcurveto
          -681 hlineto
          -58 0 -62 -52 -13 -58 rrcurveto
          -2 -21 rlineto
          0 -52 44 -45 53 0 rrcurveto
          765 400 rmoveto
          59 0 62 51 13 59 rrcurveto
          2 21 rlineto
          0 51 -44 46 -53 0 rrcurveto
          -681 hlineto
          -58 0 -62 -52 -13 -58 rrcurveto
          -2 -21 rlineto
          0 -52 44 -45 53 0 rrcurveto
          endchar
        </CharString>
        <CharString name="exclam">
          0 597 -54 rmoveto
          49 0 46 18 43 36 55 48 28 57 0 68 0 35 -10 31 -20 26 -29 39 -41 20 -51 0 -52 0 -47 -18 -43 -36 -57 -48 -28 -57 0 -66 0 -36 11 -32 21 -28 29 -38 42 -19 54 0 rrcurveto
          103 499 rmoveto
          52 0 57 47 13 51 rrcurveto
          196 806 rlineto
          2 8 1 10 0 8 0 57 -49 53 -61 0 -68 0 -72 -62 -14 -65 rrcurveto
          -146 -805 -1 -18 rlineto
          0 -46 41 -44 49 0 rrcurveto
          endchar
        </CharString>
        <CharString name="exclam_exclam">
          0 397 -54 rmoveto
          49 0 46 18 43 36 55 48 28 57 0 68 0 35 -10 31 -20 26 -29 39 -41 20 -51 0 -52 0 -47 -18 -43 -36 -57 -48 -28 -57 0 -66 0 -36 11 -32 21 -28 29 -38 42 -19 54 0 rrcurveto
          103 499 rmoveto
          52 0 57 47 13 51 rrcurveto
          196 806 rlineto
          2 8 1 10 0 8 0 57 -49 53 -61 0 -68 0 -72 -62 -14 -65 rrcurveto
          -146 -805 -1 -18 rlineto
          0 -46 41 -44 49 0 rrcurveto
          -903 -499 rmoveto
          49 0 46 18 43 36 55 48 28 57 0 68 0 35 -10 31 -20 26 -29 39 -41 20 -51 0 -52 0 -47 -18 -43 -36 -57 -48 -28 -57 0 -66 0 -36 11 -32 21 -28 29 -38 42 -19 54 0 rrcurveto
          103 499 rmoveto
          52 0 57 47 13 51 rrcurveto
          196 806 rlineto
          2 8 1 10 0 8 0 57 -49 53 -61 0 -68 0 -72 -62 -14 -65 rrcurveto
          -146 -805 -1 -18 rlineto
          0 -46 41 -44 49 0 rrcurveto
          endchar
        </CharString>
        <CharString name="f">
          0 136 -482 rmoveto
          117 0 102 39 88 79 93 80 66 127 39 174 rrcurveto
          174 806 rlineto
          2 6 3 5 6 4 5 5 6 2 6 0 rrcurveto
          356 hlineto
          31 0 28 11 25 21 35 28 17 34 0 40 0 23 -7 20 -13 17 -19 24 -26 12 -33 0 rrcurveto
          -356 hlineto
          -4 0 -3 1 -1 2 -2 1 0 1 0 -1 rrcurveto
          18 82 rlineto
          11 45 22 38 34 32 35 32 40 16 45 0 rrcurveto
          168 hlineto
          31 0 28 11 25 21 35 28 17 34 0 40 0 23 -7 20 -13 17 -19 24 -26 12 -33 0 rrcurveto
          -206 hlineto
          -65 0 -61 -16 -57 -32 -57 -32 -48 -41 -40 -52 -39 -51 -27 -57 -14 -63 rrcurveto
          -26 -119 rlineto
          -1 -2 -3 -4 -5 -4 -6 -4 -5 -2 -6 0 rrcurveto
          -145 hlineto
          -31 0 -28 -11 -25 -21 -35 -28 -17 -34 0 -39 0 -24 7 -20 14 -17 19 -24 25 -12 33 0 rrcurveto
          144 hlineto
          4 0 3 -1 1 -1 1 -2 1 -2 0 -2 0 -2 -58 -268 -114 -536 -21 -94 -34 -75 -47 -55 -48 -55 -55 -27 -64 0 -81 0 -41 -36 0 -72 0 -66 37 -33 75 0 rrcurveto
          endchar
        </CharString>
        <CharString name="five">
          0 575 -54 rmoveto
          330 0 186 165 42 328 6 50 2 38 0 29 -4 225 -149 112 -294 0 -47 0 -24 1 0 3 rrcurveto
          92 290 rlineto
          3 9 4 4 8 0 358 8 188 31 16 52 5 14 2 13 0 11 0 21 -7 17 -13 14 -25 27 -215 15 -403 1 -69 0 -41 -27 -13 -54 -102 -376 -51 -192 0 -8 2 -24 7 -20 14 -17 rrcurveto
          20 -25 27 -13 34 0 rrcurveto
          164 hlineto
          175 -1 88 -54 2 -107 0 -66 -9 -52 -17 -37 -51 -116 -105 -59 -157 -2 -129 0 -90 40 -51 81 -27 44 -27 22 -27 0 -42 0 -21 -33 0 -67 0 -33 4 -26 8 -18 76 -158 141 -80 206 0 rrcurveto
          endchar
        </CharString>
        <CharString name="four">
          0 980 494 rmoveto
          15 100 20 50 22 0 13 0 10 -8 9 -17 8 -16 5 -17 0 -17 0 -50 -34 -25 -68 0 rrcurveto
          -218 -548 rmoveto
          32 0 29 11 26 21 26 21 16 27 6 31 rrcurveto
          48 212 rlineto
          117 2 78 21 39 40 59 59 31 86 1 115 0 97 -29 77 -58 58 -39 37 -48 19 -59 0 -138 0 -94 -127 -49 -253 rrcurveto
          -228 1 rlineto
          -50 0 -25 -1 0 0 1 -1 1 -2 0 -2 rrcurveto
          448 532 222 244 rlineto
          20 21 10 29 0 35 0 26 -6 21 -13 16 -17 23 -22 12 -26 0 -48 0 -43 -21 -37 -42 rrcurveto
          -762 -869 rlineto
          -25 -29 -16 -40 -6 -50 0 -39 13 -33 27 -25 26 -25 32 -13 39 0 rrcurveto
          442 hlineto
          -49 -221 rlineto
          0 -29 9 -24 19 -19 18 -19 23 -10 29 0 rrcurveto
          endchar
        </CharString>
        <CharString name="g">
          0 603 192 rmoveto
          -72 0 -46 20 -22 40 -22 40 -10 43 0 47 0 38 5 43 10 49 54 229 104 116 156 4 56 0 43 -17 31 -35 31 -34 15 -39 0 -43 0 -18 -2 -19 -4 -21 rrcurveto
          -45 -211 rlineto
          -13 -56 -35 -55 -59 -52 -53 -46 -59 -23 -63 0 rrcurveto
          -141 -696 rmoveto
          135 0 118 39 101 79 101 79 64 108 29 137 151 707 75 358 0 9 0 22 -6 19 -12 15 -16 24 -25 12 -35 0 -62 0 -42 -30 -22 -59 rrcurveto
          -7 -19 rlineto
          2 vlineto
          -52 70 -81 35 -110 0 -134 0 -114 -50 -95 -99 -95 -100 -69 -150 -43 -199 -14 -63 -7 -59 0 -55 0 -85 17 -74 34 -63 57 -107 95 -53 134 0 91 0 81 24 70 49 12 9 9 4 6 0 rrcurveto
          2 vlineto
          0 -3 -11 -48 -21 -93 -9 -43 -28 -39 -45 -36 -46 -36 -63 -19 -80 -1 -59 0 -47 9 -34 17 -34 17 -32 27 -31 37 -17 21 -23 10 -29 0 -30 0 -31 -16 -32 -31 -25 -24 -13 -28 0 -33 rrcurveto
          0 -19 5 -17 11 -16 80 -116 128 -58 177 0 rrcurveto
          endchar
        </CharString>
        <CharString name="grave">
          0 963 946 rmoveto
          26 0 33 12 24 20 30 26 20 38 0 37 0 20 -7 24 -13 17 rrcurveto
          -243 308 rlineto
          -18 23 -31 13 -28 0 -27 0 -33 -12 -25 -20 -32 -25 -18 -40 0 -35 0 -21 7 -24 14 -17 rrcurveto
          241 -307 rlineto
          18 -23 33 -14 29 0 rrcurveto
          endchar
        </CharString>
        <CharString name="greater">
          0 275 73 rmoveto
          15 0 21 4 16 7 rrcurveto
          769 363 rlineto
          40 18 32 39 9 41 1 8 1 9 0 7 0 32 -18 35 -29 16 rrcurveto
          -614 355 rlineto
          -15 9 -20 4 -16 0 -55 0 -65 -52 -12 -56 -1 -7 -1 -9 0 -7 0 -33 19 -36 29 -17 rrcurveto
          420 -250 rlineto
          3 vlineto
          -1 -2 rlineto
          -1 -4 -1 -1 -7 -3 rrcurveto
          -528 -254 rlineto
          -39 -19 -35 -41 -9 -41 rrcurveto
          -2 -20 rlineto
          0 -51 45 -47 52 0 rrcurveto
          endchar
        </CharString>
        <CharString name="greater_greater">
          0 125 73 rmoveto
          15 0 21 4 16 7 rrcurveto
          769 363 rlineto
          40 18 32 39 9 41 1 8 1 9 0 7 0 32 -18 35 -29 16 rrcurveto
          -614 355 rlineto
          -15 9 -20 4 -16 0 -55 0 -65 -52 -12 -56 -1 -7 -1 -9 0 -7 0 -33 19 -36 29 -17 rrcurveto
          420 -250 rlineto
          3 vlineto
          -1 -2 rlineto
          -1 -4 -1 -1 -7 -3 rrcurveto
          -528 -254 rlineto
          -39 -19 -35 -41 -9 -41 rrcurveto
          -2 -20 rlineto
          0 -51 45 -47 52 0 rrcurveto
          -900 hmoveto
          15 0 21 4 16 7 rrcurveto
          769 363 rlineto
          40 18 32 39 9 41 1 8 1 9 0 7 0 32 -18 35 -29 16 rrcurveto
          -614 355 rlineto
          -15 9 -20 4 -16 0 -55 0 -65 -52 -12 -56 -1 -7 -1 -9 0 -7 0 -33 19 -36 29 -17 rrcurveto
          420 -250 rlineto
          3 vlineto
          -1 -2 rlineto
          -1 -4 -1 -1 -7 -3 rrcurveto
          -528 -254 rlineto
          -39 -19 -35 -41 -9 -41 rrcurveto
          -2 -20 rlineto
          0 -51 45 -47 52 0 rrcurveto
          endchar
        </CharString>
        <CharString name="greater_greater_greater">
          0 -25 73 rmoveto
          15 0 21 4 16 7 rrcurveto
          769 363 rlineto
          40 18 32 39 9 41 1 8 1 9 0 7 0 32 -18 35 -29 16 rrcurveto
          -614 355 rlineto
          -15 9 -20 4 -16 0 -55 0 -65 -52 -12 -56 -1 -7 -1 -9 0 -7 0 -33 19 -36 29 -17 rrcurveto
          420 -250 rlineto
          3 vlineto
          -1 -2 rlineto
          -1 -4 -1 -1 -7 -3 rrcurveto
          -528 -254 rlineto
          -39 -19 -35 -41 -9 -41 rrcurveto
          -2 -20 rlineto
          0 -51 45 -47 52 0 rrcurveto
          -900 hmoveto
          15 0 21 4 16 7 rrcurveto
          769 363 rlineto
          40 18 32 39 9 41 1 8 1 9 0 7 0 32 -18 35 -29 16 rrcurveto
          -614 355 rlineto
          -15 9 -20 4 -16 0 -55 0 -65 -52 -12 -56 -1 -7 -1 -9 0 -7 0 -33 19 -36 29 -17 rrcurveto
          420 -250 rlineto
          3 vlineto
          -1 -2 rlineto
          -1 -4 -1 -1 -7 -3 rrcurveto
          -528 -254 rlineto
          -39 -19 -35 -41 -9 -41 rrcurveto
          -2 -20 rlineto
          0 -51 45 -47 52 0 rrcurveto
          -900 hmoveto
          15 0 21 4 16 7 rrcurveto
          769 363 rlineto
          40 18 32 39 9 41 1 8 1 9 0 7 0 32 -18 35 -29 16 rrcurveto
          -614 355 rlineto
          -15 9 -20 4 -16 0 -55 0 -65 -52 -12 -56 -1 -7 -1 -9 0 -7 0 -33 19 -36 29 -17 rrcurveto
          420 -250 rlineto
          3 vlineto
          -1 -2 rlineto
          -1 -4 -1 -1 -7 -3 rrcurveto
          -528 -254 rlineto
          -39 -19 -35 -41 -9 -41 rrcurveto
          -2 -20 rlineto
          0 -51 45 -47 52 0 rrcurveto
          endchar
        </CharString>
        <CharString name="h">
          0 1059 -54 rmoveto
          49 0 44 11 40 22 51 29 26 30 0 31 0 23 -8 17 -16 12 -16 11 -16 6 -16 0 -18 0 -14 -5 -9 -9 -10 -10 -9 -5 -9 0 -9 0 -5 17 0 33 0 25 4 32 8 38 rrcurveto
          81 386 rlineto
          14 64 7 58 0 50 0 77 -16 61 -32 45 -50 73 -94 36 -136 0 -103 -1 -107 -49 -111 -95 rrcurveto
          -8 -6 rlineto
          9 0 5 -4 0 -7 rrcurveto
          44 212 rlineto
          41 191 21 101 0 11 0 23 -7 20 -14 18 -20 24 -26 12 -32 0 -30 0 -28 -11 -27 -22 -26 -22 -17 -27 -7 -33 -197 -919 -98 -467 0 -14 0 -22 6 -19 13 -17 18 -23 27 -12 35 0 rrcurveto
          35 0 29 11 23 21 22 21 15 27 7 33 rrcurveto
          117 548 rlineto
          18 83 47 64 77 47 65 37 61 19 56 1 103 0 51 -47 0 -95 0 -23 -3 -26 -6 -29 rrcurveto
          -80 -374 rlineto
          -7 -39 -8 -39 -8 -39 -5 -29 -3 -24 0 -21 0 -42 10 -29 20 -17 19 -17 22 -11 24 -4 24 -5 32 -2 41 0 rrcurveto
          endchar
        </CharString>
        <CharString name="hyphenminus">
          0 1038 436 rmoveto
          70 0 65 67 0 66 0 50 -44 45 -53 0 rrcurveto
          -680 hlineto
          -72 0 -63 -70 0 -63 0 -51 44 -44 53 0 rrcurveto
          endchar
        </CharString>
        <CharString name="i">
          0 678 -55 rmoveto
          90 0 79 24 70 47 69 47 84 78 98 109 14 15 7 18 0 23 0 22 -8 19 -16 17 -16 17 -21 8 -25 0 -23 0 -20 -7 -15 -15 -64 -63 -52 -44 -41 -27 -41 -26 -39 -13 -38 0 rrcurveto
          -26 0 -13 18 -1 37 0 40 26 121 51 202 52 202 25 111 0 20 0 31 -10 27 -20 24 -27 32 -36 16 -46 0 -10 0 -111 -27 -213 -54 -33 -8 -29 -16 -26 -23 -25 -22 -13 -30 0 -35 rrcurveto
          0 -34 9 -27 17 -21 17 -20 19 -10 22 0 10 0 42 13 75 27 81 28 42 14 4 0 1 0 1 -1 0 -3 0 -10 -24 -94 -48 -179 -49 -179 -24 -131 0 -84 0 -136 66 -68 132 0 rrcurveto
          154 1265 rmoveto
          44 0 41 17 38 32 51 43 25 53 0 62 -2 32 -10 28 -19 23 -27 37 -37 18 -47 0 -47 0 -42 -16 -39 -33 -49 -44 -24 -52 0 -58 2 -34 10 -30 19 -25 27 -35 38 -18 48 0 rrcurveto
          endchar
        </CharString>
        <CharString name="j">
          0 295 -312 rmoveto
          -29 0 -15 7 0 15 0 78 89 115 177 154 -18 -80 -32 -82 -44 -83 -44 -83 -43 -41 -41 0 rrcurveto
          580 1523 rmoveto
          44 0 41 17 38 32 50 43 25 52 0 62 -2 32 -10 27 -19 24 -26 36 -37 18 -47 0 -47 0 -42 -16 -38 -33 -49 -44 -24 -51 0 -58 2 -34 10 -29 18 -25 27 -35 38 -18 48 0 rrcurveto
          -609 -1715 rmoveto
          93 0 85 33 77 66 76 67 68 114 59 163 20 61 29 112 38 162 rrcurveto
          285 229 rlineto
          21 16 10 22 0 28 0 21 -8 19 -15 18 -15 18 -20 9 -25 0 -21 0 -19 -7 -15 -13 rrcurveto
          -132 -110 rlineto
          60 242 30 126 0 10 -1 47 -13 40 -24 34 -25 34 -33 17 -39 0 -11 0 -112 -27 -211 -54 -83 -21 -42 -50 0 -78 0 -36 10 -25 19 -16 20 -16 19 -8 18 0 11 0 43 13 75 27 rrcurveto
          81 28 42 14 4 0 2 0 1 -2 0 -3 0 -10 -38 -162 -77 -315 -221 -172 -141 -135 -61 -96 -61 -96 -30 -82 0 -69 0 -125 66 -62 131 0 rrcurveto
          endchar
        </CharString>
        <CharString name="k">
          0 897 -54 rmoveto
          38 0 36 17 33 33 53 52 38 67 22 82 2 7 1 8 0 7 0 47 -23 23 -46 0 -38 0 -23 -20 -8 -40 -10 -43 -15 -22 -21 0 -13 0 -55 81 -97 162 -7 11 -3 7 0 5 rrcurveto
          0 1 2 2 3 1 250 121 127 159 4 198 0 128 -64 64 -127 0 -102 0 -112 -46 -121 -91 72 309 36 163 0 14 0 27 -9 23 -19 19 -21 21 -28 11 -34 0 -60 0 -39 -32 -16 -64 rrcurveto
          -216 -923 -108 -470 0 -15 0 -26 7 -22 14 -18 17 -24 27 -12 35 0 28 0 25 9 22 17 23 18 15 23 7 27 rrcurveto
          146 591 rlineto
          3 10 9 12 15 15 133 126 96 63 59 0 36 0 18 -11 0 -21 0 -90 -130 -101 -261 -111 -25 -11 -13 -18 0 -24 0 -17 6 -17 12 -18 rrcurveto
          278 -411 rlineto
          30 -42 38 -21 48 0 rrcurveto
          endchar
        </CharString>
        <CharString name="l">
          0 612 -54 rmoveto
          63 0 56 11 48 21 80 28 82 68 82 106 14 19 7 20 0 23 -2 28 -11 24 -20 19 -20 19 -24 9 -27 0 -29 0 -27 -14 -24 -28 -39 -53 -34 -37 -30 -20 -30 -21 -33 -10 -37 0 rrcurveto
          -39 0 -19 14 0 27 0 32 24 123 49 213 223 118 152 95 79 70 137 127 68 148 0 168 0 76 -28 63 -56 52 -51 47 -68 23 -84 0 -129 0 -106 -43 -82 -87 -82 -87 -63 -128 -43 -171 rrcurveto
          -89 -349 rlineto
          -110 -48 -78 -31 -44 -14 -41 -15 -21 -29 -1 -45 0 -31 11 -24 21 -17 22 -17 22 -8 23 0 22 0 49 19 75 38 -16 -68 -11 -56 -7 -42 -5 -35 -3 -43 0 -52 3 -150 85 -75 166 0 rrcurveto
          129 878 rmoveto
          60 247 rlineto
          48 186 81 93 116 0 63 -1 32 -28 1 -56 0 -88 -27 -73 -54 -59 -71 -77 -107 -74 -142 -70 rrcurveto
          endchar
        </CharString>
        <CharString name="left_arrow_single">
          0 -490 452 rmoveto
          -1 hlineto
          -71 88 rlineto
          -2 vlineto
          1 5 rlineto
          0 3 0 0 5 3 rrcurveto
          107 90 rlineto
          4 3 1 0 4 0 rrcurveto
          2 hlineto
          70 -89 -1 -2 rlineto
          0 -2 -1 -1 -5 -4 rrcurveto
          -106 -89 rlineto
          -4 -3 -1 0 -4 0 rrcurveto
          107 -475 rmoveto
          60 0 60 50 12 59 2 7 1 9 0 7 0 20 -7 23 -12 16 rrcurveto
          -90 115 rlineto
          0 0 0 -1 1 0 rrcurveto
          3 vlineto
          1 4 -1 -1 6 5 rrcurveto
          137 116 rlineto
          19 15 31 12 20 0 rrcurveto
          1181 hlineto
          58 0 62 51 13 59 rrcurveto
          2 21 rlineto
          0 51 -44 46 -53 0 rrcurveto
          -1180 hlineto
          -20 0 -22 10 -10 13 rrcurveto
          -91 115 1 -3 1 6 rlineto
          0 2 0 0 4 4 rrcurveto
          137 113 rlineto
          25 20 18 30 5 27 2 8 1 9 0 7 0 54 -47 42 -50 0 -26 0 -33 -12 -25 -19 rrcurveto
          -555 -460 rlineto
          -24 -21 -19 -28 -5 -28 -2 -7 -1 -9 0 -8 0 -20 7 -24 13 -17 rrcurveto
          360 -457 rlineto
          20 -24 31 -10 26 0 rrcurveto
          endchar
        </CharString>
        <CharString name="left_right_arrow_double">
          0 383 -23 rmoveto
          27 0 28 10 29 21 rrcurveto
          555 458 rlineto
          34 30 17 33 0 38 0 22 -7 20 -14 19 rrcurveto
          -360 459 rlineto
          -22 23 -25 11 -29 0 -30 0 -28 -10 -26 -21 -34 -28 -17 -33 0 -40 0 -20 6 -20 12 -20 rrcurveto
          44 -53 rlineto
          0 -3 -1 -3 -3 -3 -2 -2 -320 -1 -637 0 rrcurveto
          -955 hlineto
          1 -1 rlineto
          0 3 23 20 48 39 33 31 17 35 0 36 0 22 -7 20 -13 17 -19 23 -26 12 -32 0 -27 0 -28 -10 -28 -21 rrcurveto
          -555 -459 rlineto
          -34 -28 -17 -34 0 -39 0 -22 6 -20 14 -18 rrcurveto
          361 -459 rlineto
          21 -23 25 -11 29 0 30 0 29 11 25 21 34 28 17 34 0 40 0 21 -6 19 -13 18 rrcurveto
          -45 57 rlineto
          0 2 1 2 4 3 3 3 639 1 1276 0 rrcurveto
          1 vlineto
          0 -2 -2 -3 -3 -3 rrcurveto
          -69 -58 rlineto
          -34 -28 -17 -34 0 -39 0 -22 7 -19 13 -17 19 -24 26 -12 32 0 rrcurveto
          219 419 rmoveto
          -1 0 -9 11 -16 22 -21 24 -26 12 -31 0 rrcurveto
          -2008 hlineto
          -29 0 -29 -11 -28 -21 -29 -25 -16 -12 -3 0 -1 0 -20 24 -38 49 rrcurveto
          -58 73 rlineto
          0 3 2 4 3 2 rrcurveto
          181 149 rlineto
          3 3 3 1 1 0 rrcurveto
          2 hlineto
          27 -34 rlineto
          21 -23 25 -11 30 0 rrcurveto
          2006 hlineto
          29 0 28 10 28 21 30 25 16 12 2 0 1 0 20 -25 39 -50 39 -49 19 -25 0 -1 0 -2 -2 -3 -4 -4 rrcurveto
          -177 -145 rlineto
          -3 -3 -3 -1 -3 0 rrcurveto
          endchar
        </CharString>
        <CharString name="left_right_arrow_double_long">
          0 383 -23 rmoveto
          27 0 28 10 29 21 rrcurveto
          555 458 rlineto
          34 30 17 33 0 38 0 22 -7 20 -14 19 rrcurveto
          -360 459 rlineto
          -22 23 -25 11 -29 0 -30 0 -28 -10 -26 -21 -34 -28 -17 -33 0 -40 0 -20 6 -20 12 -20 rrcurveto
          44 -53 rlineto
          0 -3 -1 -3 -3 -3 -2 -2 -520 -1 -1037 0 rrcurveto
          -1555 hlineto
          1 -1 rlineto
          0 3 23 20 48 39 33 31 17 35 0 36 0 22 -7 20 -13 17 -19 23 -26 12 -32 0 -27 0 -28 -10 -28 -21 rrcurveto
          -555 -459 rlineto
          -34 -28 -17 -34 0 -39 0 -22 6 -20 14 -18 rrcurveto
          361 -459 rlineto
          21 -23 25 -11 29 0 30 0 29 11 25 21 34 28 17 34 0 40 0 21 -6 19 -13 18 rrcurveto
          -45 57 rlineto
          0 2 1 2 4 3 3 3 1039 1 2076 0 rrcurveto
          1 vlineto
          0 -2 -2 -3 -3 -3 rrcurveto
          -69 -58 rlineto
          -34 -28 -17 -34 0 -39 0 -22 7 -19 13 -17 19 -24 26 -12 32 0 rrcurveto
          219 419 rmoveto
          -1 0 -9 11 -16 22 -21 24 -26 12 -31 0 rrcurveto
          -3208 hlineto
          -29 0 -29 -11 -28 -21 -29 -25 -16 -12 -3 0 -1 0 -20 24 -38 49 rrcurveto
          -58 73 rlineto
          0 3 2 4 3 2 rrcurveto
          181 149 rlineto
          3 3 3 1 1 0 rrcurveto
          2 hlineto
          27 -34 rlineto
          21 -23 25 -11 30 0 rrcurveto
          3206 hlineto
          29 0 28 10 28 21 30 25 16 12 2 0 1 0 20 -25 39 -50 39 -49 19 -25 0 -1 0 -2 -2 -3 -4 -4 rrcurveto
          -177 -145 rlineto
          -3 -3 -3 -1 -3 0 rrcurveto
          endchar
        </CharString>
        <CharString name="left_right_arrow_single">
          0 -1690 452 rmoveto
          -1 hlineto
          -71 88 rlineto
          -2 vlineto
          1 5 rlineto
          0 3 0 0 5 3 rrcurveto
          107 90 rlineto
          4 3 1 0 4 0 rrcurveto
          2 hlineto
          70 -89 -1 -2 rlineto
          0 -2 -1 -1 -5 -4 rrcurveto
          -106 -89 rlineto
          -4 -3 -1 0 -4 0 rrcurveto
          107 -475 rmoveto
          60 0 60 50 12 59 2 7 1 9 0 7 0 20 -7 23 -12 16 rrcurveto
          -90 115 rlineto
          0 0 0 -1 1 0 rrcurveto
          3 vlineto
          1 4 -1 -1 6 5 rrcurveto
          137 116 rlineto
          19 15 31 12 20 0 rrcurveto
          2381 hlineto
          58 0 62 51 13 59 rrcurveto
          2 21 rlineto
          0 51 -44 46 -53 0 rrcurveto
          -2380 hlineto
          -20 0 -22 10 -10 13 rrcurveto
          -91 115 1 -3 1 6 rlineto
          0 2 0 0 4 4 rrcurveto
          137 113 rlineto
          25 20 18 30 5 27 2 8 1 9 0 7 0 54 -47 42 -50 0 -26 0 -33 -12 -25 -19 rrcurveto
          -555 -460 rlineto
          -24 -21 -19 -28 -5 -28 -2 -7 -1 -9 0 -8 0 -20 7 -24 13 -17 rrcurveto
          360 -457 rlineto
          20 -24 31 -10 26 0 rrcurveto
          endchar
        </CharString>
        <CharString name="left_right_arrow_single_long">
          0 672 452 rmoveto
          -1 0 -12 15 -23 29 -24 30 -11 15 0 1 0 2 1 2 4 3 rrcurveto
          108 89 rlineto
          3 3 3 1 3 0 1 0 12 -15 23 -30 23 -30 12 -14 0 0 0 -3 -38 -32 -75 -62 -3 -3 -3 -1 -3 0 rrcurveto
          -3562 hmoveto
          -1 0 -12 15 -23 30 -24 30 -11 15 0 0 0 1 37 32 76 63 3 3 3 1 3 0 1 0 12 -15 23 -29 23 -30 12 -14 0 0 0 -4 -2 -3 -4 -4 -74 -61 -39 -30 -3 0 rrcurveto
          3273 -475 rmoveto
          27 0 28 10 29 20 rrcurveto
          555 458 rlineto
          33 32 17 34 0 36 0 22 -7 20 -13 18 rrcurveto
          -360 460 rlineto
          -22 23 -25 11 -29 0 -29 0 -27 -10 -27 -21 -34 -26 -18 -35 0 -41 0 -21 6 -20 12 -19 60 -76 30 -39 0 0 0 -2 -2 -3 -4 -4 rrcurveto
          -137 -113 rlineto
          -9 -7 -12 -7 -14 -5 -14 -5 -11 -3 -10 0 rrcurveto
          -2880 hlineto
          -9 0 -10 2 -10 5 -11 5 -8 5 -4 6 rrcurveto
          -90 114 rlineto
          0 3 2 3 4 4 rrcurveto
          137 113 rlineto
          33 30 17 35 0 37 0 24 -7 20 -15 18 -19 22 -25 11 -31 0 -27 0 -28 -10 -28 -21 rrcurveto
          -555 -460 rlineto
          -35 -29 -17 -33 0 -37 0 -21 7 -21 14 -20 rrcurveto
          361 -459 rlineto
          21 -22 25 -11 29 0 31 0 28 10 26 21 33 28 17 33 0 40 0 20 -6 20 -12 19 -60 76 -30 39 0 1 0 2 47 42 96 81 9 7 12 7 14 5 14 5 12 3 9 0 rrcurveto
          2881 hlineto
          9 0 10 -2 10 -5 11 -5 7 -5 5 -6 rrcurveto
          89 -117 rlineto
          0 -4 -2 -3 -4 -4 rrcurveto
          -137 -113 rlineto
          -33 -30 -17 -34 0 -37 0 -22 7 -20 13 -17 18 -23 26 -12 33 0 rrcurveto
          endchar
        </CharString>
        <CharString name="less">
          0 967 73 rmoveto
          55 0 66 53 12 56 1 7 1 9 0 7 0 33 -19 36 -29 17 rrcurveto
          -420 253 rlineto
          -1 hlineto
          1 -2 rlineto
          1 0 -1 2 1 3 0 1 0 0 8 5 rrcurveto
          525 249 rlineto
          40 18 34 42 9 41 rrcurveto
          2 20 rlineto
          0 51 -44 46 -51 0 -16 0 -21 -4 -17 -8 rrcurveto
          -765 -355 rlineto
          -41 -19 -32 -41 -9 -38 -1 -8 -1 -9 0 -7 0 -33 18 -33 29 -17 rrcurveto
          615 -363 rlineto
          13 -8 22 -4 15 0 rrcurveto
          endchar
        </CharString>
        <CharString name="less_greater">
          0 35 183 rmoveto
          -602 362 rlineto
          1 -1 0 0 0 -2 0 5 3 3 5 2 rrcurveto
          757 358 601 -357 1 2 rlineto
          0 -4 -3 -3 -6 -2 rrcurveto
          -795 -609 rmoveto
          15 0 23 8 31 15 rrcurveto
          1030 487 rlineto
          44 22 27 32 9 44 2 8 1 8 0 8 0 38 -16 28 -31 17 rrcurveto
          -833 483 rlineto
          -23 12 -21 6 -20 0 -12 0 -20 -6 -27 -12 rrcurveto
          -1038 -482 rlineto
          -21 -10 -17 -13 -15 -18 -20 -25 -10 -27 0 -30 0 -35 15 -27 31 -19 rrcurveto
          826 -489 rlineto
          25 -15 23 -8 22 0 rrcurveto
          endchar
        </CharString>
        <CharString name="less_less">
          0 817 73 rmoveto
          55 0 66 53 12 56 1 7 1 9 0 7 0 33 -19 36 -29 17 rrcurveto
          -420 253 rlineto
          -1 hlineto
          1 -2 rlineto
          1 0 -1 2 1 3 0 1 0 0 8 5 rrcurveto
          525 249 rlineto
          40 18 34 42 9 41 rrcurveto
          2 20 rlineto
          0 51 -44 46 -51 0 -16 0 -21 -4 -17 -8 rrcurveto
          -765 -355 rlineto
          -41 -19 -32 -41 -9 -38 -1 -8 -1 -9 0 -7 0 -33 18 -33 29 -17 rrcurveto
          615 -363 rlineto
          13 -8 22 -4 15 0 rrcurveto
          -900 hmoveto
          55 0 66 53 12 56 1 7 1 9 0 7 0 33 -19 36 -29 17 rrcurveto
          -420 253 rlineto
          -1 hlineto
          1 -2 rlineto
          1 0 -1 2 1 3 0 1 0 0 8 5 rrcurveto
          525 249 rlineto
          40 18 34 42 9 41 rrcurveto
          2 20 rlineto
          0 51 -44 46 -51 0 -16 0 -21 -4 -17 -8 rrcurveto
          -765 -355 rlineto
          -41 -19 -32 -41 -9 -38 -1 -8 -1 -9 0 -7 0 -33 18 -33 29 -17 rrcurveto
          615 -363 rlineto
          13 -8 22 -4 15 0 rrcurveto
          endchar
        </CharString>
        <CharString name="less_less_less">
          0 -1133 73 rmoveto
          55 0 66 53 12 56 1 7 1 9 0 7 0 33 -19 36 -29 17 rrcurveto
          -420 253 rlineto
          -1 hlineto
          1 -2 rlineto
          1 0 -1 2 1 3 0 1 0 0 8 5 rrcurveto
          525 249 rlineto
          40 18 34 42 9 41 rrcurveto
          2 20 rlineto
          0 51 -44 46 -51 0 -16 0 -21 -4 -17 -8 rrcurveto
          -765 -355 rlineto
          -41 -19 -32 -41 -9 -38 -1 -8 -1 -9 0 -7 0 -33 18 -33 29 -17 rrcurveto
          615 -363 rlineto
          13 -8 22 -4 15 0 rrcurveto
          1800 hmoveto
          55 0 66 53 12 56 1 7 1 9 0 7 0 33 -19 36 -29 17 rrcurveto
          -420 253 rlineto
          -1 hlineto
          1 -2 rlineto
          1 0 -1 2 1 3 0 1 0 0 8 5 rrcurveto
          525 249 rlineto
          40 18 34 42 9 41 rrcurveto
          2 20 rlineto
          0 51 -44 46 -51 0 -16 0 -21 -4 -17 -8 rrcurveto
          -765 -355 rlineto
          -41 -19 -32 -41 -9 -38 -1 -8 -1 -9 0 -7 0 -33 18 -33 29 -17 rrcurveto
          615 -363 rlineto
          13 -8 22 -4 15 0 rrcurveto
          -900 hmoveto
          55 0 66 53 12 56 1 7 1 9 0 7 0 33 -19 36 -29 17 rrcurveto
          -420 253 rlineto
          -1 hlineto
          1 -2 rlineto
          1 0 -1 2 1 3 0 1 0 0 8 5 rrcurveto
          525 249 rlineto
          40 18 34 42 9 41 rrcurveto
          2 20 rlineto
          0 51 -44 46 -51 0 -16 0 -21 -4 -17 -8 rrcurveto
          -765 -355 rlineto
          -41 -19 -32 -41 -9 -38 -1 -8 -1 -9 0 -7 0 -33 18 -33 29 -17 rrcurveto
          615 -363 rlineto
          13 -8 22 -4 15 0 rrcurveto
          endchar
        </CharString>
        <CharString name="less_slash">
          0 -67 -377 rmoveto
          21 0 21 6 21 12 21 11 16 16 13 20 rrcurveto
          1166 1776 rlineto
          15 23 7 22 0 23 0 40 -17 28 -35 17 -15 7 -15 3 -15 0 -21 0 -20 -6 -21 -11 -21 -11 -18 -16 -13 -20 rrcurveto
          -928 -1415 -661 396 rlineto
          1 1 0 1 0 1 0 1 0 0 1 0 0 0 1 1 1 1 1 1 176 84 353 167 21 9 18 14 15 19 17 21 11 27 3 31 0 25 -9 23 -19 20 -19 19 -23 10 -25 0 rrcurveto
          -16 0 -18 -4 -20 -8 rrcurveto
          -765 -355 rlineto
          -21 -10 -17 -14 -15 -18 -21 -25 -10 -27 0 -28 0 -33 16 -27 31 -23 rrcurveto
          857 -507 -101 -154 rlineto
          -15 -23 -7 -22 0 -22 0 -41 18 -29 35 -17 15 -7 14 -3 15 0 rrcurveto
          endchar
        </CharString>
        <CharString name="less_slash_greater">
          0 -1067 -377 rmoveto
          21 0 21 6 21 11 21 12 16 16 13 20 rrcurveto
          844 1285 710 -420 rlineto
          1 0 0 1 0 3 -1 -5 -3 -4 -6 -2 rrcurveto
          -529 -254 rlineto
          -49 -26 -29 -40 -6 -55 0 -27 9 -23 19 -19 19 -19 23 -10 27 0 16 0 18 4 18 7 rrcurveto
          769 363 rlineto
          44 21 27 33 9 44 2 8 1 8 0 8 0 35 -15 27 -31 20 rrcurveto
          -908 528 187 285 rlineto
          15 23 7 22 0 23 0 40 -17 28 -35 17 -14 7 -15 3 -16 0 -21 0 -20 -6 -21 -11 -21 -11 -17 -16 -14 -20 rrcurveto
          -928 -1415 -661 396 rlineto
          -2 vlineto
          1 4 3 4 5 3 rrcurveto
          526 249 rlineto
          49 25 29 40 6 56 0 27 -9 23 -18 19 -19 19 -22 9 -27 0 -17 0 -18 -4 -19 -8 rrcurveto
          -765 -355 rlineto
          -56 -28 -28 -41 0 -53 0 -36 16 -27 31 -19 rrcurveto
          857 -508 -101 -154 rlineto
          -15 -23 -7 -22 0 -22 0 -41 18 -29 35 -17 14 -7 15 -3 15 0 rrcurveto
          endchar
        </CharString>
        <CharString name="m">
          0 594 -55 rmoveto
          31 0 28 11 25 21 25 21 17 25 7 31 rrcurveto
          158 745 rlineto
          5 21 11 19 17 16 16 16 17 8 19 0 34 0 17 -16 0 -31 0 -7 -42 -205 -85 -401 -17 -77 -8 -49 0 -21 0 -41 10 -29 19 -17 19 -17 22 -10 25 -5 24 -5 37 -2 51 0 rrcurveto
          49 0 44 11 40 22 51 29 26 30 0 30 0 22 -7 17 -14 13 -14 12 -17 6 -20 0 -16 0 -14 -5 -13 -10 -13 -10 -11 -5 -8 0 -18 0 -9 16 0 33 0 8 46 221 93 435 rrcurveto
          6 33 3 30 0 27 0 51 -11 40 -23 31 -35 48 -54 24 -72 0 -75 0 -60 -24 -44 -49 -12 -13 -14 -18 -16 -25 rrcurveto
          9 hlineto
          14 0 7 -2 0 -3 0 89 -55 45 -111 0 -77 0 -62 -37 -47 -73 -1 -3 -1 -2 0 -2 0 -2 1 -1 2 0 rrcurveto
          3 hlineto
          13 -5 7 -5 0 -7 0 9 1 9 1 9 rrcurveto
          1 16 rlineto
          0 63 -29 31 -57 0 -29 0 -26 -10 -24 -20 -25 -20 -15 -24 -6 -29 -135 -633 -67 -321 0 -9 0 -22 7 -20 13 -17 18 -23 25 -12 33 0 31 0 28 11 25 21 25 21 16 25 8 30 rrcurveto
          155 732 rlineto
          7 29 13 24 19 17 18 17 17 9 17 0 17 0 12 -5 9 -9 9 -9 4 -12 0 -13 0 -7 -54 -257 -107 -505 -2 -7 -1 -8 0 -8 0 -23 7 -20 14 -18 18 -23 25 -12 32 0 rrcurveto
          endchar
        </CharString>
        <CharString name="n">
          0 1063 -54 rmoveto
          49 0 44 11 40 22 51 29 26 30 0 30 0 22 -7 17 -14 12 -14 13 -17 6 -20 0 -16 0 -15 -5 -13 -10 -13 -10 -10 -5 -8 0 -19 0 -10 16 0 33 0 9 33 161 67 313 rrcurveto
          14 64 7 58 0 50 0 77 -16 61 -32 45 -50 73 -94 36 -136 0 -103 -1 -107 -49 -111 -95 rrcurveto
          -8 -6 rlineto
          9 0 5 -4 0 -7 rrcurveto
          4 22 rlineto
          4 19 2 14 0 8 0 23 -7 21 -14 19 -19 24 -26 12 -32 0 -30 0 -29 -11 -27 -22 -26 -22 -17 -27 -7 -33 -133 -624 -66 -316 0 -10 0 -22 6 -19 13 -17 18 -23 27 -12 35 0 rrcurveto
          35 0 29 11 23 21 22 21 15 27 7 33 rrcurveto
          117 548 rlineto
          18 83 47 64 77 47 65 37 61 19 56 1 103 0 51 -47 0 -95 0 -23 -3 -26 -6 -29 rrcurveto
          -90 -432 rlineto
          -15 -68 -7 -45 0 -21 0 -41 10 -29 19 -17 19 -17 22 -11 24 -4 25 -5 37 -2 51 0 rrcurveto
          endchar
        </CharString>
        <CharString name="nine">
          0 683 694 rmoveto
          -53 1 -36 2 -19 5 -58 10 -30 56 -1 101 0 25 4 29 7 31 17 76 35 65 52 51 52 51 67 26 82 0 55 0 42 -20 28 -39 28 -39 14 -55 0 -71 0 -82 -17 -90 -35 -99 rrcurveto
          -100 -23 -78 -11 -56 0 rrcurveto
          -437 -748 rmoveto
          225 4 196 80 167 156 111 98 87 128 63 159 23 11 23 15 22 17 86 65 43 51 0 39 0 35 -19 17 -38 0 -23 0 -21 -4 -20 -8 21 77 10 87 0 95 0 257 -117 129 -233 0 rrcurveto
          -102 0 -91 -23 -81 -47 -80 -47 -68 -62 -54 -78 -85 -122 -42 -132 0 -142 5 -201 105 -108 205 -16 28 -3 28 -1 28 0 60 0 52 4 45 9 -74 -131 -107 -100 -139 -70 -50 -26 -52 -19 -54 -13 rrcurveto
          -65 -15 -43 -17 -22 -21 -23 -21 -11 -22 0 -23 0 -11 4 -11 8 -9 18 -20 23 -10 28 0 rrcurveto
          endchar
        </CharString>
        <CharString name="numbersign">
          0 414 845 rmoveto
          49 230 rlineto
          -85 hlineto
          -59 0 -68 -56 -12 -59 -13 -59 44 -56 59 0 rrcurveto
          901 hmoveto
          59 0 67 57 13 59 12 58 -44 56 -58 0 rrcurveto
          -485 hlineto
          -49 -230 rlineto
          -40 -520 rmoveto
          49 230 rlineto
          -487 hlineto
          -59 0 -68 -57 -12 -58 -12 -59 44 -56 58 0 rrcurveto
          901 hmoveto
          59 0 68 56 12 59 12 58 -43 57 -59 0 rrcurveto
          -85 hlineto
          -49 -230 rlineto
          125 820 rmoveto
          42 196 rlineto
          12 59 -45 55 -59 0 -58 0 -68 -56 -12 -58 rrcurveto
          -42 -196 rlineto
          -140 -1200 rmoveto
          59 0 68 56 12 59 rrcurveto
          152 715 rlineto
          -230 hlineto
          -152 -715 rlineto
          -12 -59 44 -56 59 0 rrcurveto
          -141 680 rmoveto
          153 716 rlineto
          12 59 -45 55 -59 0 -58 0 -68 -56 -13 -58 rrcurveto
          -152 -716 rlineto
          -29 -680 rmoveto
          59 0 68 56 12 59 rrcurveto
          42 195 rlineto
          -230 hlineto
          -42 -195 rlineto
          -12 -59 44 -56 59 0 rrcurveto
          endchar
        </CharString>
        <CharString name="numbersign_braceleft">
          0 667 480 rmoveto
          40 0 25 22 9 44 5 22 -6 19 -16 17 rrcurveto
          -73 80 rlineto
          -4 5 -1 6 1 5 1 6 4 5 6 4 rrcurveto
          107 81 rlineto
          23 17 14 19 5 22 9 44 -15 22 -40 0 -9 0 -11 -2 -11 -4 rrcurveto
          -325 -136 rlineto
          -42 -12 -26 -26 -8 -40 -9 -40 15 -26 37 -12 rrcurveto
          267 -136 rlineto
          10 -4 9 -2 9 0 rrcurveto
          200 -768 rmoveto
          27 0 30 12 23 18 25 19 18 32 7 33 6 29 -5 29 -17 20 -15 19 -26 12 -26 0 rrcurveto
          -68 hlineto
          -73 0 -46 9 -24 21 -42 31 -12 38 12 54 9 41 8 27 23 106 9 45 -37 51 -34 19 rrcurveto
          -262 138 rlineto
          -48 26 -58 14 -59 0 rrcurveto
          -329 hlineto
          -49 -230 rlineto
          568 hlineto
          38 0 35 -35 12 -60 -20 26 -35 -142 -6 -27 -27 -130 24 -105 75 -69 22 -22 30 -17 32 -11 32 -10 31 -7 27 -1 26 -2 34 -1 44 0 rrcurveto
          -502 1133 rmoveto
          58 0 65 14 59 25 rrcurveto
          320 139 rlineto
          40 18 61 52 10 45 rrcurveto
          19 90 rlineto
          7 40 5 28 3 16 11 55 28 37 55 31 33 21 50 9 73 0 rrcurveto
          69 hlineto
          26 0 31 12 23 19 25 20 18 29 7 29 7 34 -5 32 -16 19 -16 19 -26 10 -26 0 rrcurveto
          -92 hlineto
          -44 0 -34 -1 -27 -1 -29 -2 -33 -7 -36 -10 -37 -11 -37 -17 -31 -22 -104 -68 -69 -106 -28 -130 -6 -27 -11 -57 -13 -83 rrcurveto
          -1 -1 rlineto
          -7 -35 -49 -35 -39 0 rrcurveto
          -968 hlineto
          -48 -230 rlineto
          -331 hmoveto
          49 230 rlineto
          -85 hlineto
          -59 0 -68 -56 -12 -59 -13 -59 44 -56 59 0 rrcurveto
          376 -520 rmoveto
          49 230 rlineto
          -487 hlineto
          -59 0 -68 -57 -12 -58 -12 -59 44 -56 58 0 rrcurveto
          941 820 rmoveto
          42 196 rlineto
          12 59 -45 55 -59 0 -58 0 -68 -56 -12 -58 rrcurveto
          -42 -196 rlineto
          -140 -1200 rmoveto
          59 0 68 56 12 59 rrcurveto
          152 715 rlineto
          -230 hlineto
          -152 -715 rlineto
          -12 -59 44 -56 59 0 rrcurveto
          -141 680 rmoveto
          153 716 rlineto
          12 59 -45 55 -59 0 -58 0 -68 -56 -13 -58 rrcurveto
          -152 -716 rlineto
          -29 -680 rmoveto
          59 0 68 56 12 59 rrcurveto
          42 195 rlineto
          -230 hlineto
          -42 -195 rlineto
          -12 -59 44 -56 59 0 rrcurveto
          endchar
        </CharString>
        <CharString name="numbersign_bracketleft">
          0 -785 845 rmoveto
          48 230 rlineto
          -86 hlineto
          -30 0 -30 -11 -27 -23 -28 -23 -17 -27 -7 -31 -7 -31 6 -27 18 -23 18 -23 25 -11 31 0 rrcurveto
          60 -900 rmoveto
          31 0 30 11 27 23 28 23 17 27 7 31 rrcurveto
          41 195 rlineto
          -231 hlineto
          -41 -195 rlineto
          -7 -31 6 -27 18 -23 18 -23 25 -11 31 0 rrcurveto
          260 680 rmoveto
          152 716 rlineto
          7 31 -6 27 -18 22 -18 23 -25 11 -32 0 -31 0 -29 -11 -28 -23 -27 -22 -17 -27 -7 -31 rrcurveto
          -152 -716 rlineto
          371 -680 rmoveto
          31 0 29 11 28 23 27 23 17 27 7 31 rrcurveto
          152 715 rlineto
          -230 hlineto
          -152 -715 rlineto
          -7 -31 6 -27 18 -23 18 -23 25 -11 31 0 rrcurveto
          369 1200 rmoveto
          42 196 rlineto
          7 31 -6 27 -18 22 -17 23 -25 11 -32 0 -31 0 -29 -11 -28 -23 -27 -22 -17 -27 -7 -31 rrcurveto
          -42 -196 rlineto
          717 -300 rmoveto
          -62 -290 rlineto
          -500 hlineto
          -49 -230 rlineto
          500 hlineto
          -107 -502 rlineto
          -6 -32 5 -28 19 -23 18 -23 25 -12 33 0 rrcurveto
          456 hlineto
          32 0 29 11 28 23 27 22 17 27 7 32 6 32 -5 27 -18 22 -18 23 -24 11 -32 0 rrcurveto
          -336 hlineto
          -6 0 -2 3 1 5 rrcurveto
          322 1513 rlineto
          2 6 3 3 4 0 rrcurveto
          337 hlineto
          32 0 29 11 28 23 27 22 17 27 7 32 7 32 -6 27 -18 22 -17 23 -25 11 -32 0 rrcurveto
          -456 hlineto
          -33 0 -30 -12 -28 -23 -28 -23 -18 -28 -7 -32 rrcurveto
          -107 -502 rlineto
          -900 hlineto
          -48 -230 rlineto
          -41 -520 rmoveto
          49 230 rlineto
          -486 hlineto
          -31 0 -29 -11 -28 -23 -28 -23 -17 -27 -6 -31 -7 -31 6 -27 18 -23 18 -23 24 -11 31 0 rrcurveto
          endchar
        </CharString>
        <CharString name="numbersign_expand">
          0 414 845 rmoveto
          49 230 rlineto
          -85 hlineto
          -59 0 -68 -56 -12 -59 -13 -59 44 -56 59 0 rrcurveto
          1286 hmoveto
          49 230 rlineto
          -870 hlineto
          -49 -230 rlineto
          -40 -520 rmoveto
          49 230 rlineto
          -487 hlineto
          -59 0 -68 -57 -12 -58 -12 -59 44 -56 58 0 rrcurveto
          1686 hmoveto
          49 230 rlineto
          -870 hlineto
          -49 -230 rlineto
          125 820 rmoveto
          42 196 rlineto
          12 59 -45 55 -59 0 -58 0 -68 -56 -12 -58 rrcurveto
          -42 -196 rlineto
          -140 -1200 rmoveto
          59 0 68 56 12 59 rrcurveto
          152 715 rlineto
          -230 hlineto
          -152 -715 rlineto
          -12 -59 44 -56 59 0 rrcurveto
          -141 680 rmoveto
          153 716 rlineto
          12 59 -45 55 -59 0 -58 0 -68 -56 -13 -58 rrcurveto
          -152 -716 rlineto
          -29 -680 rmoveto
          59 0 68 56 12 59 rrcurveto
          42 195 rlineto
          -230 hlineto
          -42 -195 rlineto
          -12 -59 44 -56 59 0 rrcurveto
          endchar
        </CharString>
        <CharString name="numbersign_parenleft">
          0 -785 845 rmoveto
          48 230 rlineto
          -86 hlineto
          -30 0 -30 -11 -27 -23 -28 -23 -17 -27 -7 -31 -7 -31 6 -27 18 -23 18 -23 25 -11 31 0 rrcurveto
          60 -900 rmoveto
          31 0 30 11 27 23 28 23 17 27 7 31 rrcurveto
          41 195 rlineto
          -231 hlineto
          -41 -195 rlineto
          -7 -31 6 -27 18 -23 18 -23 25 -11 31 0 rrcurveto
          260 680 rmoveto
          152 716 rlineto
          7 31 -6 27 -18 22 -18 23 -25 11 -32 0 -31 0 -29 -11 -28 -23 -27 -22 -17 -27 -7 -31 rrcurveto
          -152 -716 rlineto
          371 -680 rmoveto
          31 0 29 11 28 23 27 23 17 27 7 31 rrcurveto
          152 715 rlineto
          -230 hlineto
          -152 -715 rlineto
          -7 -31 6 -27 18 -23 18 -23 25 -11 31 0 rrcurveto
          369 1200 rmoveto
          42 196 rlineto
          7 31 -6 27 -18 22 -17 23 -25 11 -32 0 -31 0 -29 -11 -28 -23 -27 -22 -17 -27 -7 -31 rrcurveto
          -42 -196 rlineto
          1054 -1540 rmoveto
          39 0 35 16 29 32 15 14 9 20 6 25 8 39 -9 30 -26 22 -100 79 -78 94 -59 109 -84 152 -22 177 40 202 rrcurveto
          19 90 rlineto
          39 173 97 170 154 165 103 109 118 94 132 79 36 22 22 30 8 39 5 22 -1 19 -6 16 -15 34 -28 17 -42 0 -19 0 -17 -4 -16 -9 -178 -93 -155 -119 -132 -144 -81 -89 -62 -84 -43 -78 rrcurveto
          -930 hlineto
          -48 -230 rlineto
          869 hlineto
          -16 -43 -18 -69 -20 -95 -8 -37 -6 -28 -2 -18 rrcurveto
          -461 hlineto
          -49 -230 rlineto
          499 hlineto
          4 -121 30 -117 55 -114 71 -143 104 -119 138 -93 12 -9 16 -4 19 0 rrcurveto
          -1278 720 rmoveto
          49 230 rlineto
          -486 hlineto
          -31 0 -29 -11 -28 -23 -28 -23 -17 -27 -6 -31 -7 -31 6 -27 18 -23 18 -23 24 -11 31 0 rrcurveto
          endchar
        </CharString>
        <CharString name="o">
          0 603 -54 rmoveto
          98 0 87 23 75 45 74 45 67 65 59 84 58 84 43 105 26 125 14 66 7 60 0 55 0 48 -5 44 -11 40 -48 179 -119 90 -189 0 -97 0 -86 -23 -75 -45 -75 -45 -67 -64 -59 -84 rrcurveto
          -58 -84 -42 -104 -26 -123 -15 -68 -7 -62 0 -55 0 -48 5 -44 11 -39 48 -180 119 -90 188 0 rrcurveto
          40 234 rmoveto
          -76 0 -48 21 -20 41 -21 42 -10 45 0 47 0 42 6 48 11 54 25 116 39 87 53 59 53 59 66 29 79 0 75 0 48 -21 20 -42 21 -43 10 -44 0 -48 0 -41 -6 -48 -11 -53 rrcurveto
          -50 -233 -104 -117 -160 0 rrcurveto
          endchar
        </CharString>
        <CharString name="one">
          0 995 -24 rmoveto
          30 0 28 11 27 22 33 28 18 33 3 38 0 28 -9 24 -17 19 -18 19 -24 9 -29 0 rrcurveto
          -245 hlineto
          -7 1 -4 6 0 9 171 723 86 372 0 20 0 31 -12 28 -23 23 -24 23 -31 11 -37 0 -62 0 -43 -24 -24 -48 -69 -144 -82 -75 -95 -6 -95 -6 -48 -33 0 -61 0 -68 60 -34 119 0 rrcurveto
          87 0 43 -30 0 -59 0 -24 -7 -29 -14 -34 rrcurveto
          -131 -547 rlineto
          -1 -7 -4 -5 -5 -5 -6 -5 -6 -3 -5 0 rrcurveto
          -207 hlineto
          -30 0 -31 -12 -31 -24 -31 -24 -16 -34 0 -45 0 -25 9 -21 18 -18 17 -19 23 -9 29 0 rrcurveto
          endchar
        </CharString>
        <CharString name="p">
          0 663 182 rmoveto
          -63 0 -47 22 -31 43 -27 38 -13 39 0 40 0 13 1 14 3 14 15 70 16 71 15 71 15 72 37 58 58 44 58 45 59 22 59 0 118 -2 60 -62 0 -120 0 -35 -5 -39 -9 -45 rrcurveto
          -28 -130 -45 -96 -62 -63 -55 -56 -62 -28 -67 0 rrcurveto
          -479 -694 rmoveto
          28 0 27 10 27 21 26 21 16 27 7 34 rrcurveto
          88 412 rlineto
          3 13 5 6 7 0 5 0 5 -3 6 -7 53 -51 72 -25 91 0 126 0 111 51 98 103 106 110 74 152 40 194 17 76 8 67 0 60 0 230 -114 115 -228 0 -107 0 -95 -41 -83 -81 rrcurveto
          -4 -3 -2 -1 -2 0 8 0 3 2 0 3 rrcurveto
          3 39 rlineto
          0 55 -31 27 -61 0 -31 0 -28 -10 -26 -20 -26 -20 -16 -27 -7 -34 -199 -931 -99 -470 0 -8 0 -24 8 -21 15 -17 19 -23 26 -11 31 0 rrcurveto
          endchar
        </CharString>
        <CharString name="parenleft">
          0 798 -343 rmoveto
          38 0 33 15 28 30 20 20 10 27 0 34 0 28 -11 23 -21 18 -99 79 -78 93 -58 108 -57 103 -28 114 0 125 0 60 6 63 14 65 rrcurveto
          18 90 rlineto
          40 174 97 171 156 167 103 109 118 95 133 79 44 27 22 37 0 48 0 12 -3 11 -4 10 -16 35 -29 18 -42 0 -19 0 -16 -4 -15 -8 -177 -93 -154 -118 -132 -143 -175 -194 -113 -213 -49 -232 rrcurveto
          -26 -117 -13 -101 0 -84 0 -148 31 -137 60 -126 72 -143 105 -119 138 -95 13 -9 16 -4 20 0 rrcurveto
          endchar
        </CharString>
        <CharString name="parenright">
          0 266 -343 rmoveto
          19 0 16 4 15 8 177 93 154 118 132 142 175 194 114 220 52 248 rrcurveto
          10 46 rlineto
          18 81 8 78 0 76 0 144 -31 136 -61 129 -72 144 -105 119 -138 95 -13 9 -16 4 -20 0 -40 0 -34 -16 -26 -32 -20 -23 -9 -26 0 -30 0 -29 11 -22 22 -18 98 -78 77 -94 56 -108 rrcurveto
          59 -117 29 -119 0 -121 0 -50 -5 -50 -10 -50 rrcurveto
          -18 -90 rlineto
          -46 -203 -98 -178 -150 -153 -106 -110 -120 -95 -132 -78 -44 -27 -22 -38 0 -49 0 -13 3 -11 5 -9 17 -34 28 -17 41 0 rrcurveto
          endchar
        </CharString>
        <CharString name="percent">
          0 544 889 rmoveto
          -43 0 -22 28 0 56 0 23 4 28 6 32 30 137 48 69 66 0 41 0 21 -30 0 -61 0 -29 -5 -35 -8 -41 -25 -118 -46 -59 -67 0 rrcurveto
          -31 -192 rmoveto
          99 0 83 34 68 69 69 68 45 85 21 103 12 53 5 48 0 42 0 62 -12 51 -25 40 -42 68 -72 34 -100 0 -204 0 -130 -129 -57 -259 -9 -39 -4 -36 0 -34 0 -61 14 -52 27 -43 rrcurveto
          42 -69 71 -35 99 0 rrcurveto
          -304 -571 rmoveto
          32 0 44 16 28 27 rrcurveto
          323 316 rlineto
          23 21 17 39 0 29 0 50 -45 37 -49 0 -22 0 -32 -11 -21 -17 rrcurveto
          -353 -284 rlineto
          -36 -29 -11 -37 -7 -28 rrcurveto
          -2 -20 rlineto
          0 -49 39 -60 72 0 rrcurveto
          707 613 rmoveto
          23 0 31 11 22 17 rrcurveto
          352 284 rlineto
          43 35 13 43 0 37 0 55 -43 52 -67 1 -32 0 -45 -15 -28 -28 rrcurveto
          -323 -316 rlineto
          -27 -27 -13 -34 0 -28 0 -49 41 -38 53 0 rrcurveto
          -50 -591 rmoveto
          -43 0 -22 28 0 56 0 24 4 27 6 32 30 137 48 69 67 0 41 0 20 -31 0 -61 0 -28 -4 -35 -8 -41 -26 -118 -46 -59 -67 0 rrcurveto
          -30 -192 rmoveto
          98 0 83 34 68 69 69 68 45 85 22 103 11 53 6 47 0 42 0 63 -12 51 -25 40 -42 68 -72 34 -100 0 -203 0 -131 -129 -58 -259 -8 -39 -5 -36 0 -33 0 -61 14 -52 27 -44 rrcurveto
          43 -69 71 -35 99 0 rrcurveto
          endchar
        </CharString>
        <CharString name="period">
          0 597 -54 rmoveto
          49 0 46 18 43 36 55 48 28 57 0 68 0 35 -10 31 -20 26 -29 39 -41 20 -51 0 -52 0 -47 -18 -43 -36 -57 -48 -28 -57 0 -66 0 -36 11 -32 21 -28 29 -38 42 -19 54 0 rrcurveto
          endchar
        </CharString>
        <CharString name="period_period">
          0 397 -54 rmoveto
          49 0 46 18 43 36 55 48 28 57 0 68 0 35 -10 31 -20 26 -29 39 -41 20 -51 0 -52 0 -47 -18 -43 -36 -57 -48 -28 -57 0 -66 0 -36 11 -32 21 -28 29 -38 42 -19 54 0 rrcurveto
          -800 hmoveto
          49 0 46 18 43 36 55 48 28 57 0 68 0 35 -10 31 -20 26 -29 39 -41 20 -51 0 -52 0 -47 -18 -43 -36 -57 -48 -28 -57 0 -66 0 -36 11 -32 21 -28 29 -38 42 -19 54 0 rrcurveto
          endchar
        </CharString>
        <CharString name="period_period_period">
          0 97 -54 rmoveto
          49 0 46 18 43 36 55 48 28 57 0 68 0 35 -10 31 -20 26 -29 39 -41 20 -51 0 -52 0 -47 -18 -43 -36 -57 -48 -28 -57 0 -66 0 -36 11 -32 21 -28 29 -38 42 -19 54 0 rrcurveto
          -700 hmoveto
          49 0 46 18 43 36 55 48 28 57 0 68 0 35 -10 31 -20 26 -29 39 -41 20 -51 0 -52 0 -47 -18 -43 -36 -57 -48 -28 -57 0 -66 0 -36 11 -32 21 -28 29 -38 42 -19 54 0 rrcurveto
          -700 hmoveto
          49 0 46 18 43 36 55 48 28 57 0 68 0 35 -10 31 -20 26 -29 39 -41 20 -51 0 -52 0 -47 -18 -43 -36 -57 -48 -28 -57 0 -66 0 -36 11 -32 21 -28 29 -38 42 -19 54 0 rrcurveto
          endchar
        </CharString>
        <CharString name="placeholder">
          0 endchar
        </CharString>
        <CharString name="plus">
          0 625 95 rmoveto
          30 0 29 11 26 21 26 22 16 26 6 30 rrcurveto
          49 231 rlineto
          231 hlineto
          30 0 29 11 25 21 34 28 17 34 0 40 0 22 -7 19 -13 18 -19 23 -26 12 -32 0 rrcurveto
          -220 hlineto
          33 156 16 82 0 8 0 22 -7 19 -13 18 -19 23 -26 12 -32 0 -30 0 -28 -11 -26 -21 -26 -21 -16 -26 -6 -30 rrcurveto
          -49 -231 rlineto
          -231 hlineto
          -30 0 -29 -11 -25 -21 -34 -28 -17 -34 0 -40 0 -22 7 -19 13 -17 19 -24 26 -12 32 0 rrcurveto
          220 hlineto
          -33 -156 -16 -82 0 -8 0 -22 6 -19 14 -18 18 -24 25 -12 33 0 rrcurveto
          endchar
        </CharString>
        <CharString name="plus_plus">
          0 505 95 rmoveto
          30 0 29 11 26 21 26 22 16 26 6 30 rrcurveto
          49 231 rlineto
          231 hlineto
          30 0 29 11 25 21 34 28 17 34 0 40 0 22 -7 19 -13 18 -19 23 -26 12 -32 0 rrcurveto
          -220 hlineto
          33 156 16 82 0 8 0 22 -7 19 -13 18 -19 23 -26 12 -32 0 -30 0 -28 -11 -26 -21 -26 -21 -16 -26 -6 -30 rrcurveto
          -49 -231 rlineto
          -731 hlineto
          33 156 16 82 0 8 0 22 -7 19 -13 18 -19 23 -26 12 -32 0 -30 0 -28 -11 -26 -21 -26 -21 -16 -26 -6 -30 rrcurveto
          -49 -231 rlineto
          -231 hlineto
          -30 0 -29 -11 -25 -21 -34 -28 -17 -34 0 -40 0 -22 7 -19 13 -17 19 -24 26 -12 32 0 rrcurveto
          220 hlineto
          -33 -156 -16 -82 0 -8 0 -22 6 -19 14 -18 18 -24 25 -12 33 0 30 0 29 11 26 21 26 22 16 26 6 30 rrcurveto
          49 231 rlineto
          731 hlineto
          -33 -156 -16 -82 0 -8 0 -22 6 -19 14 -18 18 -24 25 -12 33 0 rrcurveto
          endchar
        </CharString>
        <CharString name="plus_plus_plus">
          0 385 95 rmoveto
          30 0 29 11 26 21 26 22 16 26 6 30 rrcurveto
          49 231 rlineto
          231 hlineto
          30 0 29 11 25 21 34 28 17 34 0 40 0 22 -7 19 -13 18 -19 23 -26 12 -32 0 rrcurveto
          -220 hlineto
          33 156 16 82 0 8 0 22 -7 19 -13 18 -19 23 -26 12 -32 0 -30 0 -28 -11 -26 -21 -26 -21 -16 -26 -6 -30 rrcurveto
          -49 -231 rlineto
          -731 hlineto
          33 156 16 82 0 8 0 22 -7 19 -13 18 -19 23 -26 12 -32 0 -30 0 -28 -11 -26 -21 -26 -21 -16 -26 -6 -30 rrcurveto
          -49 -231 rlineto
          -731 hlineto
          33 156 16 82 0 8 0 22 -7 19 -13 18 -19 23 -26 12 -32 0 -30 0 -28 -11 -26 -21 -26 -21 -16 -26 -6 -30 rrcurveto
          -49 -231 rlineto
          -231 hlineto
          -30 0 -29 -11 -25 -21 -34 -28 -17 -34 0 -40 0 -22 7 -19 13 -17 19 -24 26 -12 32 0 rrcurveto
          220 hlineto
          -33 -156 -16 -82 0 -8 0 -22 6 -19 14 -18 18 -24 25 -12 33 0 30 0 29 11 26 21 26 22 16 26 6 30 rrcurveto
          49 231 rlineto
          731 hlineto
          -33 -156 -16 -82 0 -8 0 -22 6 -19 14 -18 18 -24 25 -12 33 0 30 0 29 11 26 21 26 22 16 26 6 30 rrcurveto
          49 231 rlineto
          731 hlineto
          -33 -156 -16 -82 0 -8 0 -22 6 -19 14 -18 18 -24 25 -12 33 0 rrcurveto
          endchar
        </CharString>
        <CharString name="q">
          0 612 185 rmoveto
          -118 0 -59 56 0 113 0 51 9 66 17 81 44 206 101 104 159 4 58 0 45 -18 32 -36 32 -37 16 -39 0 -44 0 -18 -2 -19 -4 -21 rrcurveto
          -45 -213 rlineto
          -13 -59 -36 -55 -60 -53 -53 -46 -58 -23 -65 0 rrcurveto
          296 -704 rmoveto
          75 0 61 23 47 46 13 13 7 18 0 21 0 16 -5 15 -11 15 -11 15 -16 8 -22 0 -13 0 -13 -3 -14 -5 -14 -5 -9 -3 -5 0 -9 0 -4 4 0 7 0 3 49 233 99 462 rrcurveto
          90 423 45 216 0 9 0 23 -7 19 -14 16 -18 23 -26 11 -33 0 -66 0 -41 -30 -15 -59 -7 -25 -4 -12 0 0 rrcurveto
          1 hlineto
          -51 84 -75 42 -99 0 -289 0 -184 -188 -79 -375 -20 -90 -9 -79 0 -68 0 -90 17 -72 34 -54 60 -95 93 -48 128 0 90 0 80 24 71 49 12 9 9 4 6 0 0 -5 -23 -110 -46 -215 rrcurveto
          -5 -24 -3 -22 0 -20 0 -103 58 -51 115 0 rrcurveto
          endchar
        </CharString>
        <CharString name="question">
          0 698 438 rmoveto
          66 0 44 31 20 62 21 62 57 67 92 73 114 93 74 120 31 149 9 39 4 37 0 34 0 69 -17 59 -33 49 -52 75 -90 37 -130 0 -183 0 -136 -78 -89 -155 -25 -43 -13 -39 0 -33 rrcurveto
          0 -57 32 -29 64 -1 21 0 20 5 19 11 19 10 23 26 28 39 52 76 60 38 68 0 93 -1 46 -37 0 -74 0 -97 -50 -86 -100 -76 -73 -57 -58 -51 -41 -43 -41 -43 -27 -53 -14 -65 rrcurveto
          -4 -17 -2 -15 0 -14 0 -65 34 -32 67 0 rrcurveto
          -101 -492 rmoveto
          49 0 46 18 43 36 55 48 28 57 0 68 0 35 -10 31 -20 26 -29 39 -41 20 -51 0 -52 0 -47 -18 -43 -36 -57 -48 -28 -57 0 -66 0 -36 11 -32 21 -28 29 -38 42 -19 54 0 rrcurveto
          endchar
        </CharString>
        <CharString name="question_question">
          0 558 438 rmoveto
          66 0 44 31 20 62 21 62 57 67 92 73 114 93 74 120 31 149 9 39 4 37 0 34 0 69 -17 59 -33 49 -52 75 -90 37 -130 0 -183 0 -136 -78 -89 -155 -25 -43 -13 -39 0 -33 rrcurveto
          0 -57 32 -29 64 -1 21 0 20 5 19 11 19 10 23 26 28 39 52 76 60 38 68 0 93 -1 46 -37 0 -74 0 -97 -50 -86 -100 -76 -73 -57 -58 -51 -41 -43 -41 -43 -27 -53 -14 -65 rrcurveto
          -4 -17 -2 -15 0 -14 0 -65 34 -32 67 0 rrcurveto
          -101 -492 rmoveto
          49 0 46 18 43 36 55 48 28 57 0 68 0 35 -10 31 -20 26 -29 39 -41 20 -51 0 -52 0 -47 -18 -43 -36 -57 -48 -28 -57 0 -66 0 -36 11 -32 21 -28 29 -38 42 -19 54 0 rrcurveto
          -819 492 rmoveto
          66 0 44 31 20 62 21 62 57 67 92 73 114 93 74 120 31 149 9 39 4 37 0 34 0 69 -17 59 -33 49 -52 75 -90 37 -130 0 -183 0 -136 -78 -89 -155 -25 -43 -13 -39 0 -33 rrcurveto
          0 -57 32 -29 64 -1 21 0 20 5 19 11 19 10 23 26 28 39 52 76 60 38 68 0 93 -1 46 -37 0 -74 0 -97 -50 -86 -100 -76 -73 -57 -58 -51 -41 -43 -41 -43 -27 -53 -14 -65 rrcurveto
          -4 -17 -2 -15 0 -14 0 -65 34 -32 67 0 rrcurveto
          -101 -492 rmoveto
          49 0 46 18 43 36 55 48 28 57 0 68 0 35 -10 31 -20 26 -29 39 -41 20 -51 0 -52 0 -47 -18 -43 -36 -57 -48 -28 -57 0 -66 0 -36 11 -32 21 -28 29 -38 42 -19 54 0 rrcurveto
          endchar
        </CharString>
        <CharString name="quotedbl">
          0 647 946 rmoveto
          58 0 63 53 11 56 rrcurveto
          67 311 2 20 rlineto
          0 51 -44 47 -53 0 -57 0 -63 -53 -12 -56 rrcurveto
          -67 -311 -2 -20 rlineto
          0 -51 44 -47 53 0 rrcurveto
          319 hmoveto
          58 0 63 53 11 56 rrcurveto
          67 311 2 20 rlineto
          0 51 -44 47 -53 0 -57 0 -63 -53 -12 -56 rrcurveto
          -67 -311 -2 -20 rlineto
          0 -51 44 -47 53 0 rrcurveto
          endchar
        </CharString>
        <CharString name="quotesingle">
          0 807 946 rmoveto
          58 0 63 53 11 56 rrcurveto
          67 311 2 20 rlineto
          0 51 -44 47 -53 0 -57 0 -63 -53 -12 -56 rrcurveto
          -67 -311 -2 -20 rlineto
          0 -51 44 -47 53 0 rrcurveto
          endchar
        </CharString>
        <CharString name="r">
          0 286 -54 rmoveto
          30 0 27 10 26 21 25 20 16 27 7 32 rrcurveto
          110 519 rlineto
          16 75 51 67 88 61 87 61 74 31 62 0 78 0 39 -30 0 -60 0 -22 -5 -18 -11 -13 -10 -13 -13 -8 -16 -3 -51 -9 -26 -24 0 -38 0 -47 26 -24 53 0 99 0 72 32 46 64 rrcurveto
          38 56 20 65 1 76 0 70 -18 54 -37 38 -53 59 -76 29 -99 0 -123 0 -120 -53 -118 -107 rrcurveto
          -9 -9 rlineto
          7 0 4 -2 0 -5 0 2 2 12 5 22 5 23 2 15 0 8 0 22 -7 20 -14 17 -19 23 -27 12 -34 0 -30 0 -27 -10 -25 -21 -24 -21 -16 -26 -7 -31 -134 -630 -67 -319 0 -8 rrcurveto
          0 -22 7 -19 12 -16 18 -23 27 -12 36 0 rrcurveto
          endchar
        </CharString>
        <CharString name="referencemark">
          0 818 997 rmoveto
          40 0 37 14 34 28 46 38 23 46 0 56 0 29 -9 25 -17 21 -24 30 -33 15 -43 0 -40 0 -37 -14 -34 -27 -45 -37 -23 -46 0 -55 0 -29 9 -26 17 -22 25 -31 33 -15 41 0 rrcurveto
          -637 -866 rmoveto
          30 0 28 12 26 24 rrcurveto
          456 376 294 -374 rlineto
          21 -25 24 -12 30 0 28 0 27 11 28 23 34 29 18 32 0 36 0 21 -8 21 -15 19 rrcurveto
          -295 371 458 379 rlineto
          33 27 17 32 0 36 0 21 -8 20 -14 19 -20 24 -25 12 -30 0 -28 0 -26 -10 -26 -21 rrcurveto
          -457 -378 -294 374 rlineto
          -19 23 -25 12 -31 0 -27 0 -27 -11 -27 -22 -34 -28 -18 -31 0 -35 0 -24 8 -20 17 -18 97 -125 97 -124 97 -124 rrcurveto
          -455 -377 rlineto
          -36 -27 -18 -32 0 -37 0 -21 7 -20 15 -19 18 -26 25 -13 30 0 rrcurveto
          93 416 rmoveto
          40 0 37 14 34 28 46 38 23 46 0 56 0 29 -9 25 -17 21 -24 30 -33 15 -43 0 -39 0 -36 -14 -34 -27 -45 -37 -23 -46 0 -55 0 -29 9 -26 17 -22 24 -31 33 -15 40 0 rrcurveto
          893 hmoveto
          39 0 37 14 34 28 46 38 23 46 0 56 0 29 -9 25 -17 21 -24 30 -33 15 -42 0 -40 0 -36 -14 -34 -27 -45 -37 -23 -46 0 -55 0 -29 9 -26 17 -22 24 -31 33 -15 41 0 rrcurveto
          -540 -446 rmoveto
          40 0 37 14 34 28 46 38 23 46 0 54 0 29 -9 25 -17 21 -24 30 -33 15 -43 0 -40 0 -37 -14 -34 -27 -45 -37 -22 -45 0 -55 0 -28 9 -26 17 -22 24 -31 33 -15 41 0 rrcurveto
          endchar
        </CharString>
        <CharString name="right_arrow_double">
          0 383 -23 rmoveto
          26 0 33 12 25 19 rrcurveto
          554 458 rlineto
          25 21 19 29 5 28 2 7 1 9 0 7 0 21 -8 23 -13 17 rrcurveto
          -360 458 rlineto
          -20 23 -29 12 -27 0 -58 0 -62 -51 -12 -58 -2 -7 -1 -9 0 -8 0 -20 7 -24 12 -16 rrcurveto
          44 -54 -1 4 -1 -6 rlineto
          -1 -6 -2 -2 -6 0 rrcurveto
          -1294 hlineto
          -56 0 -65 -49 -13 -61 rrcurveto
          -2 -20 rlineto
          0 -53 46 -45 51 0 rrcurveto
          1343 hlineto
          27 0 35 13 23 18 rrcurveto
          40 34 rlineto
          4 3 0 0 4 0 rrcurveto
          1 hlineto
          117 -149 rlineto
          -2 vlineto
          0 -2 -1 -2 -4 -4 rrcurveto
          -178 -146 rlineto
          -4 -3 -1 0 -4 0 rrcurveto
          -1 hlineto
          -25 33 rlineto
          -18 23 -31 13 -29 0 rrcurveto
          -1344 hlineto
          -56 0 -65 -49 -11 -60 -2 -8 -1 -8 0 -8 0 -51 45 -44 51 0 rrcurveto
          1296 hlineto
          1 0 0 0 0 1 rrcurveto
          -1 1 rlineto
          -1 0 1 -2 -1 -3 0 -1 0 0 -3 -3 rrcurveto
          -70 -58 rlineto
          -37 -31 -10 -25 -4 -42 0 -52 44 -45 53 0 rrcurveto
          endchar
        </CharString>
        <CharString name="right_arrow_double_long">
          0 383 -23 rmoveto
          26 0 33 12 25 19 rrcurveto
          554 458 rlineto
          25 21 19 29 5 28 2 7 1 9 0 7 0 21 -8 23 -13 17 rrcurveto
          -360 458 rlineto
          -20 23 -29 12 -27 0 -58 0 -62 -51 -12 -58 -2 -7 -1 -9 0 -8 0 -20 7 -24 12 -16 rrcurveto
          44 -54 -1 4 -1 -6 rlineto
          -1 -6 -2 -2 -6 0 rrcurveto
          -2494 hlineto
          -56 0 -65 -49 -13 -61 rrcurveto
          -2 -20 rlineto
          0 -53 46 -45 51 0 rrcurveto
          2543 hlineto
          27 0 35 13 23 18 rrcurveto
          40 34 rlineto
          4 3 0 0 4 0 rrcurveto
          1 hlineto
          117 -149 rlineto
          -2 vlineto
          0 -2 -1 -2 -4 -4 rrcurveto
          -178 -146 rlineto
          -4 -3 -1 0 -4 0 rrcurveto
          -1 hlineto
          -25 33 rlineto
          -18 23 -31 13 -29 0 rrcurveto
          -2544 hlineto
          -56 0 -65 -49 -11 -60 -2 -8 -1 -8 0 -8 0 -51 45 -44 51 0 rrcurveto
          2496 hlineto
          1 0 0 0 0 1 rrcurveto
          -1 1 rlineto
          -1 0 1 -2 -1 -3 0 -1 0 0 -3 -3 rrcurveto
          -70 -58 rlineto
          -37 -31 -10 -25 -4 -42 0 -52 44 -45 53 0 rrcurveto
          endchar
        </CharString>
        <CharString name="right_arrow_single">
          0 383 -23 rmoveto
          25 0 30 8 28 22 rrcurveto
          555 458 rlineto
          25 20 18 31 5 27 2 8 1 9 0 7 0 20 -7 22 -13 18 rrcurveto
          -360 459 rlineto
          -18 22 -31 13 -27 0 -55 0 -65 -48 -12 -62 -2 -8 -1 -8 0 -8 0 -20 7 -23 12 -16 rrcurveto
          89 -114 rlineto
          -2 vlineto
          -1 -3 0 -2 -4 -2 rrcurveto
          -138 -114 rlineto
          -19 -16 -30 -11 -21 0 rrcurveto
          -1180 hlineto
          -59 0 -62 -52 -11 -57 -2 -8 -1 -9 0 -7 0 -51 44 -44 53 0 rrcurveto
          1180 hlineto
          20 0 22 -10 10 -13 rrcurveto
          89 -117 -1 -4 rlineto
          0 -3 0 -1 -4 -2 rrcurveto
          -137 -113 rlineto
          -27 -22 -16 -29 -5 -26 -2 -8 -1 -9 0 -8 0 -51 43 -43 54 0 rrcurveto
          289 475 rmoveto
          -1 hlineto
          -71 88 rlineto
          -2 vlineto
          1 5 rlineto
          0 3 0 0 5 3 rrcurveto
          107 90 rlineto
          4 3 1 0 4 0 rrcurveto
          2 hlineto
          70 -89 -1 -2 rlineto
          0 -2 -1 -1 -5 -4 rrcurveto
          -106 -89 rlineto
          -4 -3 -1 0 -4 0 rrcurveto
          endchar
        </CharString>
        <CharString name="right_arrow_single_long">
          0 383 -23 rmoveto
          25 0 30 8 28 22 rrcurveto
          555 458 rlineto
          25 20 18 31 5 27 2 8 1 9 0 7 0 20 -7 22 -13 18 rrcurveto
          -360 459 rlineto
          -18 22 -31 13 -27 0 -55 0 -65 -48 -12 -62 -2 -8 -1 -8 0 -8 0 -20 7 -23 12 -16 rrcurveto
          89 -114 rlineto
          -2 vlineto
          -1 -3 0 -2 -4 -2 rrcurveto
          -138 -114 rlineto
          -19 -16 -30 -11 -21 0 rrcurveto
          -2380 hlineto
          -59 0 -62 -52 -11 -57 -2 -8 -1 -9 0 -7 0 -51 44 -44 53 0 rrcurveto
          2380 hlineto
          20 0 22 -10 10 -13 rrcurveto
          89 -117 -1 -4 rlineto
          0 -3 0 -1 -4 -2 rrcurveto
          -137 -113 rlineto
          -27 -22 -16 -29 -5 -26 -2 -8 -1 -9 0 -8 0 -51 43 -43 54 0 rrcurveto
          289 475 rmoveto
          -1 hlineto
          -71 88 rlineto
          -2 vlineto
          1 5 rlineto
          0 3 0 0 5 3 rrcurveto
          107 90 rlineto
          4 3 1 0 4 0 rrcurveto
          2 hlineto
          70 -89 -1 -2 rlineto
          0 -2 -1 -1 -5 -4 rrcurveto
          -106 -89 rlineto
          -4 -3 -1 0 -4 0 rrcurveto
          endchar
        </CharString>
        <CharString name="s">
          0 594 -54 rmoveto
          125 0 112 31 97 60 97 61 60 84 23 108 5 24 3 23 0 23 0 66 -24 55 -49 42 -59 54 -97 42 -135 28 -80 15 -52 16 -22 15 -22 16 -11 16 0 17 0 37 22 32 45 24 rrcurveto
          39 23 51 11 63 0 77 0 50 -20 23 -40 rrcurveto
          1 -2 rlineto
          0 5 -4 3 -7 0 -16 0 -16 2 -19 4 -45 0 -23 -25 0 -48 0 -51 56 -25 112 0 33 0 38 9 42 17 72 30 36 50 0 70 0 54 -26 52 -50 49 -68 67 -99 34 -130 0 rrcurveto
          -123 0 -107 -31 -92 -64 -121 -83 -61 -102 0 -120 0 -147 120 -97 240 -49 125 -22 62 -36 0 -48 0 -34 -21 -30 -44 -26 -40 -24 -56 -12 -70 0 -120 0 -64 35 -9 68 -19 59 -32 29 -48 0 rrcurveto
          -34 0 -30 -12 -27 -26 -36 -32 -19 -37 0 -43 0 -11 2 -12 3 -12 19 -72 42 -57 65 -44 66 -44 89 -22 112 0 rrcurveto
          endchar
        </CharString>
        <CharString name="section">
          0 488 -320 rmoveto
          146 0 121 29 95 57 95 58 60 87 24 115 5 23 3 22 0 22 0 138 -98 101 -196 64 -86 28 -63 27 -41 27 -40 28 -20 33 0 40 0 70 40 68 79 65 -63 16 -56 34 -47 54 rrcurveto
          -129 -106 -64 -121 0 -135 0 -76 24 -61 49 -47 49 -47 76 -43 103 -38 96 -28 66 -31 36 -33 21 -17 11 -22 0 -28 0 -9 -1 -10 -2 -10 -19 -87 -85 -45 -152 -4 -104 0 -69 9 -34 18 rrcurveto
          -21 12 -23 6 -25 0 -68 0 -42 -35 -14 -69 -2 -7 -1 -7 0 -6 0 -86 122 -43 244 0 rrcurveto
          522 630 rmoveto
          126 116 63 117 0 120 0 77 -26 62 -52 49 -41 45 -85 46 -129 46 -73 25 -47 22 -22 21 -21 21 -11 22 0 25 0 57 24 41 50 26 42 21 48 11 54 0 83 0 72 -11 63 -23 rrcurveto
          10 -3 11 -2 11 0 62 0 41 34 22 69 2 9 1 9 0 8 0 16 -3 15 -8 14 -12 20 -18 14 -24 6 -95 23 -92 12 -89 0 -135 0 -111 -30 -86 -61 -86 -61 -55 -83 -22 -105 rrcurveto
          -5 -22 -2 -21 0 -20 0 -54 15 -49 31 -45 rrcurveto
          20 -27 rlineto
          27 -37 49 -31 69 -26 rrcurveto
          90 -37 rlineto
          71 -26 53 -26 35 -25 36 -25 18 -30 0 -36 0 -69 -39 -66 -78 -65 76 -26 56 -35 36 -42 rrcurveto
          endchar
        </CharString>
        <CharString name="semicolon">
          0 284 -437 rmoveto
          157 16 131 61 105 105 105 106 52 122 0 139 0 63 -15 51 -31 39 -31 39 -41 20 -51 0 -67 0 -53 -24 -40 -49 -35 -39 -18 -43 0 -50 0 -39 12 -34 23 -29 23 -29 12 -27 0 -25 rrcurveto
          0 -36 -23 -34 -44 -30 -39 -27 -48 -17 -59 -7 -68 -8 -42 -39 -16 -70 rrcurveto
          -1 -15 rlineto
          0 -60 34 -30 68 0 rrcurveto
          480 1164 rmoveto
          49 0 46 18 42 36 56 47 28 57 0 69 0 35 -10 31 -20 27 -29 38 -41 19 -51 0 -52 0 -47 -18 -43 -36 -57 -47 -28 -57 0 -67 0 -36 11 -31 21 -28 29 -38 42 -19 54 0 rrcurveto
          endchar
        </CharString>
        <CharString name="seven">
          -10 425 -54 rmoveto
          45 0 40 22 33 45 rrcurveto
          453 678 rlineto
          96 hlineto
          58 0 37 10 18 19 17 19 9 22 0 24 0 24 -11 21 -23 17 -23 18 -34 9 -44 0 rrcurveto
          22 hlineto
          203 304 rlineto
          10 15 8 22 6 28 4 15 2 16 0 18 0 38 -15 33 -31 28 -24 22 -33 11 -43 0 rrcurveto
          -702 hlineto
          -41 0 -34 -13 -25 -26 -25 -25 -12 -33 0 -38 0 -28 10 -22 19 -19 19 -18 23 -9 27 0 rrcurveto
          587 hlineto
          14 0 7 2 0 3 rrcurveto
          1 2 -219 -326 rlineto
          -187 hlineto
          -28 0 -31 -8 -32 -15 -32 -15 -16 -25 0 -33 0 -31 11 -22 23 -14 23 -13 25 -7 26 0 rrcurveto
          94 hlineto
          -392 -582 rlineto
          -11 -22 -6 -23 0 -23 0 -28 10 -23 19 -18 19 -17 25 -9 31 0 rrcurveto
          endchar
        </CharString>
        <CharString name="six">
          0 655 178 rmoveto
          -55 0 -42 20 -28 39 -28 39 -14 55 0 70 0 83 17 90 34 99 100 23 78 11 57 0 53 -1 36 -2 19 -4 58 -12 30 -56 1 -100 0 -25 -4 -29 -7 -30 -18 -78 -35 -64 -51 -51 rrcurveto
          -52 -51 -67 -26 -82 0 rrcurveto
          -50 -232 rmoveto
          102 0 91 23 81 47 80 47 68 63 54 78 85 122 42 132 0 142 -5 201 -105 108 -205 16 -28 2 -28 1 -28 0 -63 0 -53 -4 -41 -8 74 131 107 99 139 70 50 26 52 20 55 13 rrcurveto
          64 15 43 17 22 21 23 21 11 22 0 23 0 11 -4 11 -8 9 -19 19 -23 10 -27 0 -225 -3 -196 -81 -167 -156 -111 -98 -86 -128 -64 -158 -23 -11 -23 -15 -22 -17 -86 -65 -43 -52 0 -39 rrcurveto
          0 -34 19 -17 38 0 26 0 21 4 17 7 -21 -78 -10 -86 0 -94 0 -258 117 -129 233 0 rrcurveto
          endchar
        </CharString>
        <CharString name="slash">
          0 198 -224 rmoveto
          39 0 50 27 24 38 rrcurveto
          1065 1622 rlineto
          14 20 8 28 0 21 0 32 -20 38 -32 15 -13 6 -17 4 -15 0 -40 0 -49 -27 -25 -37 rrcurveto
          -1065 -1623 rlineto
          -16 -27 -2 -9 -3 -29 0 -35 20 -37 31 -16 13 -7 18 -4 15 0 rrcurveto
          endchar
        </CharString>
        <CharString name="slash_asterisk">
          0 -802 -224 rmoveto
          39 0 50 27 24 38 rrcurveto
          1065 1622 rlineto
          14 20 8 28 0 21 0 32 -20 38 -32 15 -13 6 -17 4 -15 0 -40 0 -49 -27 -25 -37 rrcurveto
          -1065 -1623 rlineto
          -16 -27 -2 -9 -3 -29 0 -35 20 -37 31 -16 13 -7 18 -4 15 0 rrcurveto
          1525 781 rmoveto
          58 0 63 52 12 57 rrcurveto
          40 188 139 -92 rlineto
          16 -11 22 -4 17 0 72 0 64 68 0 64 0 30 -16 33 -26 16 rrcurveto
          -134 89 180 93 rlineto
          46 23 30 51 0 44 0 49 -43 45 -54 0 -17 0 -22 -4 -19 -10 rrcurveto
          -171 -87 38 173 2 21 rlineto
          0 51 -44 46 -53 0 -59 0 -62 -52 -11 -57 rrcurveto
          -41 -188 -140 92 rlineto
          -15 11 -21 4 -18 0 -72 0 -64 -68 0 -65 0 -29 15 -33 26 -16 rrcurveto
          134 -88 -179 -93 rlineto
          -50 -25 -22 -41 -5 -50 0 -51 44 -46 54 0 17 0 22 4 18 10 rrcurveto
          172 88 -36 -173 rlineto
          -2 -8 -1 -9 0 -7 0 -50 42 -45 54 0 rrcurveto
          endchar
        </CharString>
        <CharString name="slash_asterisk_asterisk">
          0 523 557 rmoveto
          58 0 63 52 12 57 rrcurveto
          40 188 139 -92 rlineto
          16 -11 22 -4 17 0 72 0 64 68 0 64 0 30 -16 33 -26 16 rrcurveto
          -134 89 180 93 rlineto
          46 23 30 51 0 44 0 49 -43 45 -54 0 -17 0 -22 -4 -19 -10 rrcurveto
          -171 -87 38 173 2 21 rlineto
          0 51 -44 46 -53 0 -59 0 -62 -52 -11 -57 rrcurveto
          -41 -188 -140 92 rlineto
          -15 11 -21 4 -18 0 -72 0 -64 -68 0 -65 0 -29 15 -33 26 -16 rrcurveto
          134 -88 -179 -93 rlineto
          -50 -25 -22 -41 -5 -50 0 -51 44 -46 54 0 17 0 22 4 18 10 rrcurveto
          172 88 -36 -173 rlineto
          -2 -8 -1 -9 0 -7 0 -50 42 -45 54 0 rrcurveto
          -1000 hmoveto
          58 0 63 52 12 57 rrcurveto
          40 188 139 -92 rlineto
          16 -11 22 -4 17 0 72 0 64 68 0 64 0 30 -16 33 -26 16 rrcurveto
          -134 89 180 93 rlineto
          46 23 30 51 0 44 0 49 -43 45 -54 0 -17 0 -22 -4 -19 -10 rrcurveto
          -171 -87 38 173 2 21 rlineto
          0 51 -44 46 -53 0 -59 0 -62 -52 -11 -57 rrcurveto
          -41 -188 -140 92 rlineto
          -15 11 -21 4 -18 0 -72 0 -64 -68 0 -65 0 -29 15 -33 26 -16 rrcurveto
          134 -88 -179 -93 rlineto
          -50 -25 -22 -41 -5 -50 0 -51 44 -46 54 0 17 0 22 4 18 10 rrcurveto
          172 88 -36 -173 rlineto
          -2 -8 -1 -9 0 -7 0 -50 42 -45 54 0 rrcurveto
          -1525 -781 rmoveto
          39 0 50 27 24 38 rrcurveto
          1065 1622 rlineto
          14 20 8 28 0 21 0 32 -20 38 -32 15 -13 6 -17 4 -15 0 -40 0 -49 -27 -25 -37 rrcurveto
          -1065 -1623 rlineto
          -16 -27 -2 -9 -3 -29 0 -35 20 -37 31 -16 13 -7 18 -4 15 0 rrcurveto
          endchar
        </CharString>
        <CharString name="slash_greater">
          0 224 1179 rmoveto
          187 285 rlineto
          15 23 7 22 0 23 0 40 -17 28 -35 17 -15 7 -15 3 -15 0 -21 0 -20 -6 -21 -11 -21 -11 -18 -16 -13 -20 rrcurveto
          -1165 -1776 rlineto
          -15 -23 -7 -22 0 -22 0 -41 18 -29 35 -17 15 -7 14 -3 15 0 21 0 21 6 21 12 21 11 16 16 13 20 rrcurveto
          844 1286 711 -420 rlineto
          -1 -2 -1 -2 0 0 -1 -1 -3 -2 -3 -1 rrcurveto
          -528 -254 rlineto
          -20 -10 -18 -14 -15 -18 -15 -19 -10 -19 -5 -21 rrcurveto
          -2 -20 rlineto
          0 -25 10 -23 19 -20 19 -20 23 -10 26 0 7 0 9 1 10 2 9 2 9 3 8 3 rrcurveto
          769 363 rlineto
          43 21 27 33 11 44 1 9 1 8 0 7 0 16 -4 16 -8 15 -9 15 -11 12 -15 9 rrcurveto
          endchar
        </CharString>
        <CharString name="slash_slash">
          0 48 -224 rmoveto
          39 0 50 27 24 38 rrcurveto
          1065 1622 rlineto
          14 20 8 28 0 21 0 32 -20 38 -32 15 -13 6 -17 4 -15 0 -40 0 -49 -27 -25 -37 rrcurveto
          -1065 -1623 rlineto
          -16 -27 -2 -9 -3 -29 0 -35 20 -37 31 -16 13 -7 18 -4 15 0 rrcurveto
          -900 hmoveto
          39 0 50 27 24 38 rrcurveto
          1065 1622 rlineto
          14 20 8 28 0 21 0 32 -20 38 -32 15 -13 6 -17 4 -15 0 -40 0 -49 -27 -25 -37 rrcurveto
          -1065 -1623 rlineto
          -16 -27 -2 -9 -3 -29 0 -35 20 -37 31 -16 13 -7 18 -4 15 0 rrcurveto
          endchar
        </CharString>
        <CharString name="slash_slash_slash">
          0 -102 -224 rmoveto
          39 0 50 27 24 38 rrcurveto
          1065 1622 rlineto
          14 20 8 28 0 21 0 32 -20 38 -32 15 -13 6 -17 4 -15 0 -40 0 -49 -27 -25 -37 rrcurveto
          -1065 -1623 rlineto
          -16 -27 -2 -9 -3 -29 0 -35 20 -37 31 -16 13 -7 18 -4 15 0 rrcurveto
          -900 hmoveto
          39 0 50 27 24 38 rrcurveto
          1065 1622 rlineto
          14 20 8 28 0 21 0 32 -20 38 -32 15 -13 6 -17 4 -15 0 -40 0 -49 -27 -25 -37 rrcurveto
          -1065 -1623 rlineto
          -16 -27 -2 -9 -3 -29 0 -35 20 -37 31 -16 13 -7 18 -4 15 0 rrcurveto
          -900 hmoveto
          39 0 50 27 24 38 rrcurveto
          1065 1622 rlineto
          14 20 8 28 0 21 0 32 -20 38 -32 15 -13 6 -17 4 -15 0 -40 0 -49 -27 -25 -37 rrcurveto
          -1065 -1623 rlineto
          -16 -27 -2 -9 -3 -29 0 -35 20 -37 31 -16 13 -7 18 -4 15 0 rrcurveto
          endchar
        </CharString>
        <CharString name="space">
          0 endchar
        </CharString>
        <CharString name="t">
          0 580 -55 rmoveto
          90 0 80 23 70 47 70 47 86 79 100 109 14 15 7 19 0 25 0 21 -8 18 -16 17 -16 16 -20 8 -25 0 -23 0 -20 -7 -15 -15 -65 -63 -53 -44 -41 -27 -42 -26 -39 -13 -38 0 rrcurveto
          -26 0 -13 18 0 37 0 31 14 73 29 116 rrcurveto
          82 345 rlineto
          4 18 11 9 18 0 rrcurveto
          279 hlineto
          32 0 30 11 27 21 35 29 17 36 0 44 0 21 -6 19 -13 16 -19 25 -27 12 -33 0 rrcurveto
          -279 hlineto
          -10 0 -5 2 0 3 0 2 6 25 11 48 19 82 10 46 1 9 0 24 -7 21 -15 17 -19 21 -25 11 -32 0 -30 0 -28 -10 -27 -21 -26 -21 -17 -27 -7 -32 rrcurveto
          -42 -175 rlineto
          -4 -17 -10 -8 -15 0 rrcurveto
          -160 hlineto
          -31 0 -29 -11 -28 -21 -36 -30 -18 -36 0 -43 0 -22 7 -19 14 -17 18 -23 25 -12 34 0 rrcurveto
          161 hlineto
          7 0 4 -2 0 -4 0 -1 -27 -119 -54 -234 -36 -151 -18 -113 0 -77 0 -130 60 -65 121 0 rrcurveto
          endchar
        </CharString>
        <CharString name="tag_todo">
          0 114 -270 rmoveto
          198 98 149 102 99 108 173 191 113 217 51 243 rrcurveto
          10 46 rlineto
          49 228 -22 209 -92 191 -70 141 -105 103 -141 65 rrcurveto
          -5487 -2 rlineto
          -26 0 -24 -9 -22 -18 -23 -19 -13 -22 -6 -25 rrcurveto
          -373 -1754 rlineto
          -5 -25 5 -22 14 -18 14 -19 21 -9 26 0 rrcurveto
          1081 215 rmoveto
          -59 0 -44 56 13 59 rrcurveto
          237 1117 rlineto
          4 16 -2 2 -16 0 rrcurveto
          -247 hlineto
          -59 0 -45 54 13 60 13 60 67 56 60 0 rrcurveto
          760 hlineto
          60 0 43 -56 -12 -60 -13 -60 -67 -54 -60 0 rrcurveto
          -247 hlineto
          -14 0 -5 -4 -3 -14 rrcurveto
          -237 -1117 rlineto
          -13 -59 -67 -56 -60 0 rrcurveto
          1170 hmoveto
          -415 0 27 452 64 303 64 304 172 451 410 0 411 0 -23 -450 -65 -305 -64 -305 -166 -450 -415 0 rrcurveto
          49 230 rmoveto
          210 0 109 300 48 225 48 226 18 299 -209 0 -210 0 -108 -292 -49 -233 -50 -232 -17 -293 210 0 rrcurveto
          2491 -230 rmoveto
          -415 0 27 452 64 303 64 304 172 451 410 0 411 0 -23 -450 -65 -305 -64 -305 -166 -450 -415 0 rrcurveto
          49 230 rmoveto
          210 0 109 300 48 225 48 226 18 299 -209 0 -210 0 -108 -292 -49 -233 -50 -232 -17 -293 210 0 rrcurveto
          -1418 30 rmoveto
          302 0 142 121 69 326 46 215 26 158 -63 79 -70 90 -120 0 -154 0 -14 0 -5 -4 -3 -13 rrcurveto
          -202 -954 rlineto
          -3 -14 3 -4 13 0 rrcurveto
          -16 -230 rmoveto
          -162 hlineto
          -61 0 -45 57 13 62 rrcurveto
          258 1212 rlineto
          13 62 69 57 62 0 rrcurveto
          200 hlineto
          401 0 167 -196 -94 -441 rrcurveto
          -29 -136 rlineto
          -102 -482 -250 -195 -440 0 rrcurveto
          endchar
        </CharString>
        <CharString name="three">
          0 605 -54 rmoveto
          171 0 138 64 105 126 54 66 40 87 24 109 5 27 3 25 0 23 0 133 -53 90 -107 47 -5 2 -2 3 0 4 0 8 5 8 11 7 158 97 79 128 0 161 0 76 -25 64 -50 50 rrcurveto
          -69 68 -107 35 -146 0 -85 -2 -75 -20 -66 -40 -98 -61 -48 -67 0 -74 0 -50 30 -25 60 0 30 0 33 20 36 39 36 39 55 19 75 0 115 0 58 -44 0 -88 0 -68 -46 -65 -91 -60 rrcurveto
          -56 -36 -84 -19 -110 0 -28 0 -24 -8 -21 -16 -33 -24 -16 -35 0 -44 0 -21 6 -18 11 -14 16 -22 23 -11 29 0 220 0 110 -59 0 -116 0 -14 -1 -14 -4 -13 -40 -164 -101 -83 -163 -2 rrcurveto
          -128 1 -88 40 -48 80 -27 44 -27 22 -27 0 -42 0 -21 -33 0 -67 0 -33 4 -26 8 -17 73 -157 129 -79 184 -3 rrcurveto
          endchar
        </CharString>
        <CharString name="two">
          0 359 144 rmoveto
          -37 0 -19 7 0 16 0 50 19 25 39 0 20 0 31 -16 40 -32 -43 -34 -31 -16 -19 0 rrcurveto
          -20 -198 rmoveto
          115 0 94 37 73 74 84 -59 79 -29 74 0 114 1 86 26 58 51 50 46 35 61 20 75 1 7 1 8 0 8 0 51 -23 26 -46 0 -24 0 -26 -18 -28 -35 -27 -36 -23 -23 -20 -10 rrcurveto
          -19 -10 -28 -4 -37 0 -47 0 -46 11 -46 24 23 19 19 16 15 15 220 222 116 256 12 290 rrcurveto
          2 80 rlineto
          0 123 -37 88 -74 55 -56 40 -73 21 -88 0 -133 0 -110 -37 -87 -72 -77 -66 -38 -66 0 -64 0 -59 27 -29 53 0 54 0 43 21 33 44 33 44 31 28 31 13 30 13 25 6 19 0 rrcurveto
          106 0 53 -61 0 -121 -10 -275 -120 -228 -230 -181 -70 58 -74 29 -79 0 -78 0 -70 -26 -59 -53 -60 -52 -30 -71 0 -89 0 -65 26 -52 51 -39 50 -38 63 -19 74 0 rrcurveto
          endchar
        </CharString>
        <CharString name="u">
          0 1033 -54 rmoveto
          49 0 44 11 40 22 51 29 26 30 0 30 0 22 -7 17 -14 13 -14 12 -17 6 -20 0 -16 0 -14 -5 -13 -10 -13 -10 -11 -5 -8 0 -19 0 -10 16 0 33 0 9 2 12 3 15 rrcurveto
          113 536 57 273 0 9 0 23 -6 19 -13 17 -18 23 -27 11 -35 0 -35 0 -28 -10 -23 -21 -23 -21 -15 -27 -7 -34 rrcurveto
          -117 -547 rlineto
          -17 -83 -48 -64 -77 -47 -65 -37 -61 -19 -56 -1 -103 0 -51 47 0 94 0 23 3 26 6 29 83 389 41 200 0 10 0 23 -6 19 -13 17 -18 23 -27 11 -35 0 -35 0 -28 -10 -23 -21 rrcurveto
          -23 -21 -14 -28 -7 -33 rrcurveto
          -124 -580 rlineto
          -14 -65 -7 -58 0 -50 0 -77 16 -61 32 -45 50 -72 93 -36 137 0 103 1 112 53 119 104 rrcurveto
          8 6 rlineto
          -1 0 0 -2 0 -3 rrcurveto
          -7 vlineto
          1 -8 0 -9 0 -10 0 -26 9 -24 18 -22 17 -23 21 -14 23 -7 23 -7 33 -3 43 0 rrcurveto
          endchar
        </CharString>
        <CharString name="underscore">
          0 841 -394 rmoveto
          72 0 63 69 0 64 0 50 -43 45 -54 0 rrcurveto
          -639 hlineto
          -72 0 -63 -69 0 -64 0 -50 43 -45 54 0 rrcurveto
          endchar
        </CharString>
        <CharString name="v">
          0 587 -54 rmoveto
          65 2 53 32 42 65 331 485 165 296 0 106 0 28 -4 21 -7 13 -38 73 -81 37 -122 0 -101 0 -50 -30 0 -60 0 -53 27 -26 55 0 59 0 29 0 0 -1 0 -80 -119 -214 -238 -349 rrcurveto
          -3 -5 -4 -3 -3 0 1 0 1 -2 1 -3 rrcurveto
          -99 745 rlineto
          -8 54 -33 27 -57 0 -33 0 -29 -10 -23 -21 -33 -30 -17 -31 0 -32 rrcurveto
          136 -924 rlineto
          13 -73 45 -37 79 0 rrcurveto
          endchar
        </CharString>
        <CharString name="w">
          0 823 -54 rmoveto
          40 0 34 13 28 26 27 25 20 30 12 33 174 481 87 296 0 111 -2 95 -85 48 -167 0 -88 0 -44 -30 0 -60 0 -53 33 -26 65 0 56 0 28 -3 0 -6 0 -61 -52 -182 -103 -301 rrcurveto
          -14 -44 -27 375 rlineto
          -3 59 -32 30 -59 0 -53 0 -39 -26 -24 -53 -114 -251 -58 -125 -1 0 2 0 29 222 54 443 0 61 -32 31 -63 0 -27 0 -26 -8 -25 -15 -25 -16 -15 -25 -3 -33 rrcurveto
          -98 -946 rlineto
          0 -29 9 -27 18 -23 17 -24 27 -12 37 0 77 0 53 32 30 64 rrcurveto
          170 373 rlineto
          5 13 5 6 5 0 rrcurveto
          15 -379 rlineto
          2 -35 13 -26 23 -19 23 -19 28 -10 33 0 rrcurveto
          endchar
        </CharString>
        <CharString name="x">
          0 912 -54 rmoveto
          44 0 35 6 27 12 67 29 59 60 51 89 4 8 3 11 0 14 0 15 -3 12 -6 11 -15 28 -22 15 -29 0 -30 0 -23 -14 -16 -27 -27 -46 -24 -23 -20 0 -16 0 -12 16 -10 30 rrcurveto
          -60 189 -30 98 0 8 0 15 3 11 6 7 rrcurveto
          341 372 rlineto
          32 34 15 35 0 37 0 25 -7 22 -16 19 -21 27 -29 13 -36 0 -44 0 -36 -17 -30 -34 rrcurveto
          -272 -299 2 1 rlineto
          7 0 4 -2 1 -5 rrcurveto
          -54 194 rlineto
          -7 28 -14 27 -19 26 -20 26 -26 21 -33 14 -33 15 -35 7 -37 0 -29 0 -27 -6 -25 -12 -66 -33 -56 -56 -45 -78 -9 -16 -5 -17 0 -18 0 -17 6 -15 12 -14 17 -18 19 -9 21 0 rrcurveto
          29 0 23 13 17 25 32 50 24 25 17 0 15 0 8 -3 2 -6 68 -195 34 -100 0 -6 0 -14 -4 -12 -7 -8 rrcurveto
          -377 -412 rlineto
          -30 -31 -15 -32 0 -31 0 -30 7 -24 13 -19 21 -27 29 -14 38 0 46 0 38 17 29 34 rrcurveto
          308 346 rlineto
          -1 -2 -2 0 -3 0 -7 0 -3 2 -2 4 rrcurveto
          79 -293 rlineto
          20 -72 57 -36 95 0 rrcurveto
          endchar
        </CharString>
        <CharString name="x_center">
          0 978 275 rmoveto
          77 0 55 73 0 61 0 21 -8 22 -12 15 rrcurveto
          -181 229 282 233 rlineto
          33 27 18 38 0 37 0 49 -41 45 -56 0 -30 0 -30 -12 -25 -19 rrcurveto
          -280 -233 -181 229 rlineto
          -16 21 -30 14 -30 0 -30 0 -30 -12 -25 -20 -32 -28 -18 -38 0 -36 0 -20 7 -22 12 -16 rrcurveto
          182 -229 -283 -233 rlineto
          -32 -27 -19 -40 0 -35 0 -21 8 -21 12 -17 18 -22 30 -13 30 0 30 0 29 12 24 19 rrcurveto
          282 233 179 -229 rlineto
          20 -24 30 -11 31 0 rrcurveto
          endchar
        </CharString>
        <CharString name="xml_comment_begin">
          0 1038 436 rmoveto
          30 0 29 11 25 21 34 28 17 34 0 40 0 22 -7 19 -13 18 -19 23 -26 12 -32 0 rrcurveto
          -2459 hlineto
          -49 -228 rlineto
          -1351 -459 rmoveto
          31 0 28 10 26 21 33 28 17 33 0 40 0 20 -6 20 -12 19 -60 76 -30 39 0 1 0 2 47 42 96 81 9 7 12 7 14 5 14 5 12 3 9 0 rrcurveto
          560 hlineto
          49 228 rlineto
          -570 hlineto
          -9 0 -10 2 -10 5 -11 5 -8 5 -4 6 rrcurveto
          -90 114 rlineto
          0 3 2 3 4 4 rrcurveto
          137 113 rlineto
          33 30 17 35 0 37 0 24 -7 20 -15 18 -19 22 -25 11 -31 0 -27 0 -28 -10 -28 -21 rrcurveto
          -555 -460 rlineto
          -35 -29 -17 -33 0 -37 0 -21 7 -21 14 -20 rrcurveto
          361 -459 rlineto
          21 -22 25 -11 29 0 rrcurveto
          -107 475 rmoveto
          -1 0 -12 15 -23 30 -24 30 -11 15 0 0 0 1 37 32 76 63 3 3 3 1 3 0 1 0 12 -15 23 -29 23 -30 12 -14 0 0 0 -4 -2 -3 -4 -4 -74 -61 -39 -30 -3 0 rrcurveto
          1088 -506 rmoveto
          49 0 46 18 42 36 56 48 27 57 0 68 0 35 -10 31 -20 27 -29 39 -40 19 -51 0 -53 0 -47 -18 -43 -36 -57 -48 -28 -57 0 -66 0 -36 11 -31 21 -28 29 -39 42 -19 55 0 rrcurveto
          102 499 rmoveto
          27 0 25 9 23 19 23 19 16 23 8 28 133 545 66 278 0 10 0 25 -7 23 -16 20 -22 27 -29 14 -36 0 -35 0 -33 -13 -30 -25 -30 -25 -18 -30 -8 -34 -98 -543 -49 -275 0 -6 rrcurveto
          0 -22 7 -19 14 -17 17 -21 23 -10 29 0 rrcurveto
          endchar
        </CharString>
        <CharString name="xml_comment_empty">
          0 -2885 453 rmoveto
          -1 0 -2 1 -1 1 rrcurveto
          -69 88 rlineto
          -1 1 -1 2 0 1 0 1 1 1 2 1 rrcurveto
          107 89 rlineto
          2 1 2 1 1 0 2 0 1 -1 2 -1 rrcurveto
          69 -89 rlineto
          1 -1 1 -1 -1 -1 0 -2 -1 -1 -2 -2 rrcurveto
          -106 -87 rlineto
          -2 -1 -2 -1 -2 0 rrcurveto
          4382 -18 rmoveto
          -9 17 -6 18 -3 18 -3 18 1 21 5 23 5 23 6 19 7 15 7 15 13 19 19 24 rrcurveto
          -2923 hlineto
          -49 -230 rlineto
          -273 9 rmoveto
          28 0 27 10 25 20 25 20 16 24 8 30 rrcurveto
          197 806 rlineto
          7 35 -6 31 -21 27 -20 26 -29 13 -35 0 -37 0 -33 -13 -32 -27 -31 -27 -20 -31 -7 -35 rrcurveto
          -147 -805 rlineto
          -4 -30 6 -24 17 -20 16 -20 22 -10 28 0 rrcurveto
          -102 -499 rmoveto
          51 0 47 19 44 37 43 37 28 45 10 51 12 53 -9 45 -27 37 -28 37 -39 19 -51 0 -54 0 -49 -19 -44 -37 -44 -37 -27 -45 -12 -53 -10 -51 8 -45 28 -37 29 -37 41 -19 53 0 rrcurveto
          -175 490 rmoveto
          49 230 rlineto
          -565 hlineto
          -9 0 -10 3 -11 5 -11 5 -8 6 -6 6 rrcurveto
          -89 113 rlineto
          -1 2 -1 1 1 2 0 1 1 1 2 2 rrcurveto
          137 113 rlineto
          27 25 17 27 6 29 7 34 -6 28 -19 21 -18 22 -25 11 -30 0 -28 0 -29 -11 -30 -22 rrcurveto
          -555 -460 rlineto
          -28 -23 -17 -27 -7 -31 -6 -29 6 -27 17 -26 rrcurveto
          361 -458 rlineto
          20 -21 25 -11 28 0 32 0 30 11 27 22 27 23 16 27 7 32 6 28 -5 27 -16 25 rrcurveto
          -89 113 rlineto
          -2 2 0 1 0 2 1 2 1 1 2 2 rrcurveto
          137 116 rlineto
          8 6 11 6 13 5 14 5 11 3 8 0 rrcurveto
          endchar
        </CharString>
        <CharString name="y">
          0 423 -504 rmoveto
          134 0 119 41 104 81 104 82 70 111 34 140 162 696 81 354 0 11 0 61 -31 31 -61 0 -32 0 -30 -12 -27 -23 -28 -24 -17 -28 -8 -32 rrcurveto
          -131 -573 rlineto
          -9 -38 -42 -51 -73 -62 -71 -57 -64 -29 -57 -1 -58 0 -29 39 0 79 0 32 50 236 99 439 4 20 3 12 0 6 0 43 -33 22 -65 2 -32 0 -30 -12 -28 -23 -28 -24 -17 -28 -7 -33 rrcurveto
          -141 -603 rlineto
          -12 -55 -6 -52 0 -50 0 -185 85 -93 169 0 116 1 108 41 99 78 26 21 14 11 4 0 -7 0 -4 3 0 6 -11 -67 -25 -68 -41 -69 -71 -123 -97 -62 -125 0 -52 0 -38 8 -27 16 rrcurveto
          -26 16 -26 27 -25 40 -18 22 -24 11 -31 0 -39 0 -32 -12 -25 -25 -25 -25 -12 -30 0 -37 0 -24 6 -19 11 -14 84 -117 115 -59 147 0 rrcurveto
          endchar
        </CharString>
        <CharString name="z">
          0 926 -24 rmoveto
          32 0 28 10 23 19 38 29 18 41 0 54 0 49 -10 44 -20 37 -41 77 -36 39 -32 0 -46 0 -23 -22 0 -43 0 -13 6 -17 12 -20 21 -28 10 -19 0 -11 0 1 2 1 5 0 rrcurveto
          -386 hlineto
          -7 0 -3 3 0 6 0 8 3 7 5 5 rrcurveto
          659 601 rlineto
          41 38 20 36 0 37 0 31 -8 27 -17 23 -26 32 -35 16 -44 0 rrcurveto
          -661 hlineto
          -95 0 -48 -51 0 -101 0 -35 10 -36 18 -39 38 -82 34 -41 31 0 17 0 15 7 15 12 15 13 7 16 0 17 0 17 -6 17 -11 16 -12 16 -6 14 0 11 0 -1 -2 -1 -4 0 rrcurveto
          402 hlineto
          6 0 3 -3 0 -6 0 -6 -3 -6 -7 -5 rrcurveto
          -657 -581 rlineto
          -40 -39 -21 -43 0 -49 0 -30 9 -27 18 -24 26 -32 35 -16 44 0 rrcurveto
          endchar
        </CharString>
        <CharString name="zero">
          0 581 -54 rmoveto
          142 0 129 64 106 121 174 198 98 337 21 265 78 35 74 38 0 56 0 38 -44 21 -35 0 -31 0 -33 -2 -6 -1 -12 217 -120 121 -209 0 -142 0 -130 -53 -109 -122 -181 -208 -114 -416 0 -287 rrcurveto
          0 -274 119 -148 225 0 rrcurveto
          49 229 rmoveto
          -106 0 -36 57 0 65 0 159 202 180 321 174 -60 -411 -144 -224 -177 0 rrcurveto
          -132 538 rmoveto
          89 349 124 163 151 0 120 0 39 -49 8 -114 -207 -74 -246 -181 -76 -84 rrcurveto
          endchar
        </CharString>
</ttFont>
